<svg width="137" height="141" viewBox="0 0 137 141" fill="none" xmlns="http://www.w3.org/2000/svg">
<g clip-path="url(#clip0_62_30)">
<mask id="mask0_62_30" style="mask-type:luminance" maskUnits="userSpaceOnUse" x="-1" y="-23" width="137" height="127">
<path d="M135.999 -22.8974H-0.200287V103.239H135.999V-22.8974Z" fill="white"/>
</mask>
<g mask="url(#mask0_62_30)">
<path d="M21.116 75.0646C14.4563 75.0646 9.64302 73.4138 6.68245 70.106C3.72813 66.7919 2.25098 61.4535 2.25098 54.0878V46.8947H16.672V56.0587C16.672 59.7086 17.8394 61.532 20.1771 61.532C21.4853 61.532 22.396 61.1491 22.9061 60.3771C23.4131 59.6082 23.6697 58.312 23.6697 56.4855C23.6697 54.0941 23.385 52.1138 22.8185 50.5477C22.2489 48.9754 21.5229 47.6605 20.6403 46.606C19.764 45.5452 18.1867 43.9038 15.9084 41.685L9.5992 35.3455C4.6983 30.5501 2.25098 25.2463 2.25098 19.4278C2.25098 13.1511 3.68432 8.37453 6.55726 5.09181C9.43647 1.81223 13.6332 0.170868 19.1506 0.170868C25.7509 0.170868 30.4985 1.92521 33.3964 5.43075C36.3007 8.93943 37.7528 14.4316 37.7528 21.9134H22.8185L22.7309 16.8544C22.7309 15.8846 22.4586 15.1157 21.9172 14.5445C21.382 13.9765 20.6309 13.6909 19.6639 13.6909C18.5279 13.6909 17.6735 14.0047 17.0977 14.6324C16.5281 15.2601 16.2464 16.12 16.2464 17.2059C16.2464 19.6004 17.614 22.0829 20.3524 24.65L28.8773 32.86C30.8709 34.8026 32.5233 36.6448 33.8346 38.3835C35.1427 40.1253 36.1943 42.1809 36.9892 44.5472C37.7904 46.9167 38.1909 49.7286 38.1909 52.9831C38.1909 60.2233 36.864 65.7123 34.2101 69.4532C31.5625 73.1941 27.1999 75.0646 21.116 75.0646Z" fill="#E4383C"/>
<path d="M43.0457 74.3741V0.848755H72.4011V15.0592H57.98V29.3576H71.8127V43.2165H57.98V60.0758H73.34V74.3741H43.0457Z" fill="#E4383C"/>
<path d="M83.9275 74.3741L76.0786 0.848755H90.412L94.5055 47.2462L98.6114 0.848755H112.256L116.187 47.2462L120.118 0.848755H134.627L126.602 74.3741H109.014L105.346 38.9358L101.854 74.3741H83.9275Z" fill="#E4383C"/>
</g>
<mask id="mask1_62_30" style="mask-type:luminance" maskUnits="userSpaceOnUse" x="-1" y="71" width="138" height="53">
<path d="M136.8 71.1026H-0.200287V123.325H136.8V71.1026Z" fill="white"/>
</mask>
<g mask="url(#mask1_62_30)">
<path d="M1.89691 111.099V81.4724H13.7267V87.1968H7.9182V92.9588H13.4888V98.5451H7.9182V105.336H14.1147V111.099H1.89691Z" fill="#FFFFE8"/>
<path d="M22.9084 111.375C20.4798 111.375 18.6709 110.684 17.4879 109.303C16.3112 107.922 15.7229 105.876 15.7229 103.165V81.4724H21.4688V102.926C21.4688 103.874 21.5595 104.608 21.7442 105.136C21.9257 105.663 22.3137 105.927 22.9084 105.927C23.4998 105.927 23.8879 105.669 24.0726 105.148C24.2541 104.63 24.348 103.89 24.348 102.926V81.4724H30.0939V103.165C30.0939 105.876 29.4992 107.922 28.3163 109.303C27.1395 110.684 25.3369 111.375 22.9084 111.375Z" fill="#FFFFE8"/>
<path d="M32.3563 81.4724H41.4446C42.8873 81.4724 44.0014 81.8051 44.787 82.4642C45.5788 83.1169 46.1139 84.0396 46.3893 85.2259C46.6647 86.4059 46.8024 87.9186 46.8024 89.7577C46.8024 91.4336 46.5833 92.7423 46.1515 93.6869C45.7165 94.6253 44.9622 95.2781 43.8857 95.6453C44.7776 95.8304 45.4254 96.2823 45.826 97.001C46.2266 97.7134 46.4269 98.6769 46.4269 99.8883L46.3518 111.099H40.5808V99.5117C40.5808 98.6832 40.4181 98.1559 40.0926 97.93C39.7734 97.6977 39.1913 97.5785 38.3401 97.5785V111.099H32.3563V81.4724ZM39.7922 92.4441C40.6184 92.4441 41.0315 91.5497 41.0315 89.7577C41.0315 88.9731 40.9939 88.3862 40.9188 88.0002C40.85 87.6079 40.7248 87.3349 40.5433 87.1842C40.3586 87.0336 40.0957 86.9583 39.7546 86.9583H38.3776V92.4441H39.7922Z" fill="#FFFFE8"/>
<path d="M55.8152 111.375C53.4273 111.375 51.6122 110.647 50.3697 109.19C49.1336 107.728 48.517 105.672 48.517 103.027V88.9292C48.517 86.3777 49.1336 84.4539 50.3697 83.1546C51.6122 81.849 53.4273 81.1963 55.8152 81.1963C58.1937 81.1963 59.9994 81.849 61.2356 83.1546C62.478 84.4539 63.1008 86.3777 63.1008 88.9292V103.027C63.1008 105.697 62.478 107.756 61.2356 109.203C59.9994 110.653 58.1937 111.375 55.8152 111.375ZM55.8152 105.926C56.341 105.926 56.6946 105.697 56.8792 105.236C57.0608 104.778 57.1546 104.131 57.1546 103.303V88.8162C57.1546 88.1822 57.067 87.6613 56.8918 87.2596C56.7165 86.8516 56.366 86.6444 55.8402 86.6444C54.8544 86.6444 54.3631 87.3945 54.3631 88.8915V103.34C54.3631 104.194 54.4663 104.841 54.676 105.274C54.8826 105.71 55.2644 105.926 55.8152 105.926Z" fill="#FFFFE8"/>
<path d="M65.4628 81.4724H73.6122C75.7216 81.4724 77.3051 82.0625 78.3567 83.2425C79.4145 84.4162 79.959 86.1486 79.984 88.4396L80.0466 102.311C80.0717 105.224 79.5647 107.417 78.5319 108.889C77.5054 110.364 75.7967 111.099 73.4119 111.099H65.4628V81.4724ZM72.448 105.851C73.5246 105.851 74.0629 105.324 74.0629 104.269V88.9919C74.0629 88.3329 74.0066 87.8339 73.9002 87.4981C73.8 87.1654 73.6122 86.9395 73.3368 86.8202C73.0614 86.7041 72.6389 86.6445 72.0725 86.6445H71.4215V105.851H72.448Z" fill="#FFFFE8"/>
<path d="M82.4115 81.4724H91.4997C92.9425 81.4724 94.0566 81.8051 94.8421 82.4642C95.6339 83.1169 96.1691 84.0396 96.4445 85.2259C96.7199 86.4059 96.8576 87.9186 96.8576 89.7577C96.8576 91.4336 96.6385 92.7423 96.2066 93.6869C95.7716 94.6253 95.0174 95.2781 93.9408 95.6453C94.8327 95.8304 95.4805 96.2823 95.8811 97.001C96.2817 97.7134 96.482 98.6769 96.482 99.8883L96.4069 111.099H90.636V99.5117C90.636 98.6832 90.4732 98.1559 90.1478 97.93C89.8285 97.6977 89.2464 97.5785 88.3952 97.5785V111.099H82.4115V81.4724ZM89.8473 92.4441C90.6735 92.4441 91.0866 91.5497 91.0866 89.7577C91.0866 88.9731 91.0491 88.3862 90.974 88.0002C90.9051 87.6079 90.7799 87.3349 90.5984 87.1842C90.4138 87.0336 90.1509 86.9583 89.8098 86.9583H88.4328V92.4441H89.8473Z" fill="#FFFFE8"/>
<path d="M98.5346 111.099V81.4724H104.243V111.099H98.5346Z" fill="#FFFFE8"/>
<path d="M109.33 111.099L105.688 81.4473H111.333L113.499 101.621L115.427 81.4473H121.06L117.417 111.099H109.33Z" fill="#FFFFE8"/>
<path d="M122.738 111.099V81.4724H134.567V87.1968H128.759V92.9588H134.329V98.5451H128.759V105.336H134.955V111.099H122.738Z" fill="#FFFFE8"/>
</g>
<mask id="mask2_62_30" style="mask-type:luminance" maskUnits="userSpaceOnUse" x="0" y="108" width="136" height="43">
<path d="M135.197 108.06H0.600891V150.641H135.197V108.06Z" fill="white"/>
</mask>
<g mask="url(#mask2_62_30)">
<path d="M2.28476 140.955V116.589H12.0115V121.297H7.22948V126.029H11.8112V130.624H7.22948V136.223H12.3244V140.955H2.28476Z" fill="#E4383C"/>
<path d="M16.1698 140.955L13.1779 116.551H17.8097L19.5998 133.16L21.1771 116.551H25.8214L22.8295 140.955H16.1698Z" fill="#E4383C"/>
<path d="M27.2111 140.955V116.589H36.9378V121.297H32.1558V126.029H36.7375V130.624H32.1558V136.223H37.2507V140.955H27.2111Z" fill="#E4383C"/>
<path d="M38.8679 116.589H46.3413C47.5243 116.589 48.4444 116.859 49.0954 117.392C49.7463 117.929 50.1844 118.685 50.4098 119.665C50.6351 120.637 50.7478 121.88 50.7478 123.393C50.7478 124.774 50.5662 125.853 50.2095 126.632C49.8496 127.404 49.2268 127.944 48.3443 128.251C49.0766 128.402 49.6086 128.772 49.9341 129.356C50.2658 129.943 50.4348 130.737 50.4348 131.741L50.3847 140.955H45.6278V131.427C45.6278 130.743 45.4932 130.307 45.2272 130.122C44.9674 129.93 44.4886 129.833 43.7876 129.833V140.955H38.8679V116.589ZM44.9768 125.602C45.6528 125.602 45.9908 124.868 45.9908 123.393C45.9908 122.75 45.9595 122.269 45.9032 121.949C45.8531 121.623 45.753 121.403 45.6028 121.284C45.4525 121.158 45.2335 121.096 44.9518 121.096H43.8126V125.602H44.9768Z" fill="#E4383C"/>
<path d="M55.3056 140.955V132.921L51.4249 116.589H56.2319L57.5964 124.837L58.9484 116.589H63.7679L59.8873 132.921V140.955H55.3056Z" fill="#E4383C"/>
<path d="M66.8728 140.955L64.269 116.589H69.0259L70.3904 131.967L71.7424 116.589H76.274L77.5759 131.967L78.8778 116.589H83.6848L81.0184 140.955H75.1974L73.9832 129.205L72.819 140.955H66.8728Z" fill="#E4383C"/>
<path d="M85.1273 140.955V116.589H89.9593V125.289H92.2502V116.589H97.0948V140.955H92.2502V129.896H89.9593V140.955H85.1273Z" fill="#E4383C"/>
<path d="M99.2456 140.955V116.589H108.972V121.297H104.19V126.029H108.772V130.624H104.19V136.223H109.285V140.955H99.2456Z" fill="#E4383C"/>
<path d="M110.902 116.589H118.376C119.559 116.589 120.479 116.859 121.13 117.392C121.781 117.929 122.219 118.685 122.444 119.665C122.67 120.637 122.782 121.88 122.782 123.393C122.782 124.774 122.601 125.853 122.244 126.632C121.884 127.404 121.261 127.944 120.379 128.251C121.111 128.402 121.643 128.772 121.969 129.356C122.3 129.943 122.469 130.737 122.469 131.741L122.419 140.955H117.662V131.427C117.662 130.743 117.528 130.307 117.262 130.122C117.002 129.93 116.523 129.833 115.822 129.833V140.955H110.902V116.589ZM117.011 125.602C117.687 125.602 118.025 124.868 118.025 123.393C118.025 122.75 117.994 122.269 117.938 121.949C117.888 121.623 117.788 121.403 117.637 121.284C117.487 121.158 117.268 121.096 116.986 121.096H115.847V125.602H117.011Z" fill="#E4383C"/>
<mask id="mask3_62_30" style="mask-type:luminance" maskUnits="userSpaceOnUse" x="123" y="116" width="13" height="25">
<path d="M123.981 116.094H135.16V141H123.981V116.094Z" fill="white"/>
</mask>
<g mask="url(#mask3_62_30)">
<path d="M124.398 140.955V116.589H134.125V121.297H129.343V126.029H133.925V130.624H129.343V136.223H134.438V140.955H124.398Z" fill="#E4383C"/>
</g>
</g>
</g>
<defs>
<clipPath id="clip0_62_30">
<rect width="137" height="141" fill="white"/>
</clipPath>
</defs>
</svg>
