<svg xmlns="http://www.w3.org/2000/svg" xmlns:xlink="http://www.w3.org/1999/xlink" width="665" zoomAndPan="magnify" viewBox="0 0 498.75 374.999991" height="500" preserveAspectRatio="xMidYMid meet" version="1.0"><defs><g/><clipPath id="21c24ebc45"><rect x="0" width="170" y="0" height="157"/></clipPath><clipPath id="92172006cb"><rect x="0" width="171" y="0" height="65"/></clipPath><clipPath id="80b47b0f01"><path d="M 154 10 L 167.953125 10 L 167.953125 41 L 154 41 Z M 154 10 " clip-rule="nonzero"/></clipPath><clipPath id="2ba7aac7c0"><rect x="0" width="168" y="0" height="53"/></clipPath></defs><g transform="matrix(1, 0, 0, 1, 164, 54)"><g clip-path="url(#21c24ebc45)"><g fill="#e4383c" fill-opacity="1"><g transform="translate(0.825242, 121.072053)"><g><path d="M 25.78125 0.859375 C 17.46875 0.859375 11.460938 -1.195312 7.765625 -5.3125 C 4.078125 -9.4375 2.234375 -16.082031 2.234375 -25.25 L 2.234375 -34.203125 L 20.234375 -34.203125 L 20.234375 -22.796875 C 20.234375 -18.253906 21.691406 -15.984375 24.609375 -15.984375 C 26.242188 -15.984375 27.378906 -16.460938 28.015625 -17.421875 C 28.648438 -18.378906 28.96875 -19.992188 28.96875 -22.265625 C 28.96875 -25.242188 28.613281 -27.707031 27.90625 -29.65625 C 27.195312 -31.613281 26.289062 -33.25 25.1875 -34.5625 C 24.09375 -35.882812 22.125 -37.925781 19.28125 -40.6875 L 11.40625 -48.578125 C 5.289062 -54.546875 2.234375 -61.148438 2.234375 -68.390625 C 2.234375 -76.203125 4.023438 -82.148438 7.609375 -86.234375 C 11.203125 -90.316406 16.441406 -92.359375 23.328125 -92.359375 C 31.566406 -92.359375 37.492188 -90.175781 41.109375 -85.8125 C 44.734375 -81.445312 46.546875 -74.609375 46.546875 -65.296875 L 27.90625 -65.296875 L 27.796875 -71.59375 C 27.796875 -72.800781 27.457031 -73.757812 26.78125 -74.46875 C 26.113281 -75.175781 25.175781 -75.53125 23.96875 -75.53125 C 22.550781 -75.53125 21.484375 -75.140625 20.765625 -74.359375 C 20.054688 -73.578125 19.703125 -72.507812 19.703125 -71.15625 C 19.703125 -68.175781 21.410156 -65.085938 24.828125 -61.890625 L 35.46875 -51.671875 C 37.957031 -49.253906 40.019531 -46.960938 41.65625 -44.796875 C 43.289062 -42.628906 44.601562 -40.070312 45.59375 -37.125 C 46.59375 -34.175781 47.09375 -30.675781 47.09375 -26.625 C 47.09375 -17.613281 45.4375 -10.78125 42.125 -6.125 C 38.820312 -1.46875 33.375 0.859375 25.78125 0.859375 Z M 25.78125 0.859375 "/></g></g></g><g fill="#e4383c" fill-opacity="1"><g transform="translate(49.931769, 121.072053)"><g><path d="M 4.046875 0 L 4.046875 -91.515625 L 40.6875 -91.515625 L 40.6875 -73.828125 L 22.6875 -73.828125 L 22.6875 -56.03125 L 39.953125 -56.03125 L 39.953125 -38.78125 L 22.6875 -38.78125 L 22.6875 -17.796875 L 41.859375 -17.796875 L 41.859375 0 Z M 4.046875 0 "/></g></g></g><g fill="#e4383c" fill-opacity="1"><g transform="translate(93.818731, 121.072053)"><g><path d="M 11.1875 0 L 1.390625 -91.515625 L 19.28125 -91.515625 L 24.390625 -33.765625 L 29.515625 -91.515625 L 46.546875 -91.515625 L 51.453125 -33.765625 L 56.359375 -91.515625 L 74.46875 -91.515625 L 64.453125 0 L 42.5 0 L 37.921875 -44.109375 L 33.5625 0 Z M 11.1875 0 "/></g></g></g></g></g><g transform="matrix(1, 0, 0, 1, 164, 171)"><g clip-path="url(#92172006cb)"><g fill="#ffffe8" fill-opacity="1"><g transform="translate(0.99267, 49.782175)"><g><path d="M 1.625 0 L 1.625 -36.875 L 16.390625 -36.875 L 16.390625 -29.75 L 9.140625 -29.75 L 9.140625 -22.578125 L 16.09375 -22.578125 L 16.09375 -15.625 L 9.140625 -15.625 L 9.140625 -7.171875 L 16.875 -7.171875 L 16.875 0 Z M 1.625 0 "/></g></g></g><g fill="#ffffe8" fill-opacity="1"><g transform="translate(18.671777, 49.782175)"><g><path d="M 10.171875 0.34375 C 7.140625 0.34375 4.882812 -0.515625 3.40625 -2.234375 C 1.9375 -3.953125 1.203125 -6.5 1.203125 -9.875 L 1.203125 -36.875 L 8.375 -36.875 L 8.375 -10.171875 C 8.375 -8.992188 8.488281 -8.078125 8.71875 -7.421875 C 8.945312 -6.765625 9.429688 -6.4375 10.171875 -6.4375 C 10.910156 -6.4375 11.394531 -6.757812 11.625 -7.40625 C 11.851562 -8.050781 11.96875 -8.972656 11.96875 -10.171875 L 11.96875 -36.875 L 19.140625 -36.875 L 19.140625 -9.875 C 19.140625 -6.5 18.398438 -3.953125 16.921875 -2.234375 C 15.453125 -0.515625 13.203125 0.34375 10.171875 0.34375 Z M 10.171875 0.34375 "/></g></g></g><g fill="#ffffe8" fill-opacity="1"><g transform="translate(39.011332, 49.782175)"><g><path d="M 1.625 -36.875 L 12.96875 -36.875 C 14.769531 -36.875 16.160156 -36.460938 17.140625 -35.640625 C 18.128906 -34.828125 18.796875 -33.679688 19.140625 -32.203125 C 19.484375 -30.734375 19.65625 -28.851562 19.65625 -26.5625 C 19.65625 -24.476562 19.382812 -22.847656 18.84375 -21.671875 C 18.300781 -20.503906 17.359375 -19.691406 16.015625 -19.234375 C 17.128906 -19.003906 17.9375 -18.441406 18.4375 -17.546875 C 18.9375 -16.660156 19.1875 -15.460938 19.1875 -13.953125 L 19.09375 0 L 11.890625 0 L 11.890625 -14.421875 C 11.890625 -15.453125 11.6875 -16.109375 11.28125 -16.390625 C 10.882812 -16.679688 10.15625 -16.828125 9.09375 -16.828125 L 9.09375 0 L 1.625 0 Z M 10.90625 -23.21875 C 11.9375 -23.21875 12.453125 -24.332031 12.453125 -26.5625 C 12.453125 -27.539062 12.40625 -28.269531 12.3125 -28.75 C 12.226562 -29.238281 12.070312 -29.578125 11.84375 -29.765625 C 11.613281 -29.953125 11.285156 -30.046875 10.859375 -30.046875 L 9.140625 -30.046875 L 9.140625 -23.21875 Z M 10.90625 -23.21875 "/></g></g></g><g fill="#ffffe8" fill-opacity="1"><g transform="translate(59.479617, 49.782175)"><g><path d="M 10.4375 0.34375 C 7.457031 0.34375 5.191406 -0.5625 3.640625 -2.375 C 2.097656 -4.195312 1.328125 -6.753906 1.328125 -10.046875 L 1.328125 -27.59375 C 1.328125 -30.769531 2.097656 -33.164062 3.640625 -34.78125 C 5.191406 -36.40625 7.457031 -37.21875 10.4375 -37.21875 C 13.40625 -37.21875 15.660156 -36.40625 17.203125 -34.78125 C 18.753906 -33.164062 19.53125 -30.769531 19.53125 -27.59375 L 19.53125 -10.046875 C 19.53125 -6.722656 18.753906 -4.160156 17.203125 -2.359375 C 15.660156 -0.554688 13.40625 0.34375 10.4375 0.34375 Z M 10.4375 -6.4375 C 11.09375 -6.4375 11.535156 -6.722656 11.765625 -7.296875 C 11.992188 -7.867188 12.109375 -8.671875 12.109375 -9.703125 L 12.109375 -27.734375 C 12.109375 -28.523438 12 -29.171875 11.78125 -29.671875 C 11.5625 -30.179688 11.125 -30.4375 10.46875 -30.4375 C 9.238281 -30.4375 8.625 -29.503906 8.625 -27.640625 L 8.625 -9.65625 C 8.625 -8.59375 8.753906 -7.789062 9.015625 -7.25 C 9.273438 -6.707031 9.75 -6.4375 10.4375 -6.4375 Z M 10.4375 -6.4375 "/></g></g></g><g fill="#ffffe8" fill-opacity="1"><g transform="translate(80.334094, 49.782175)"><g><path d="M 1.625 -36.875 L 11.796875 -36.875 C 14.429688 -36.875 16.40625 -36.140625 17.71875 -34.671875 C 19.039062 -33.210938 19.71875 -31.054688 19.75 -28.203125 L 19.828125 -10.9375 C 19.859375 -7.3125 19.226562 -4.582031 17.9375 -2.75 C 16.65625 -0.914062 14.523438 0 11.546875 0 L 1.625 0 Z M 10.34375 -6.53125 C 11.6875 -6.53125 12.359375 -7.1875 12.359375 -8.5 L 12.359375 -27.515625 C 12.359375 -28.335938 12.289062 -28.957031 12.15625 -29.375 C 12.03125 -29.789062 11.796875 -30.070312 11.453125 -30.21875 C 11.109375 -30.363281 10.582031 -30.4375 9.875 -30.4375 L 9.0625 -30.4375 L 9.0625 -6.53125 Z M 10.34375 -6.53125 "/></g></g></g><g fill="#ffffe8" fill-opacity="1"><g transform="translate(101.488942, 49.782175)"><g><path d="M 1.625 -36.875 L 12.96875 -36.875 C 14.769531 -36.875 16.160156 -36.460938 17.140625 -35.640625 C 18.128906 -34.828125 18.796875 -33.679688 19.140625 -32.203125 C 19.484375 -30.734375 19.65625 -28.851562 19.65625 -26.5625 C 19.65625 -24.476562 19.382812 -22.847656 18.84375 -21.671875 C 18.300781 -20.503906 17.359375 -19.691406 16.015625 -19.234375 C 17.128906 -19.003906 17.9375 -18.441406 18.4375 -17.546875 C 18.9375 -16.660156 19.1875 -15.460938 19.1875 -13.953125 L 19.09375 0 L 11.890625 0 L 11.890625 -14.421875 C 11.890625 -15.453125 11.6875 -16.109375 11.28125 -16.390625 C 10.882812 -16.679688 10.15625 -16.828125 9.09375 -16.828125 L 9.09375 0 L 1.625 0 Z M 10.90625 -23.21875 C 11.9375 -23.21875 12.453125 -24.332031 12.453125 -26.5625 C 12.453125 -27.539062 12.40625 -28.269531 12.3125 -28.75 C 12.226562 -29.238281 12.070312 -29.578125 11.84375 -29.765625 C 11.613281 -29.953125 11.285156 -30.046875 10.859375 -30.046875 L 9.140625 -30.046875 L 9.140625 -23.21875 Z M 10.90625 -23.21875 "/></g></g></g><g fill="#ffffe8" fill-opacity="1"><g transform="translate(121.957227, 49.782175)"><g><path d="M 1.28125 0 L 1.28125 -36.875 L 8.40625 -36.875 L 8.40625 0 Z M 1.28125 0 "/></g></g></g><g fill="#ffffe8" fill-opacity="1"><g transform="translate(131.697898, 49.782175)"><g><path d="M 5.015625 0 L 0.46875 -36.90625 L 7.515625 -36.90625 L 10.21875 -11.796875 L 12.625 -36.90625 L 19.65625 -36.90625 L 15.109375 0 Z M 5.015625 0 "/></g></g></g><g fill="#ffffe8" fill-opacity="1"><g transform="translate(151.822903, 49.782175)"><g><path d="M 1.625 0 L 1.625 -36.875 L 16.390625 -36.875 L 16.390625 -29.75 L 9.140625 -29.75 L 9.140625 -22.578125 L 16.09375 -22.578125 L 16.09375 -15.625 L 9.140625 -15.625 L 9.140625 -7.171875 L 16.875 -7.171875 L 16.875 0 Z M 1.625 0 "/></g></g></g></g></g><g transform="matrix(1, 0, 0, 1, 165, 217)"><g clip-path="url(#2ba7aac7c0)"><g fill="#e4383c" fill-opacity="1"><g transform="translate(0.758021, 40.944225)"><g><path d="M 1.34375 0 L 1.34375 -30.328125 L 13.484375 -30.328125 L 13.484375 -24.46875 L 7.515625 -24.46875 L 7.515625 -18.578125 L 13.234375 -18.578125 L 13.234375 -12.859375 L 7.515625 -12.859375 L 7.515625 -5.890625 L 13.875 -5.890625 L 13.875 0 Z M 1.34375 0 "/></g></g></g><g fill="#e4383c" fill-opacity="1"><g transform="translate(15.307759, 40.944225)"><g><path d="M 4.125 0 L 0.390625 -30.375 L 6.171875 -30.375 L 8.40625 -9.703125 L 10.375 -30.375 L 16.171875 -30.375 L 12.4375 0 Z M 4.125 0 "/></g></g></g><g fill="#e4383c" fill-opacity="1"><g transform="translate(31.87045, 40.944225)"><g><path d="M 1.34375 0 L 1.34375 -30.328125 L 13.484375 -30.328125 L 13.484375 -24.46875 L 7.515625 -24.46875 L 7.515625 -18.578125 L 13.234375 -18.578125 L 13.234375 -12.859375 L 7.515625 -12.859375 L 7.515625 -5.890625 L 13.875 -5.890625 L 13.875 0 Z M 1.34375 0 "/></g></g></g><g fill="#e4383c" fill-opacity="1"><g transform="translate(46.420188, 40.944225)"><g><path d="M 1.34375 -30.328125 L 10.671875 -30.328125 C 12.148438 -30.328125 13.296875 -29.992188 14.109375 -29.328125 C 14.921875 -28.660156 15.46875 -27.71875 15.75 -26.5 C 16.03125 -25.289062 16.171875 -23.742188 16.171875 -21.859375 C 16.171875 -20.140625 15.945312 -18.796875 15.5 -17.828125 C 15.050781 -16.867188 14.273438 -16.195312 13.171875 -15.8125 C 14.085938 -15.625 14.75 -15.164062 15.15625 -14.4375 C 15.570312 -13.707031 15.78125 -12.71875 15.78125 -11.46875 L 15.71875 0 L 9.78125 0 L 9.78125 -11.859375 C 9.78125 -12.710938 9.613281 -13.253906 9.28125 -13.484375 C 8.957031 -13.722656 8.359375 -13.84375 7.484375 -13.84375 L 7.484375 0 L 1.34375 0 Z M 8.96875 -19.109375 C 9.8125 -19.109375 10.234375 -20.023438 10.234375 -21.859375 C 10.234375 -22.660156 10.195312 -23.257812 10.125 -23.65625 C 10.0625 -24.0625 9.9375 -24.335938 9.75 -24.484375 C 9.5625 -24.640625 9.289062 -24.71875 8.9375 -24.71875 L 7.515625 -24.71875 L 7.515625 -19.109375 Z M 8.96875 -19.109375 "/></g></g></g><g fill="#e4383c" fill-opacity="1"><g transform="translate(63.265396, 40.944225)"><g><path d="M 5.015625 0 L 5.015625 -10 L 0.171875 -30.328125 L 6.171875 -30.328125 L 7.875 -20.0625 L 9.5625 -30.328125 L 15.578125 -30.328125 L 10.734375 -10 L 10.734375 0 Z M 5.015625 0 "/></g></g></g><g fill="#e4383c" fill-opacity="1"><g transform="translate(79.015841, 40.944225)"><g><path d="M 3.703125 0 L 0.453125 -30.328125 L 6.390625 -30.328125 L 8.09375 -11.1875 L 9.78125 -30.328125 L 15.4375 -30.328125 L 17.0625 -11.1875 L 18.6875 -30.328125 L 24.6875 -30.328125 L 21.359375 0 L 14.09375 0 L 12.578125 -14.625 L 11.125 0 Z M 3.703125 0 "/></g></g></g><g fill="#e4383c" fill-opacity="1"><g transform="translate(104.160046, 40.944225)"><g><path d="M 1.34375 0 L 1.34375 -30.328125 L 7.375 -30.328125 L 7.375 -19.5 L 10.234375 -19.5 L 10.234375 -30.328125 L 16.28125 -30.328125 L 16.28125 0 L 10.234375 0 L 10.234375 -13.765625 L 7.375 -13.765625 L 7.375 0 Z M 1.34375 0 "/></g></g></g><g fill="#e4383c" fill-opacity="1"><g transform="translate(121.782183, 40.944225)"><g><path d="M 1.34375 0 L 1.34375 -30.328125 L 13.484375 -30.328125 L 13.484375 -24.46875 L 7.515625 -24.46875 L 7.515625 -18.578125 L 13.234375 -18.578125 L 13.234375 -12.859375 L 7.515625 -12.859375 L 7.515625 -5.890625 L 13.875 -5.890625 L 13.875 0 Z M 1.34375 0 "/></g></g></g><g fill="#e4383c" fill-opacity="1"><g transform="translate(136.331922, 40.944225)"><g><path d="M 1.34375 -30.328125 L 10.671875 -30.328125 C 12.148438 -30.328125 13.296875 -29.992188 14.109375 -29.328125 C 14.921875 -28.660156 15.46875 -27.71875 15.75 -26.5 C 16.03125 -25.289062 16.171875 -23.742188 16.171875 -21.859375 C 16.171875 -20.140625 15.945312 -18.796875 15.5 -17.828125 C 15.050781 -16.867188 14.273438 -16.195312 13.171875 -15.8125 C 14.085938 -15.625 14.75 -15.164062 15.15625 -14.4375 C 15.570312 -13.707031 15.78125 -12.71875 15.78125 -11.46875 L 15.71875 0 L 9.78125 0 L 9.78125 -11.859375 C 9.78125 -12.710938 9.613281 -13.253906 9.28125 -13.484375 C 8.957031 -13.722656 8.359375 -13.84375 7.484375 -13.84375 L 7.484375 0 L 1.34375 0 Z M 8.96875 -19.109375 C 9.8125 -19.109375 10.234375 -20.023438 10.234375 -21.859375 C 10.234375 -22.660156 10.195312 -23.257812 10.125 -23.65625 C 10.0625 -24.0625 9.9375 -24.335938 9.75 -24.484375 C 9.5625 -24.640625 9.289062 -24.71875 8.9375 -24.71875 L 7.515625 -24.71875 L 7.515625 -19.109375 Z M 8.96875 -19.109375 "/></g></g></g><g clip-path="url(#80b47b0f01)"><g fill="#e4383c" fill-opacity="1"><g transform="translate(153.177129, 40.944225)"><g><path d="M 1.34375 0 L 1.34375 -30.328125 L 13.484375 -30.328125 L 13.484375 -24.46875 L 7.515625 -24.46875 L 7.515625 -18.578125 L 13.234375 -18.578125 L 13.234375 -12.859375 L 7.515625 -12.859375 L 7.515625 -5.890625 L 13.875 -5.890625 L 13.875 0 Z M 1.34375 0 "/></g></g></g></g></g></g></svg>