<svg xmlns="http://www.w3.org/2000/svg" xmlns:xlink="http://www.w3.org/1999/xlink" width="665" zoomAndPan="magnify" viewBox="0 0 498.75 374.999991" height="500" preserveAspectRatio="xMidYMid meet" version="1.0"><defs><clipPath id="9bb8812b9b"><path d="M 199 112.539062 L 226 112.539062 L 226 145 L 199 145 Z M 199 112.539062 " clip-rule="nonzero"/></clipPath><clipPath id="f4fadc403e"><path d="M 162 112.539062 L 189 112.539062 L 189 145 L 162 145 Z M 162 112.539062 " clip-rule="nonzero"/></clipPath><clipPath id="bbaf5ea1cc"><path d="M 192 162 L 198 162 L 198 262.460938 L 192 262.460938 Z M 192 162 " clip-rule="nonzero"/></clipPath><clipPath id="50f24f6bf8"><path d="M 238 128 L 338.769531 128 L 338.769531 134 L 238 134 Z M 238 128 " clip-rule="nonzero"/></clipPath></defs><path fill="#ffffff" d="M 199.476562 137.015625 C 199.476562 129.300781 205.730469 123.042969 213.449219 123.042969 C 221.167969 123.042969 227.421875 129.300781 227.421875 137.015625 C 227.421875 144.734375 221.167969 150.988281 213.449219 150.988281 C 205.730469 150.988281 199.476562 144.734375 199.476562 137.015625 " fill-opacity="1" fill-rule="nonzero"/><g clip-path="url(#9bb8812b9b)"><path fill="#ffffff" d="M 199.492188 137.304688 C 199.492188 137.304688 196.855469 113.539062 225.65625 112.609375 C 225.945312 112.597656 226.03125 113 225.757812 113.09375 C 220.550781 114.914062 205.300781 121.910156 212.460938 139.808594 C 216.820312 150.710938 199.492188 137.304688 199.492188 137.304688 " fill-opacity="1" fill-rule="nonzero"/></g><path fill="#ffffff" d="M 162.21875 137.015625 C 162.21875 129.300781 168.472656 123.042969 176.191406 123.042969 C 183.90625 123.042969 190.164062 129.300781 190.164062 137.015625 C 190.164062 144.734375 183.90625 150.988281 176.191406 150.988281 C 168.472656 150.988281 162.21875 144.734375 162.21875 137.015625 " fill-opacity="1" fill-rule="nonzero"/><g clip-path="url(#f4fadc403e)"><path fill="#ffffff" d="M 162.234375 137.304688 C 162.234375 137.304688 159.597656 113.539062 188.398438 112.609375 C 188.6875 112.597656 188.773438 113 188.5 113.09375 C 183.292969 114.914062 168.042969 121.910156 175.203125 139.808594 C 179.5625 150.710938 162.234375 137.304688 162.234375 137.304688 " fill-opacity="1" fill-rule="nonzero"/></g><g clip-path="url(#bbaf5ea1cc)"><path fill="#ffffff" d="M 197.375 262.398438 L 192.214844 262.398438 L 192.214844 162.410156 L 197.375 162.410156 L 197.375 262.398438 " fill-opacity="1" fill-rule="nonzero"/></g><g clip-path="url(#50f24f6bf8)"><path fill="#ffffff" d="M 338.875 133.777344 L 238.886719 133.777344 L 238.886719 128.621094 L 338.875 128.621094 L 338.875 133.777344 " fill-opacity="1" fill-rule="nonzero"/></g></svg>