<svg xmlns="http://www.w3.org/2000/svg" xmlns:xlink="http://www.w3.org/1999/xlink" width="300" zoomAndPan="magnify" viewBox="0 0 224.87999 233.04" height="300" preserveAspectRatio="xMidYMid meet" version="1.0"><defs><clipPath id="3b778ac1aa"><path d="M 88.101562 87.453125 L 136.652344 87.453125 L 136.652344 136.75 L 88.101562 136.75 Z M 88.101562 87.453125 " clip-rule="nonzero"/></clipPath></defs><g clip-path="url(#3b778ac1aa)"><path fill="#e3301d" d="M 112.433594 99.113281 C 113.183594 99.113281 113.867188 99.417969 114.363281 99.910156 L 114.363281 99.914062 C 114.859375 100.40625 115.164062 101.089844 115.164062 101.839844 C 115.164062 102.589844 114.859375 103.269531 114.363281 103.765625 L 114.363281 103.769531 C 113.867188 104.261719 113.183594 104.566406 112.433594 104.566406 C 111.683594 104.566406 111.003906 104.261719 110.507812 103.765625 L 110.507812 103.769531 C 110.011719 103.273438 109.707031 102.59375 109.707031 101.839844 C 109.707031 101.085938 110.011719 100.402344 110.507812 99.910156 C 111.003906 99.417969 111.683594 99.113281 112.433594 99.113281 Z M 111.820312 94.800781 L 92.582031 106.796875 L 90.636719 106.796875 C 90.300781 106.796875 90.023438 107.074219 90.023438 107.414062 L 90.023438 108.894531 C 90.023438 109.46875 90.257812 109.992188 90.640625 110.371094 L 90.640625 110.375 L 90.644531 110.375 C 91.023438 110.753906 91.546875 110.992188 92.121094 110.992188 L 93.183594 110.992188 L 93.183594 111.660156 C 93.183594 112.179688 93.398438 112.652344 93.742188 112.996094 C 94.085938 113.339844 94.558594 113.554688 95.082031 113.554688 L 95.628906 113.554688 L 95.628906 126.878906 L 95.082031 126.878906 C 94.558594 126.878906 94.085938 127.09375 93.742188 127.4375 C 93.398438 127.777344 93.183594 128.253906 93.183594 128.773438 L 93.183594 129.441406 L 92.121094 129.441406 C 91.542969 129.441406 91.019531 129.679688 90.640625 130.058594 C 90.625 130.070312 90.613281 130.085938 90.601562 130.097656 C 90.246094 130.476562 90.023438 130.984375 90.023438 131.539062 L 90.023438 132.414062 C 89.515625 132.457031 89.054688 132.679688 88.714844 133.023438 C 88.703125 133.035156 88.6875 133.050781 88.675781 133.0625 C 88.320312 133.441406 88.097656 133.949219 88.097656 134.503906 L 88.097656 135.984375 C 88.097656 136.324219 88.375 136.601562 88.714844 136.601562 L 136.15625 136.601562 C 136.496094 136.601562 136.769531 136.324219 136.769531 135.984375 L 136.769531 134.503906 C 136.769531 133.929688 136.535156 133.40625 136.15625 133.023438 C 135.8125 132.679688 135.355469 132.457031 134.847656 132.414062 L 134.847656 131.539062 C 134.847656 130.964844 134.609375 130.441406 134.230469 130.058594 L 134.226562 130.058594 C 133.847656 129.675781 133.324219 129.441406 132.75 129.441406 L 131.6875 129.441406 L 131.6875 128.773438 C 131.6875 128.253906 131.472656 127.777344 131.128906 127.4375 C 130.785156 127.09375 130.3125 126.878906 129.789062 126.878906 L 129.242188 126.878906 L 129.242188 113.554688 L 129.789062 113.554688 C 130.3125 113.554688 130.785156 113.339844 131.128906 112.996094 C 131.472656 112.652344 131.6875 112.179688 131.6875 111.660156 L 131.6875 110.992188 L 132.75 110.992188 C 133.324219 110.992188 133.847656 110.753906 134.230469 110.375 L 134.230469 110.371094 C 134.613281 109.992188 134.847656 109.46875 134.847656 108.894531 L 134.847656 107.414062 C 134.847656 107.074219 134.570312 106.796875 134.234375 106.796875 L 132.289062 106.796875 L 113.050781 94.800781 L 113.050781 92.480469 L 118.242188 92.480469 C 118.578125 92.480469 118.855469 92.207031 118.855469 91.867188 C 118.855469 91.679688 118.769531 91.511719 118.636719 91.398438 L 117.203125 89.972656 L 118.671875 88.515625 C 118.910156 88.277344 118.914062 87.886719 118.675781 87.648438 C 118.554688 87.527344 118.398438 87.46875 118.242188 87.46875 L 118.242188 87.464844 L 112.433594 87.464844 C 112.097656 87.464844 111.820312 87.742188 111.820312 88.078125 Z M 113.050781 91.253906 L 113.050781 88.695312 L 116.753906 88.695312 L 115.902344 89.539062 L 115.902344 89.542969 C 115.664062 89.78125 115.664062 90.167969 115.902344 90.40625 L 116.753906 91.253906 Z M 112.433594 95.863281 L 94.898438 106.796875 L 129.972656 106.796875 Z M 92.121094 109.761719 C 91.878906 109.761719 91.664062 109.667969 91.507812 109.511719 L 91.503906 109.507812 C 91.347656 109.351562 91.25 109.132812 91.25 108.894531 L 91.25 108.027344 L 133.617188 108.027344 L 133.617188 108.894531 C 133.617188 109.132812 133.523438 109.351562 133.367188 109.507812 L 133.363281 109.511719 C 133.207031 109.667969 132.988281 109.761719 132.75 109.761719 Z M 121.273438 110.992188 L 121.273438 111.660156 C 121.273438 112.179688 121.488281 112.652344 121.828125 112.996094 C 122.171875 113.339844 122.648438 113.554688 123.167969 113.554688 L 123.71875 113.554688 L 123.71875 126.878906 L 123.167969 126.878906 C 122.648438 126.878906 122.171875 127.09375 121.828125 127.4375 C 121.488281 127.777344 121.273438 128.253906 121.273438 128.773438 L 121.273438 129.441406 L 117.640625 129.441406 L 117.640625 128.773438 C 117.640625 128.253906 117.429688 127.777344 117.085938 127.4375 C 116.742188 127.09375 116.269531 126.878906 115.746094 126.878906 L 115.195312 126.878906 L 115.195312 113.554688 L 115.746094 113.554688 C 116.269531 113.554688 116.742188 113.339844 117.085938 112.996094 C 117.429688 112.652344 117.640625 112.179688 117.640625 111.660156 L 117.640625 110.992188 Z M 107.230469 110.992188 L 107.230469 111.660156 C 107.230469 112.179688 107.441406 112.652344 107.785156 112.996094 C 108.128906 113.339844 108.601562 113.554688 109.125 113.554688 L 109.675781 113.554688 L 109.675781 126.878906 L 109.125 126.878906 C 108.601562 126.878906 108.128906 127.09375 107.785156 127.4375 C 107.441406 127.777344 107.230469 128.253906 107.230469 128.773438 L 107.230469 129.441406 L 103.597656 129.441406 L 103.597656 128.773438 C 103.597656 128.253906 103.382812 127.777344 103.039062 127.4375 C 102.699219 127.09375 102.222656 126.878906 101.703125 126.878906 L 101.152344 126.878906 L 101.152344 113.554688 L 101.703125 113.554688 C 102.222656 113.554688 102.699219 113.339844 103.039062 112.996094 C 103.382812 112.652344 103.597656 112.179688 103.597656 111.660156 L 103.597656 110.992188 Z M 99.925781 126.878906 L 96.859375 126.878906 L 96.859375 113.554688 L 99.925781 113.554688 Z M 95.082031 112.324219 C 94.898438 112.324219 94.730469 112.25 94.609375 112.128906 C 94.488281 112.007812 94.414062 111.839844 94.414062 111.660156 L 94.414062 110.992188 L 102.371094 110.992188 L 102.371094 111.660156 C 102.371094 111.839844 102.292969 112.007812 102.171875 112.128906 C 102.050781 112.25 101.886719 112.324219 101.703125 112.324219 Z M 101.703125 128.109375 C 101.886719 128.109375 102.050781 128.183594 102.171875 128.304688 C 102.292969 128.425781 102.371094 128.59375 102.371094 128.773438 L 102.371094 129.441406 L 94.414062 129.441406 L 94.414062 128.773438 C 94.414062 128.59375 94.488281 128.425781 94.609375 128.304688 C 94.730469 128.183594 94.898438 128.109375 95.082031 128.109375 Z M 128.011719 126.878906 L 124.945312 126.878906 L 124.945312 113.554688 L 128.011719 113.554688 Z M 123.167969 112.324219 C 122.984375 112.324219 122.820312 112.25 122.699219 112.128906 C 122.578125 112.007812 122.5 111.839844 122.5 111.660156 L 122.5 110.992188 L 130.457031 110.992188 L 130.457031 111.660156 C 130.457031 111.839844 130.382812 112.007812 130.261719 112.128906 C 130.140625 112.25 129.972656 112.324219 129.789062 112.324219 Z M 129.789062 128.109375 C 129.972656 128.109375 130.140625 128.183594 130.261719 128.304688 C 130.382812 128.425781 130.457031 128.59375 130.457031 128.773438 L 130.457031 129.441406 L 122.5 129.441406 L 122.5 128.773438 C 122.5 128.59375 122.578125 128.425781 122.699219 128.304688 C 122.820312 128.183594 122.984375 128.109375 123.167969 128.109375 Z M 113.96875 126.878906 L 110.902344 126.878906 L 110.902344 113.554688 L 113.96875 113.554688 Z M 109.125 112.324219 C 108.941406 112.324219 108.773438 112.25 108.652344 112.128906 C 108.53125 112.007812 108.457031 111.839844 108.457031 111.660156 L 108.457031 110.992188 L 116.414062 110.992188 L 116.414062 111.660156 C 116.414062 111.839844 116.339844 112.007812 116.21875 112.128906 C 116.097656 112.25 115.929688 112.324219 115.746094 112.324219 Z M 115.746094 128.109375 C 115.929688 128.109375 116.097656 128.183594 116.21875 128.304688 C 116.339844 128.425781 116.414062 128.59375 116.414062 128.773438 L 116.414062 129.441406 L 108.457031 129.441406 L 108.457031 128.773438 C 108.457031 128.59375 108.53125 128.425781 108.652344 128.304688 C 108.773438 128.183594 108.941406 128.109375 109.125 128.109375 Z M 91.25 132.40625 L 91.25 131.539062 C 91.25 131.3125 91.339844 131.105469 91.480469 130.949219 L 91.507812 130.925781 C 91.664062 130.769531 91.882812 130.671875 92.121094 130.671875 L 132.75 130.671875 C 132.988281 130.671875 133.207031 130.765625 133.363281 130.921875 L 133.367188 130.925781 C 133.523438 131.082031 133.617188 131.300781 133.617188 131.539062 L 133.617188 132.40625 Z M 89.328125 135.371094 L 89.328125 134.503906 C 89.328125 134.277344 89.414062 134.070312 89.554688 133.914062 L 89.582031 133.890625 C 89.738281 133.734375 89.957031 133.636719 90.195312 133.636719 L 134.675781 133.636719 C 134.914062 133.636719 135.128906 133.734375 135.289062 133.890625 C 135.445312 134.046875 135.542969 134.265625 135.542969 134.503906 L 135.542969 135.371094 Z M 113.496094 100.777344 C 113.226562 100.507812 112.851562 100.339844 112.433594 100.339844 C 112.019531 100.339844 111.644531 100.507812 111.375 100.777344 C 111.101562 101.050781 110.933594 101.425781 110.933594 101.839844 C 110.933594 102.253906 111.101562 102.628906 111.375 102.902344 C 111.644531 103.171875 112.019531 103.339844 112.433594 103.339844 C 112.851562 103.339844 113.226562 103.171875 113.496094 102.902344 L 113.5 102.902344 C 113.769531 102.628906 113.9375 102.253906 113.9375 101.839844 C 113.9375 101.421875 113.769531 101.046875 113.5 100.777344 Z M 113.496094 100.777344 " fill-opacity="1" fill-rule="evenodd"/></g></svg>