<svg xmlns="http://www.w3.org/2000/svg" xmlns:xlink="http://www.w3.org/1999/xlink" width="300" zoomAndPan="magnify" viewBox="0 0 224.87999 233.04" height="300" preserveAspectRatio="xMidYMid meet" version="1.0"><defs><clipPath id="a7678149e6"><path d="M 90.867188 102 L 134 102 L 134 151.128906 L 90.867188 151.128906 Z M 90.867188 102 " clip-rule="nonzero"/></clipPath></defs><g clip-path="url(#a7678149e6)"><path fill="#e3301d" d="M 124.378906 129.101562 C 125.324219 129.101562 126.140625 129.675781 126.496094 130.492188 C 126.792969 131.167969 127.199219 131.46875 127.949219 131.148438 C 128.792969 130.789062 129.808594 130.949219 130.496094 131.636719 C 131.164062 132.304688 131.335938 133.289062 131.007812 134.117188 C 130.742188 134.804688 130.820312 135.304688 131.574219 135.605469 C 132.429688 135.945312 133.03125 136.78125 133.03125 137.753906 C 133.03125 138.722656 132.429688 139.558594 131.574219 139.898438 C 130.820312 140.199219 130.742188 140.699219 131.007812 141.386719 C 131.335938 142.214844 131.164062 143.203125 130.496094 143.871094 C 129.808594 144.554688 128.792969 144.71875 127.949219 144.355469 C 127.199219 144.039062 126.792969 144.335938 126.496094 145.011719 C 126.140625 145.828125 125.324219 146.402344 124.378906 146.402344 C 123.433594 146.402344 122.617188 145.828125 122.257812 145.011719 C 121.964844 144.335938 121.554688 144.039062 120.808594 144.355469 C 119.964844 144.71875 118.945312 144.554688 118.261719 143.871094 C 117.59375 143.203125 117.421875 142.214844 117.746094 141.386719 C 118.015625 140.703125 117.9375 140.199219 117.183594 139.898438 C 116.328125 139.558594 115.726562 138.722656 115.726562 137.753906 C 115.726562 136.78125 116.328125 135.945312 117.183594 135.605469 C 117.9375 135.304688 118.015625 134.804688 117.746094 134.117188 C 117.421875 133.289062 117.59375 132.304688 118.261719 131.636719 C 118.945312 130.949219 119.964844 130.789062 120.808594 131.148438 C 121.554688 131.46875 121.964844 131.167969 122.257812 130.492188 C 122.617188 129.675781 123.433594 129.101562 124.378906 129.101562 Z M 112.535156 142.570312 L 116.398438 142.570312 C 116.347656 142.035156 116.417969 141.484375 116.621094 140.964844 C 115.351562 140.40625 114.523438 139.148438 114.523438 137.753906 C 114.523438 136.355469 115.351562 135.097656 116.621094 134.539062 C 116.261719 133.605469 116.320312 132.578125 116.746094 131.707031 C 115.820312 131.449219 114.804688 131.1875 113.710938 130.929688 Z M 113.871094 110.695312 C 113.921875 111.917969 114.164062 112.929688 114.601562 113.730469 C 114.949219 114.371094 115.425781 114.882812 116.035156 115.261719 C 116.453125 113.660156 116.664062 112.261719 116.667969 111.074219 C 116.667969 110.175781 116.550781 109.398438 116.316406 108.738281 C 115.59375 109.535156 114.78125 110.1875 113.871094 110.695312 Z M 116.441406 119.972656 C 117.511719 119.816406 118.132812 119.351562 118.414062 118.808594 C 118.589844 118.464844 118.632812 118.089844 118.570312 117.746094 C 118.507812 117.414062 118.351562 117.121094 118.117188 116.925781 C 117.847656 116.703125 117.457031 116.613281 116.980469 116.765625 C 116.894531 117.910156 116.714844 118.976562 116.441406 119.972656 Z M 115.796875 116.503906 C 115.425781 122.089844 112.660156 125.742188 107.5 127.460938 C 107.46875 127.472656 107.433594 127.480469 107.394531 127.480469 C 107.359375 127.480469 107.324219 127.472656 107.289062 127.460938 C 104.652344 126.582031 102.644531 125.210938 101.265625 123.34375 C 99.933594 121.539062 99.175781 119.261719 98.996094 116.503906 C 99.859375 116.058594 100.546875 115.429688 101.058594 114.621094 C 101.628906 113.714844 101.972656 112.589844 102.085938 111.25 C 102.089844 111.214844 102.097656 111.1875 102.113281 111.164062 L 102.113281 111.160156 C 102.128906 111.136719 102.15625 111.109375 102.195312 111.085938 C 102.238281 111.058594 102.277344 111.042969 102.320312 111.035156 C 102.363281 111.03125 102.414062 111.035156 102.464844 111.050781 C 106.558594 112.253906 109.96875 112.320312 112.695312 111.25 L 112.707031 111.246094 C 112.804688 112.4375 113.085938 113.457031 113.546875 114.304688 C 114.074219 115.269531 114.820312 116.003906 115.796875 116.503906 Z M 110.765625 127.328125 C 109.894531 127.824219 108.933594 128.25 107.882812 128.597656 C 107.714844 128.65625 107.554688 128.683594 107.394531 128.683594 C 107.234375 128.683594 107.074219 128.65625 106.910156 128.597656 C 105.859375 128.25 104.898438 127.824219 104.023438 127.324219 L 103.988281 127.617188 L 103.992188 127.621094 C 103.949219 127.9375 103.917969 128.195312 103.769531 129.355469 C 103.757812 129.433594 103.742188 129.511719 103.71875 129.585938 C 103.75 129.609375 103.785156 129.632812 103.816406 129.65625 L 107.191406 132.339844 C 107.265625 132.398438 107.335938 132.464844 107.394531 132.535156 C 107.457031 132.464844 107.523438 132.398438 107.601562 132.339844 L 110.976562 129.65625 C 111.007812 129.632812 111.039062 129.609375 111.070312 129.585938 C 111.050781 129.511719 111.03125 129.433594 111.023438 129.355469 Z M 98.351562 119.972656 C 98.078125 118.976562 97.898438 117.910156 97.8125 116.765625 C 97.335938 116.613281 96.945312 116.703125 96.675781 116.925781 C 96.441406 117.121094 96.28125 117.414062 96.21875 117.746094 C 96.15625 118.089844 96.203125 118.464844 96.378906 118.808594 C 96.660156 119.351562 97.28125 119.816406 98.351562 119.972656 Z M 98.144531 110.488281 C 98.226562 109.109375 98.625 108.046875 99.335938 107.304688 C 99.4375 107.203125 99.515625 107.089844 99.578125 106.96875 L 99.582031 106.96875 C 99.644531 106.84375 99.6875 106.714844 99.710938 106.574219 L 99.710938 106.570312 C 100.53125 101.867188 105.316406 102.628906 110.101562 103.390625 C 112.667969 103.800781 115.234375 104.210938 117.335938 103.855469 L 117.339844 103.855469 C 117.398438 103.84375 117.457031 103.847656 117.503906 103.863281 C 117.546875 103.878906 117.589844 103.90625 117.625 103.945312 C 117.65625 103.976562 117.671875 104.011719 117.679688 104.042969 C 117.683594 104.074219 117.679688 104.109375 117.667969 104.144531 C 116.496094 107.179688 114.691406 109.175781 112.257812 110.132812 C 109.785156 111.101562 106.632812 111.023438 102.804688 109.898438 C 102.589844 109.835938 102.371094 109.816406 102.160156 109.847656 C 101.949219 109.875 101.742188 109.949219 101.554688 110.070312 L 101.550781 110.070312 C 101.363281 110.191406 101.207031 110.347656 101.09375 110.53125 L 101.09375 110.527344 C 100.976562 110.714844 100.90625 110.925781 100.886719 111.152344 C 100.792969 112.300781 100.511719 113.242188 100.042969 113.980469 C 99.714844 114.507812 99.285156 114.933594 98.757812 115.261719 C 98.269531 113.394531 98.0625 111.800781 98.144531 110.488281 Z M 101.082031 130.929688 C 99.472656 131.3125 98.039062 131.691406 96.789062 132.074219 C 95.171875 132.566406 93.851562 133.058594 92.839844 133.550781 C 92.320312 133.8125 91.910156 134.171875 91.617188 134.628906 C 91.316406 135.101562 91.128906 135.6875 91.054688 136.382812 C 90.964844 137.371094 90.90625 138.363281 90.878906 139.359375 C 90.851562 140.355469 90.851562 141.351562 90.882812 142.351562 C 90.882812 142.402344 90.910156 142.453125 90.953125 142.492188 C 91.007812 142.542969 91.082031 142.570312 91.167969 142.570312 L 102.257812 142.570312 Z M 103.460938 142.570312 L 104.808594 142.570312 C 104.777344 142.375 104.789062 142.175781 104.84375 141.976562 L 105.796875 138.507812 C 105.804688 138.480469 105.804688 138.457031 105.804688 138.4375 C 105.800781 138.414062 105.792969 138.390625 105.78125 138.367188 L 105.273438 137.417969 C 105.214844 137.457031 105.15625 137.492188 105.097656 137.523438 C 104.871094 137.632812 104.617188 137.6875 104.347656 137.679688 C 104.082031 137.667969 103.832031 137.59375 103.617188 137.460938 C 103.398438 137.328125 103.214844 137.136719 103.089844 136.902344 L 102.84375 136.4375 Z M 109.980469 142.570312 L 111.328125 142.570312 L 111.949219 136.4375 L 111.699219 136.902344 L 111.703125 136.902344 C 111.578125 137.136719 111.394531 137.328125 111.175781 137.460938 C 110.960938 137.59375 110.710938 137.667969 110.441406 137.679688 C 110.171875 137.691406 109.917969 137.636719 109.695312 137.523438 C 109.632812 137.492188 109.574219 137.457031 109.519531 137.417969 L 109.011719 138.367188 C 109 138.390625 108.992188 138.414062 108.988281 138.433594 L 108.988281 138.4375 C 108.988281 138.460938 108.988281 138.484375 108.996094 138.507812 L 109.949219 141.976562 C 110.003906 142.175781 110.011719 142.375 109.980469 142.570312 Z M 102.527344 133.296875 L 102.257812 130.65625 L 102.792969 130.539062 L 102.796875 130.539062 C 102.851562 130.527344 102.902344 130.523438 102.945312 130.535156 C 102.988281 130.542969 103.027344 130.566406 103.066406 130.597656 L 106.445312 133.277344 C 106.492188 133.316406 106.519531 133.363281 106.527344 133.410156 C 106.535156 133.453125 106.527344 133.5 106.496094 133.546875 L 106.171875 134.046875 C 106.160156 134.0625 106.148438 134.078125 106.136719 134.09375 L 106.136719 134.097656 L 105.136719 135.632812 L 105.128906 135.644531 L 104.664062 136.355469 C 104.636719 136.394531 104.601562 136.429688 104.5625 136.449219 C 104.515625 136.472656 104.457031 136.484375 104.398438 136.480469 C 104.335938 136.476562 104.28125 136.464844 104.238281 136.4375 C 104.203125 136.414062 104.171875 136.382812 104.148438 136.339844 Z M 109.65625 135.632812 L 108.652344 134.097656 L 108.292969 133.546875 C 108.265625 133.5 108.253906 133.453125 108.261719 133.410156 C 108.269531 133.363281 108.300781 133.316406 108.347656 133.277344 L 111.722656 130.597656 C 111.765625 130.566406 111.804688 130.542969 111.84375 130.535156 C 111.890625 130.523438 111.941406 130.527344 111.996094 130.539062 L 112 130.539062 L 112.53125 130.65625 L 112.265625 133.296875 L 110.644531 136.339844 L 110.640625 136.339844 C 110.617188 136.382812 110.585938 136.414062 110.550781 136.4375 C 110.507812 136.460938 110.457031 136.476562 110.394531 136.480469 C 110.335938 136.480469 110.277344 136.472656 110.230469 136.449219 C 110.191406 136.425781 110.15625 136.394531 110.128906 136.355469 L 109.6875 135.683594 C 109.679688 135.664062 109.667969 135.648438 109.65625 135.632812 Z M 106.128906 136.484375 L 106.835938 137.804688 C 106.921875 137.964844 106.976562 138.132812 106.996094 138.300781 L 106.996094 138.304688 C 107.015625 138.472656 107 138.644531 106.953125 138.820312 L 106 142.292969 C 105.988281 142.328125 105.988281 142.359375 105.992188 142.382812 L 105.996094 142.382812 C 106 142.410156 106.015625 142.4375 106.042969 142.46875 C 106.070312 142.503906 106.101562 142.53125 106.136719 142.546875 C 106.171875 142.5625 106.21875 142.570312 106.269531 142.570312 L 108.519531 142.570312 C 108.574219 142.570312 108.617188 142.5625 108.652344 142.546875 L 108.65625 142.546875 C 108.6875 142.53125 108.71875 142.503906 108.75 142.46875 C 108.777344 142.4375 108.792969 142.40625 108.796875 142.382812 C 108.800781 142.359375 108.800781 142.328125 108.792969 142.292969 L 107.839844 138.820312 C 107.789062 138.644531 107.773438 138.472656 107.792969 138.300781 C 107.8125 138.128906 107.867188 137.964844 107.953125 137.804688 L 108.660156 136.484375 C 108.679688 136.449219 108.6875 136.414062 108.6875 136.386719 C 108.683594 136.355469 108.671875 136.324219 108.648438 136.289062 L 107.644531 134.75 L 107.644531 134.746094 C 107.621094 134.710938 107.585938 134.683594 107.546875 134.660156 L 107.550781 134.660156 C 107.507812 134.640625 107.457031 134.628906 107.394531 134.628906 C 107.332031 134.628906 107.28125 134.640625 107.242188 134.660156 L 107.238281 134.660156 C 107.203125 134.679688 107.171875 134.710938 107.144531 134.753906 L 107.140625 134.753906 L 106.140625 136.289062 L 106.136719 136.289062 C 106.117188 136.324219 106.105469 136.355469 106.101562 136.386719 C 106.105469 136.414062 106.113281 136.449219 106.128906 136.484375 Z M 122.039062 146.710938 C 121.671875 146.382812 121.371094 145.976562 121.164062 145.511719 C 119.875 146.007812 118.398438 145.707031 117.410156 144.71875 C 117.273438 144.582031 117.148438 144.433594 117.039062 144.277344 L 114.863281 148.042969 C 114.785156 148.179688 114.789062 148.339844 114.875 148.476562 C 114.957031 148.609375 115.101562 148.679688 115.261719 148.667969 L 117.542969 148.476562 C 117.71875 148.460938 117.878906 148.550781 117.957031 148.714844 L 118.929688 150.785156 C 118.996094 150.929688 119.128906 151.019531 119.289062 151.023438 C 119.449219 151.03125 119.589844 150.953125 119.667969 150.816406 Z M 131.71875 144.277344 C 131.609375 144.433594 131.484375 144.582031 131.347656 144.71875 C 130.359375 145.707031 128.882812 146.007812 127.59375 145.511719 C 127.386719 145.976562 127.085938 146.382812 126.71875 146.710938 L 129.089844 150.816406 C 129.167969 150.953125 129.308594 151.03125 129.46875 151.023438 C 129.625 151.019531 129.761719 150.929688 129.828125 150.785156 L 130.800781 148.710938 C 130.878906 148.550781 131.039062 148.460938 131.214844 148.472656 L 133.496094 148.667969 C 133.65625 148.679688 133.796875 148.609375 133.882812 148.476562 C 133.96875 148.339844 133.972656 148.179688 133.894531 148.042969 Z M 121.476562 138.089844 L 122.972656 139.933594 C 123.253906 140.28125 123.75 140.316406 124.097656 140.050781 C 124.152344 140.011719 124.199219 139.964844 124.238281 139.917969 L 126.84375 136.710938 C 127.121094 136.371094 127.066406 135.859375 126.726562 135.582031 C 126.382812 135.304688 125.871094 135.355469 125.59375 135.699219 L 123.65625 138.089844 C 123.640625 138.105469 123.625 138.113281 123.601562 138.113281 C 123.574219 138.113281 123.558594 138.105469 123.542969 138.089844 L 122.726562 137.078125 C 122.445312 136.738281 121.9375 136.683594 121.59375 136.960938 C 121.253906 137.238281 121.199219 137.75 121.476562 138.089844 Z M 124.378906 131.898438 C 122.761719 131.898438 121.296875 132.554688 120.238281 133.613281 C 119.179688 134.671875 118.523438 136.136719 118.523438 137.753906 C 118.523438 139.367188 119.179688 140.832031 120.238281 141.890625 C 121.296875 142.953125 122.761719 143.605469 124.378906 143.605469 C 125.996094 143.605469 127.457031 142.953125 128.519531 141.890625 C 129.578125 140.832031 130.234375 139.367188 130.234375 137.753906 C 130.234375 136.136719 129.578125 134.671875 128.519531 133.613281 C 127.457031 132.554688 125.996094 131.898438 124.378906 131.898438 Z M 127.667969 134.464844 C 126.824219 133.621094 125.664062 133.101562 124.378906 133.101562 C 123.09375 133.101562 121.929688 133.621094 121.089844 134.464844 C 120.246094 135.304688 119.726562 136.46875 119.726562 137.753906 C 119.726562 139.035156 120.246094 140.199219 121.089844 141.042969 C 121.929688 141.882812 123.09375 142.402344 124.378906 142.402344 C 125.664062 142.402344 126.824219 141.882812 127.667969 141.042969 C 128.507812 140.199219 129.03125 139.035156 129.03125 137.753906 C 129.03125 136.46875 128.507812 135.304688 127.667969 134.464844 Z M 127.667969 134.464844 " fill-opacity="1" fill-rule="evenodd"/></g></svg>