<svg xmlns="http://www.w3.org/2000/svg" xmlns:xlink="http://www.w3.org/1999/xlink" width="300" zoomAndPan="magnify" viewBox="0 0 224.87999 225" height="300" preserveAspectRatio="xMidYMid meet" version="1.0"><path fill="#000000" d="M 152.855469 102.507812 C 149.898438 92.730469 142.660156 83.035156 133.996094 77.617188 C 122.523438 70.726562 104.175781 67.523438 93.761719 77.808594 C 117.191406 68.21875 140.621094 77.429688 150.140625 101.230469 C 154.265625 113.675781 151.164062 130.742188 143.003906 140.945312 C 137.453125 147.507812 129.59375 152.28125 120.960938 153.066406 C 107.980469 155.546875 96.109375 152.457031 85.480469 144.699219 C 75.765625 137.605469 71.132812 125.058594 72.253906 113.246094 C 72.660156 106.300781 74.132812 99.273438 77.613281 93.195312 C 79.765625 89.40625 82.535156 85.917969 85.832031 83.078125 C 88.070312 80.972656 91.484375 79.402344 93.21875 76.925781 C 89.453125 78.246094 85.566406 79.539062 82.769531 82.628906 C 73.089844 92.15625 69.597656 106.480469 70.226562 119.746094 C 71.070312 130.710938 76.582031 141.648438 85.90625 147.707031 C 97.820312 155.816406 110.605469 157.472656 124.546875 154.992188 C 128.816406 154.339844 132.835938 152.53125 136.421875 150.164062 C 144.660156 144.828125 150.476562 136.164062 152.558594 126.585938 C 154.359375 118.710938 155.042969 110.410156 152.855469 102.507812 Z M 152.855469 102.507812 " fill-opacity="1" fill-rule="nonzero"/><path fill="#000000" d="M 107.507812 114.441406 C 107.328125 114.964844 106.828125 115.5 107.261719 116.058594 C 106.90625 117.269531 108.925781 118.097656 109.5625 119.039062 C 109.621094 119.542969 110.105469 119.988281 110.609375 120.003906 C 115.335938 123.996094 120.34375 127.605469 125.335938 131.257812 C 126.929688 132.421875 128.519531 133.589844 130.125 134.738281 C 130.980469 135.113281 131.882812 134.730469 132.90625 134.71875 C 132.988281 134.332031 132.785156 134.101562 132.625 133.792969 C 132.539062 133.230469 132.65625 132.230469 132.019531 131.996094 C 131.78125 131.917969 131.605469 131.761719 131.441406 131.609375 C 131.441406 131.609375 129.328125 129.613281 129.328125 129.613281 C 126.90625 126.625 124.285156 123.773438 121.515625 121.074219 C 119.453125 119.136719 118.269531 116.46875 116.179688 114.546875 C 115.964844 110.457031 114.898438 106.480469 114.335938 102.433594 C 114.042969 100.722656 113.753906 99.003906 113.441406 97.292969 C 113.027344 96.496094 112.109375 96.167969 111.460938 95.453125 C 110.910156 95.628906 110.800781 96.089844 110.414062 96.445312 C 109.796875 96.917969 110.242188 97.570312 110.125 98.179688 C 110.125 98.179688 109.769531 101.46875 109.769531 101.46875 C 109.640625 102.695312 109.308594 103.894531 108.703125 104.984375 C 108.320312 105.746094 107.578125 106.789062 108.582031 107.421875 C 108.488281 108.363281 108.285156 109.285156 108.097656 110.210938 C 107.859375 110.613281 107.578125 111.085938 107.871094 111.539062 C 107.753906 112.507812 107.648438 113.476562 107.507812 114.441406 Z M 111.847656 102.878906 C 111.871094 103.019531 111.898438 103.164062 111.925781 103.308594 C 111.816406 103.359375 111.707031 103.417969 111.601562 103.472656 C 111.691406 103.277344 111.773438 103.078125 111.847656 102.878906 Z M 112.4375 105.363281 C 112.515625 105.644531 112.59375 105.925781 112.65625 106.210938 C 112.625 106.246094 112.589844 106.28125 112.554688 106.3125 L 112.164062 106.023438 C 111.824219 106.570312 111.636719 107.238281 111.160156 107.683594 C 111.582031 106.90625 112.007812 106.132812 112.4375 105.363281 Z M 116.835938 119.132812 C 116.707031 119.269531 116.578125 119.410156 116.449219 119.546875 C 116.484375 119.304688 116.523438 119.066406 116.558594 118.828125 C 116.652344 118.929688 116.746094 119.03125 116.835938 119.132812 Z M 113.710938 114.738281 C 113.664062 114.78125 113.621094 114.824219 113.574219 114.867188 C 113.617188 114.785156 113.65625 114.703125 113.699219 114.621094 C 113.703125 114.660156 113.707031 114.699219 113.710938 114.738281 Z M 112.710938 118.457031 C 112.800781 118.371094 112.894531 118.285156 112.980469 118.195312 C 112.949219 118.332031 112.917969 118.46875 112.886719 118.601562 C 112.828125 118.554688 112.769531 118.503906 112.710938 118.457031 Z M 125.757812 128.335938 C 125.78125 128.394531 125.804688 128.449219 125.832031 128.503906 C 125.675781 128.398438 125.519531 128.300781 125.363281 128.203125 C 125.429688 128.167969 125.496094 128.132812 125.566406 128.101562 C 125.628906 128.179688 125.695312 128.257812 125.757812 128.335938 Z M 113.183594 108.847656 C 113.183594 108.859375 113.1875 108.867188 113.1875 108.875 C 112.546875 109.042969 112.082031 109.929688 111.613281 110.355469 C 112.054688 109.574219 112.347656 108.683594 113.042969 108.082031 C 113.09375 108.339844 113.140625 108.59375 113.183594 108.847656 Z M 113.183594 108.847656 " fill-opacity="1" fill-rule="nonzero"/><path fill="#000000" d="M 111.078125 83.09375 C 111.0625 83.714844 111.242188 83.929688 111.289062 84.367188 C 111.261719 84.839844 111.105469 84.941406 111.113281 85.636719 C 111.089844 87.238281 113.605469 87.242188 113.582031 85.636719 C 113.785156 84.78125 113.820312 83.96875 113.546875 83.09375 C 113.636719 82.261719 113.65625 81.4375 113.617188 80.554688 C 113.617188 79.910156 113.59375 79.90625 113.59375 79.285156 C 113.710938 78.6875 113.867188 77.601562 113.609375 77.019531 C 113.707031 75.238281 111.234375 74.917969 111.097656 76.746094 C 111.082031 77.367188 111.25 77.5625 111.292969 78.015625 C 111.261719 78.492188 111.109375 78.667969 111.125 79.28125 C 111.152344 80.691406 111.210938 81.675781 111.078125 83.09375 Z M 111.078125 83.09375 " fill-opacity="1" fill-rule="nonzero"/><path fill="#000000" d="M 136.875 86.460938 C 136.277344 87.15625 135.96875 87.539062 135.367188 88.164062 C 134.835938 88.632812 134.191406 89.289062 133.898438 89.898438 C 133.160156 90.710938 132.230469 91.40625 131.46875 92.285156 C 130.351562 93.671875 132.285156 95.667969 134.039062 93.167969 C 134.816406 92.519531 135.867188 91.578125 136.339844 90.660156 C 137.015625 90.023438 137.820312 89.210938 138.386719 88.5 C 139.859375 87.34375 138.335938 85.183594 136.875 86.460938 Z M 136.875 86.460938 " fill-opacity="1" fill-rule="nonzero"/><path fill="#000000" d="M 141.433594 116.183594 C 142.320312 116.164062 142.875 116.296875 143.839844 116.375 C 145.875 116.347656 147.847656 116.363281 149.859375 116.273438 C 151.457031 116.296875 151.460938 113.773438 149.859375 113.796875 C 148.828125 113.773438 147.847656 113.914062 146.886719 113.886719 C 145.902344 113.859375 144.84375 113.875 143.839844 113.894531 C 143.058594 113.753906 142.3125 113.714844 141.433594 113.707031 C 139.835938 113.6875 139.828125 116.207031 141.433594 116.183594 Z M 141.433594 116.183594 " fill-opacity="1" fill-rule="nonzero"/><path fill="#000000" d="M 113.308594 144.3125 C 114.359375 142.191406 111.324219 140.894531 111 143.433594 C 110.480469 144.855469 111.144531 146.78125 110.980469 148.222656 C 110.757812 148.820312 110.820312 149.660156 110.792969 150.371094 C 110.75 151.972656 113.261719 152.007812 113.257812 150.398438 C 113.265625 149.8125 113.28125 149.8125 113.285156 149.214844 C 113.335938 148.8125 113.496094 148.609375 113.488281 148.03125 C 113.496094 146.679688 113.207031 145.574219 113.308594 144.3125 Z M 113.308594 144.3125 " fill-opacity="1" fill-rule="nonzero"/><path fill="#000000" d="M 85.304688 141.589844 C 86.210938 141.601562 87.011719 140.222656 87.8125 139.652344 C 88.941406 138.675781 90.011719 137.464844 91.035156 136.410156 C 93.511719 134.835938 91.652344 132.691406 90.160156 133.882812 C 89.574219 134.378906 89.046875 134.886719 88.507812 135.464844 C 87.617188 136.46875 86.707031 137.332031 85.726562 138.214844 C 85.3125 138.5625 84.855469 139.0625 84.441406 139.472656 C 83.644531 140.203125 84.246094 141.628906 85.304688 141.589844 Z M 85.304688 141.589844 " fill-opacity="1" fill-rule="nonzero"/><path fill="#000000" d="M 85.074219 114.683594 C 84.921875 112.546875 80.996094 113.292969 79.59375 113.417969 C 79.019531 113.53125 78.820312 113.335938 78.132812 113.351562 C 77.15625 113.429688 76.757812 113.484375 75.847656 113.449219 C 72.84375 112.925781 72.917969 115.753906 74.707031 115.894531 C 75.816406 115.925781 77.054688 115.984375 78.128906 115.828125 C 79.410156 116.070312 81.011719 115.695312 82.234375 115.675781 C 82.796875 115.550781 83.097656 115.949219 83.839844 115.921875 C 84.519531 115.921875 85.074219 115.367188 85.074219 114.683594 Z M 85.074219 114.683594 " fill-opacity="1" fill-rule="nonzero"/><path fill="#000000" d="M 92.613281 92.125 C 91.929688 91.625 91.574219 91.1875 91.054688 90.496094 C 90.570312 90.0625 90.089844 89.746094 89.664062 89.328125 C 89.039062 88.742188 88.605469 87.886719 87.917969 87.3125 C 87.554688 86.964844 87.59375 86.464844 87.097656 86.21875 C 86.421875 85.820312 85.757812 86.082031 85.429688 86.488281 C 84.449219 88.050781 86.378906 88.964844 87.039062 90.039062 C 87.515625 90.902344 88.550781 91.644531 89.296875 92.234375 C 89.648438 92.828125 90.292969 93.503906 90.867188 93.875 C 91.285156 94.289062 91.195312 94.292969 91.625 94.71875 C 92.742188 95.867188 94.519531 94.082031 93.363281 92.964844 C 93.019531 92.609375 93.054688 92.558594 92.613281 92.125 Z M 92.613281 92.125 " fill-opacity="1" fill-rule="nonzero"/><path fill="#000000" d="M 139.527344 140.230469 C 138.125 138.847656 136.863281 137.570312 135.660156 136.007812 C 134.738281 134.183594 132.148438 135.363281 133.386719 137.140625 C 133.761719 137.550781 133.734375 137.601562 134.160156 138.058594 C 135.324219 139.628906 136.882812 141.078125 138.265625 142.433594 C 139.964844 143.808594 141.3125 141.261719 139.527344 140.230469 Z M 139.527344 140.230469 " fill-opacity="1" fill-rule="nonzero"/></svg>