<svg xmlns="http://www.w3.org/2000/svg" xmlns:xlink="http://www.w3.org/1999/xlink" width="300" zoomAndPan="magnify" viewBox="0 0 224.87999 233.04" height="300" preserveAspectRatio="xMidYMid meet" version="1.0"><defs><clipPath id="0ab319345b"><path d="M 88.101562 87.699219 L 136.652344 87.699219 L 136.652344 136.25 L 88.101562 136.25 Z M 88.101562 87.699219 " clip-rule="nonzero"/></clipPath></defs><g clip-path="url(#0ab319345b)"><path fill="#e3301d" d="M 112.433594 87.699219 C 119.152344 87.699219 125.234375 90.425781 129.644531 94.824219 C 134.042969 99.234375 136.769531 105.316406 136.769531 112.035156 C 136.769531 118.75 134.042969 124.832031 129.644531 129.242188 C 125.234375 133.640625 119.152344 136.367188 112.433594 136.367188 C 105.71875 136.367188 99.636719 133.640625 95.226562 129.242188 C 90.828125 124.832031 88.101562 118.75 88.101562 112.035156 C 88.101562 105.316406 90.828125 99.234375 95.226562 94.824219 C 99.636719 90.425781 105.71875 87.699219 112.433594 87.699219 Z M 128.875 95.59375 C 124.671875 91.390625 118.859375 88.78125 112.433594 88.78125 C 106.011719 88.78125 100.199219 91.378906 95.996094 95.59375 C 91.789062 99.800781 89.183594 105.609375 89.183594 112.035156 C 89.183594 118.457031 91.78125 124.269531 95.996094 128.472656 C 100.199219 132.679688 106.011719 135.285156 112.433594 135.285156 C 118.859375 135.285156 124.671875 132.6875 128.875 128.472656 C 133.078125 124.269531 135.6875 118.457031 135.6875 112.035156 C 135.6875 105.609375 133.078125 99.800781 128.875 95.59375 Z M 128.875 95.59375 " fill-opacity="1" fill-rule="nonzero"/></g><path fill="#e3301d" d="M 100.316406 125.535156 C 99.082031 125.535156 98.078125 124.53125 98.078125 123.304688 L 98.078125 115.324219 C 98.078125 115.011719 98.332031 114.769531 98.632812 114.769531 L 101.992188 114.769531 C 102.304688 114.769531 102.546875 115.023438 102.546875 115.324219 L 102.546875 123.296875 C 102.554688 124.542969 101.554688 125.535156 100.316406 125.535156 Z M 99.199219 115.886719 L 99.199219 123.304688 C 99.199219 123.929688 99.703125 124.425781 100.316406 124.425781 L 100.328125 124.425781 C 100.949219 124.425781 101.445312 123.917969 101.445312 123.304688 L 101.445312 115.886719 Z M 99.199219 115.886719 " fill-opacity="1" fill-rule="nonzero"/><path fill="#e3301d" d="M 103.683594 125.535156 C 102.449219 125.535156 101.445312 124.53125 101.445312 123.304688 L 101.445312 115.324219 C 101.445312 115.011719 101.699219 114.769531 102 114.769531 L 105.359375 114.769531 C 105.671875 114.769531 105.914062 115.023438 105.914062 115.324219 L 105.914062 123.296875 C 105.914062 124.542969 104.910156 125.535156 103.683594 125.535156 Z M 102.554688 115.886719 L 102.554688 123.304688 C 102.554688 123.929688 103.0625 124.425781 103.675781 124.425781 L 103.683594 124.425781 C 104.308594 124.425781 104.804688 123.917969 104.804688 123.304688 L 104.804688 115.886719 Z M 102.554688 115.886719 " fill-opacity="1" fill-rule="nonzero"/><path fill="#e3301d" d="M 105.378906 115.886719 L 98.613281 115.886719 C 98.300781 115.886719 98.058594 115.636719 98.058594 115.332031 L 98.058594 111.390625 C 98.058594 110.007812 99.1875 108.878906 100.570312 108.878906 L 103.433594 108.878906 C 104.140625 108.878906 104.8125 109.183594 105.289062 109.699219 L 105.339844 109.757812 C 105.425781 109.851562 105.503906 109.941406 105.59375 110.027344 L 106.59375 111.03125 L 107.324219 110.300781 C 107.96875 109.660156 109.007812 109.660156 109.640625 110.300781 C 110.285156 110.945312 110.285156 111.984375 109.640625 112.617188 L 107.003906 115.246094 C 106.789062 115.460938 106.449219 115.460938 106.226562 115.253906 L 105.933594 114.972656 L 105.933594 115.332031 C 105.933594 115.636719 105.691406 115.886719 105.378906 115.886719 Z M 99.167969 114.769531 L 104.824219 114.769531 L 104.824219 113.667969 C 104.824219 113.359375 105.078125 113.113281 105.378906 113.113281 C 105.523438 113.113281 105.660156 113.171875 105.769531 113.269531 L 106.605469 114.066406 L 108.851562 111.820312 C 109.058594 111.613281 109.058594 111.273438 108.851562 111.070312 C 108.648438 110.867188 108.308594 110.867188 108.105469 111.070312 L 106.976562 112.199219 C 106.761719 112.414062 106.410156 112.414062 106.1875 112.199219 L 104.792969 110.808594 C 104.695312 110.699219 104.601562 110.601562 104.511719 110.496094 L 104.464844 110.4375 C 104.199219 110.144531 103.820312 109.980469 103.433594 109.980469 L 100.570312 109.980469 C 99.800781 109.980469 99.167969 110.601562 99.167969 111.382812 Z M 99.167969 114.769531 " fill-opacity="1" fill-rule="nonzero"/><path fill="#e3301d" d="M 97.523438 115.234375 C 96.617188 115.234375 95.886719 114.507812 95.886719 113.589844 L 95.886719 111.527344 C 95.886719 110.28125 96.902344 109.269531 98.148438 109.269531 L 99.390625 109.269531 C 99.703125 109.269531 99.949219 109.523438 99.949219 109.824219 C 99.949219 110.136719 99.695312 110.378906 99.390625 110.378906 L 98.148438 110.378906 C 97.515625 110.378906 97.007812 110.894531 97.007812 111.527344 L 97.007812 113.589844 C 97.007812 113.882812 97.242188 114.117188 97.535156 114.117188 C 97.824219 114.117188 98.058594 113.882812 98.058594 113.589844 L 98.058594 111.996094 C 98.058594 111.683594 98.3125 111.441406 98.613281 111.441406 C 98.914062 111.441406 99.167969 111.691406 99.167969 111.996094 L 99.167969 113.589844 C 99.167969 114.507812 98.4375 115.234375 97.523438 115.234375 Z M 97.523438 115.234375 " fill-opacity="1" fill-rule="nonzero"/><path fill="#e3301d" d="M 102 108.519531 C 100.53125 108.519531 99.335938 107.332031 99.335938 105.851562 C 99.335938 104.375 100.523438 103.1875 101.992188 103.1875 C 103.460938 103.1875 104.660156 104.375 104.660156 105.84375 C 104.660156 107.324219 103.472656 108.519531 102 108.519531 Z M 102 104.304688 C 101.144531 104.304688 100.453125 104.996094 100.453125 105.851562 C 100.453125 106.710938 101.144531 107.402344 102 107.402344 C 102.859375 107.402344 103.546875 106.710938 103.546875 105.851562 C 103.546875 105.007812 102.859375 104.304688 102 104.304688 Z M 102 104.304688 " fill-opacity="1" fill-rule="nonzero"/><path fill="#e3301d" d="M 126.421875 116.929688 L 105.347656 116.929688 C 105.039062 116.929688 104.792969 116.675781 104.792969 116.375 C 104.792969 116.074219 105.046875 115.820312 105.347656 115.820312 L 126.414062 115.820312 C 127.210938 115.820312 127.863281 115.167969 127.863281 114.371094 L 127.863281 98.824219 C 127.863281 98.027344 127.210938 97.375 126.414062 97.375 L 98.933594 97.375 C 98.136719 97.375 97.484375 98.027344 97.484375 98.824219 L 97.484375 110.339844 C 97.484375 110.652344 97.230469 110.894531 96.929688 110.894531 C 96.617188 110.894531 96.375 110.640625 96.375 110.339844 L 96.375 98.824219 C 96.375 97.414062 97.523438 96.265625 98.933594 96.265625 L 126.414062 96.265625 C 127.824219 96.265625 128.972656 97.414062 128.972656 98.824219 L 128.972656 114.371094 C 128.980469 115.78125 127.832031 116.929688 126.421875 116.929688 Z M 126.421875 116.929688 " fill-opacity="1" fill-rule="nonzero"/><path fill="#e3301d" d="M 109.242188 111.234375 C 108.929688 111.234375 108.6875 110.984375 108.6875 110.679688 C 108.6875 110.535156 108.746094 110.390625 108.851562 110.292969 L 114.1875 104.957031 C 114.402344 104.734375 114.75 104.722656 114.976562 104.9375 C 115.199219 105.152344 115.210938 105.503906 114.996094 105.726562 C 114.984375 105.734375 114.984375 105.734375 114.976562 105.746094 L 109.640625 111.078125 C 109.535156 111.175781 109.398438 111.234375 109.242188 111.234375 Z M 109.242188 111.234375 " fill-opacity="1" fill-rule="nonzero"/><path fill="#e3301d" d="M 115.210938 127.8125 L 108.601562 127.8125 C 108.289062 127.8125 108.046875 127.558594 108.046875 127.257812 L 108.046875 125.679688 C 108.046875 124.511719 109 123.558594 110.167969 123.558594 L 113.640625 123.558594 C 114.808594 123.558594 115.765625 124.511719 115.765625 125.679688 L 115.765625 127.257812 C 115.765625 127.558594 115.519531 127.8125 115.210938 127.8125 Z M 109.164062 126.691406 L 114.65625 126.691406 L 114.65625 125.679688 C 114.65625 125.125 114.207031 124.675781 113.640625 124.667969 L 110.167969 124.667969 C 109.613281 124.667969 109.164062 125.117188 109.15625 125.679688 L 109.15625 126.691406 Z M 109.164062 126.691406 " fill-opacity="1" fill-rule="nonzero"/><path fill="#e3301d" d="M 111.910156 123.160156 C 110.664062 123.160156 109.652344 122.148438 109.652344 120.902344 C 109.652344 119.65625 110.664062 118.644531 111.910156 118.644531 C 113.15625 118.644531 114.167969 119.65625 114.167969 120.902344 C 114.167969 122.148438 113.15625 123.160156 111.910156 123.160156 Z M 111.910156 119.753906 C 111.277344 119.753906 110.761719 120.269531 110.761719 120.902344 C 110.761719 121.535156 111.277344 122.050781 111.910156 122.050781 C 112.542969 122.050781 113.058594 121.535156 113.058594 120.902344 C 113.046875 120.269531 112.542969 119.753906 111.910156 119.753906 Z M 111.910156 119.753906 " fill-opacity="1" fill-rule="nonzero"/><path fill="#e3301d" d="M 121.816406 127.8125 L 115.210938 127.8125 C 114.898438 127.8125 114.65625 127.558594 114.65625 127.257812 L 114.65625 125.679688 C 114.65625 124.511719 115.609375 123.558594 116.777344 123.558594 L 120.25 123.558594 C 121.417969 123.558594 122.371094 124.511719 122.371094 125.679688 L 122.371094 127.257812 C 122.371094 127.558594 122.128906 127.8125 121.816406 127.8125 Z M 115.773438 126.691406 L 121.261719 126.691406 L 121.261719 125.679688 C 121.261719 125.125 120.816406 124.675781 120.25 124.667969 L 116.777344 124.667969 C 116.222656 124.667969 115.773438 125.117188 115.765625 125.679688 L 115.765625 126.691406 Z M 115.773438 126.691406 " fill-opacity="1" fill-rule="nonzero"/><path fill="#e3301d" d="M 118.519531 123.160156 C 117.273438 123.160156 116.261719 122.148438 116.261719 120.902344 C 116.261719 119.65625 117.273438 118.644531 118.519531 118.644531 C 119.765625 118.644531 120.777344 119.65625 120.777344 120.902344 C 120.765625 122.148438 119.765625 123.160156 118.519531 123.160156 Z M 118.519531 119.753906 C 117.886719 119.753906 117.371094 120.269531 117.371094 120.902344 C 117.371094 121.535156 117.886719 122.050781 118.519531 122.050781 C 119.152344 122.050781 119.667969 121.535156 119.667969 120.902344 C 119.65625 120.269531 119.152344 119.753906 118.519531 119.753906 Z M 118.519531 119.753906 " fill-opacity="1" fill-rule="nonzero"/><path fill="#e3301d" d="M 128.425781 127.8125 L 121.816406 127.8125 C 121.507812 127.8125 121.261719 127.558594 121.261719 127.257812 L 121.261719 125.679688 C 121.261719 124.511719 122.21875 123.558594 123.386719 123.558594 L 126.859375 123.558594 C 128.027344 123.558594 128.980469 124.511719 128.980469 125.679688 L 128.980469 127.257812 C 128.980469 127.558594 128.730469 127.8125 128.425781 127.8125 Z M 122.371094 126.691406 L 127.863281 126.691406 L 127.863281 125.679688 C 127.863281 125.125 127.414062 124.675781 126.851562 124.667969 L 123.375 124.667969 C 122.820312 124.667969 122.371094 125.117188 122.363281 125.679688 L 122.363281 126.691406 Z M 122.371094 126.691406 " fill-opacity="1" fill-rule="nonzero"/><path fill="#e3301d" d="M 125.117188 123.160156 C 123.871094 123.160156 122.859375 122.148438 122.859375 120.902344 C 122.859375 119.65625 123.871094 118.644531 125.117188 118.644531 C 126.363281 118.644531 127.375 119.65625 127.375 120.902344 C 127.386719 122.148438 126.375 123.160156 125.117188 123.160156 Z M 125.117188 119.753906 C 124.484375 119.753906 123.96875 120.269531 123.980469 120.902344 C 123.988281 121.535156 124.496094 122.050781 125.128906 122.039062 C 125.761719 122.039062 126.265625 121.523438 126.265625 120.902344 C 126.277344 120.269531 125.761719 119.753906 125.117188 119.753906 C 125.128906 119.753906 125.128906 119.753906 125.117188 119.753906 Z M 125.117188 119.753906 " fill-opacity="1" fill-rule="nonzero"/></svg>