<svg xmlns="http://www.w3.org/2000/svg" xmlns:xlink="http://www.w3.org/1999/xlink" width="300" zoomAndPan="magnify" viewBox="0 0 224.87999 233.04" height="300" preserveAspectRatio="xMidYMid meet" version="1.0"><defs><clipPath id="9dd05e4a89"><path d="M 67.625 67.222656 L 157.253906 67.222656 L 157.253906 156.855469 L 67.625 156.855469 Z M 67.625 67.222656 " clip-rule="nonzero"/></clipPath><clipPath id="c4713bcd3e"><path d="M 0.625 0.222656 L 90.253906 0.222656 L 90.253906 89.855469 L 0.625 89.855469 Z M 0.625 0.222656 " clip-rule="nonzero"/></clipPath><clipPath id="9f3c1e2c2e"><rect x="0" width="91" y="0" height="90"/></clipPath></defs><g clip-path="url(#9dd05e4a89)"><g transform="matrix(1, 0, 0, 1, 67, 67)"><g clip-path="url(#9f3c1e2c2e)"><g clip-path="url(#c4713bcd3e)"><path fill="#e3301d" d="M 56.535156 67.523438 L 34.046875 45.039062 L 56.535156 22.554688 L 52.269531 18.289062 L 25.523438 45.039062 L 52.269531 71.789062 Z M 45.441406 0.222656 C 70.191406 0.222656 90.253906 20.289062 90.253906 45.039062 C 90.253906 69.789062 70.191406 89.855469 45.441406 89.855469 C 20.6875 89.855469 0.625 69.789062 0.625 45.039062 C 0.625 20.289062 20.6875 0.222656 45.441406 0.222656 " fill-opacity="1" fill-rule="nonzero"/></g></g></g></g></svg>