<svg xmlns="http://www.w3.org/2000/svg" xmlns:xlink="http://www.w3.org/1999/xlink" width="665" zoomAndPan="magnify" viewBox="0 0 498.75 374.999991" height="500" preserveAspectRatio="xMidYMid meet" version="1.0"><defs><clipPath id="29eaddfd0c"><path d="M 182.253906 198 L 316.433594 198 L 316.433594 262.460938 L 182.253906 262.460938 Z M 182.253906 198 " clip-rule="nonzero"/></clipPath><clipPath id="c2fc272d59"><path d="M 213 112.539062 L 285 112.539062 L 285 184 L 213 184 Z M 213 112.539062 " clip-rule="nonzero"/></clipPath></defs><g clip-path="url(#29eaddfd0c)"><path fill="#ffffff" d="M 270.296875 198.449219 L 228.203125 198.449219 C 226.699219 198.449219 225.199219 198.523438 223.703125 198.671875 C 222.203125 198.824219 220.71875 199.042969 219.242188 199.339844 C 217.769531 199.632812 216.308594 200 214.871094 200.4375 C 213.429688 200.875 212.015625 201.382812 210.628906 201.957031 C 209.238281 202.535156 207.878906 203.179688 206.550781 203.886719 C 205.226562 204.597656 203.9375 205.371094 202.6875 206.207031 C 201.433594 207.042969 200.230469 207.9375 199.066406 208.894531 C 197.902344 209.847656 196.789062 210.855469 195.726562 211.921875 C 194.660156 212.984375 193.652344 214.097656 192.699219 215.261719 C 191.742188 216.425781 190.847656 217.632812 190.011719 218.882812 C 189.175781 220.132812 188.402344 221.421875 187.691406 222.75 C 186.984375 224.074219 186.339844 225.433594 185.761719 226.824219 C 185.1875 228.210938 184.679688 229.628906 184.242188 231.066406 C 183.804688 232.507812 183.4375 233.964844 183.144531 235.4375 C 182.847656 236.914062 182.625 238.402344 182.476562 239.898438 C 182.328125 241.394531 182.253906 242.894531 182.253906 244.402344 L 182.253906 258.4375 C 182.253906 258.960938 182.351562 259.464844 182.550781 259.945312 C 182.753906 260.429688 183.039062 260.855469 183.40625 261.226562 C 183.777344 261.59375 184.203125 261.878906 184.683594 262.078125 C 185.167969 262.28125 185.671875 262.378906 186.195312 262.378906 L 312.308594 262.378906 C 312.828125 262.378906 313.332031 262.28125 313.816406 262.078125 C 314.296875 261.878906 314.722656 261.59375 315.09375 261.226562 C 315.464844 260.855469 315.746094 260.429688 315.949219 259.945312 C 316.148438 259.464844 316.246094 258.960938 316.246094 258.4375 L 316.246094 244.402344 C 316.246094 242.894531 316.171875 241.394531 316.023438 239.898438 C 315.875 238.402344 315.652344 236.914062 315.355469 235.4375 C 315.0625 233.964844 314.695312 232.507812 314.257812 231.066406 C 313.820312 229.628906 313.3125 228.210938 312.738281 226.824219 C 312.160156 225.433594 311.515625 224.074219 310.808594 222.75 C 310.097656 221.421875 309.324219 220.132812 308.488281 218.882812 C 307.652344 217.632812 306.757812 216.425781 305.800781 215.261719 C 304.847656 214.097656 303.839844 212.984375 302.773438 211.921875 C 301.710938 210.855469 300.597656 209.847656 299.433594 208.894531 C 298.273438 207.9375 297.066406 207.042969 295.8125 206.207031 C 294.5625 205.371094 293.273438 204.597656 291.949219 203.886719 C 290.621094 203.179688 289.261719 202.535156 287.875 201.957031 C 286.484375 201.382812 285.070312 200.875 283.628906 200.4375 C 282.191406 200 280.730469 199.632812 279.257812 199.339844 C 277.78125 199.042969 276.296875 198.824219 274.796875 198.671875 C 273.300781 198.523438 271.800781 198.449219 270.296875 198.449219 Z M 270.296875 198.449219 " fill-opacity="1" fill-rule="nonzero"/></g><g clip-path="url(#c2fc272d59)"><path fill="#ffffff" d="M 284.71875 148.089844 C 284.71875 149.25 284.664062 150.410156 284.546875 151.566406 C 284.433594 152.722656 284.265625 153.871094 284.039062 155.007812 C 283.8125 156.148438 283.53125 157.273438 283.191406 158.386719 C 282.855469 159.496094 282.464844 160.589844 282.019531 161.664062 C 281.574219 162.738281 281.078125 163.785156 280.53125 164.808594 C 279.984375 165.835938 279.386719 166.828125 278.742188 167.796875 C 278.097656 168.761719 277.40625 169.691406 276.667969 170.589844 C 275.929688 171.488281 275.152344 172.347656 274.332031 173.171875 C 273.507812 173.992188 272.648438 174.769531 271.75 175.507812 C 270.855469 176.246094 269.921875 176.9375 268.957031 177.582031 C 267.988281 178.226562 266.996094 178.824219 265.96875 179.371094 C 264.945312 179.917969 263.898438 180.414062 262.824219 180.859375 C 261.75 181.304688 260.65625 181.695312 259.546875 182.03125 C 258.433594 182.367188 257.308594 182.652344 256.167969 182.878906 C 255.03125 183.105469 253.882812 183.273438 252.726562 183.386719 C 251.570312 183.503906 250.410156 183.558594 249.25 183.558594 C 248.089844 183.558594 246.929688 183.503906 245.773438 183.386719 C 244.617188 183.273438 243.46875 183.105469 242.332031 182.878906 C 241.191406 182.652344 240.066406 182.367188 238.953125 182.03125 C 237.84375 181.695312 236.75 181.304688 235.675781 180.859375 C 234.601562 180.414062 233.554688 179.917969 232.53125 179.371094 C 231.503906 178.824219 230.511719 178.226562 229.542969 177.582031 C 228.578125 176.9375 227.648438 176.246094 226.75 175.507812 C 225.851562 174.769531 224.992188 173.992188 224.167969 173.171875 C 223.347656 172.347656 222.570312 171.488281 221.832031 170.589844 C 221.09375 169.691406 220.402344 168.761719 219.757812 167.796875 C 219.113281 166.828125 218.515625 165.835938 217.96875 164.808594 C 217.421875 163.785156 216.925781 162.738281 216.480469 161.664062 C 216.035156 160.589844 215.644531 159.496094 215.308594 158.386719 C 214.972656 157.273438 214.6875 156.148438 214.460938 155.007812 C 214.234375 153.871094 214.066406 152.722656 213.953125 151.566406 C 213.835938 150.410156 213.78125 149.25 213.78125 148.089844 C 213.78125 146.929688 213.835938 145.769531 213.953125 144.613281 C 214.066406 143.457031 214.234375 142.308594 214.460938 141.167969 C 214.6875 140.03125 214.972656 138.90625 215.308594 137.792969 C 215.644531 136.683594 216.035156 135.589844 216.480469 134.515625 C 216.925781 133.441406 217.421875 132.394531 217.96875 131.371094 C 218.515625 130.34375 219.113281 129.351562 219.757812 128.382812 C 220.402344 127.417969 221.09375 126.484375 221.832031 125.589844 C 222.570312 124.691406 223.347656 123.832031 224.167969 123.007812 C 224.992188 122.1875 225.851562 121.410156 226.75 120.671875 C 227.648438 119.933594 228.578125 119.242188 229.542969 118.597656 C 230.511719 117.953125 231.503906 117.355469 232.53125 116.808594 C 233.554688 116.261719 234.601562 115.765625 235.675781 115.320312 C 236.75 114.875 237.84375 114.484375 238.953125 114.148438 C 240.066406 113.808594 241.191406 113.527344 242.332031 113.300781 C 243.46875 113.074219 244.617188 112.90625 245.773438 112.792969 C 246.929688 112.675781 248.089844 112.621094 249.25 112.621094 C 250.410156 112.621094 251.570312 112.675781 252.726562 112.792969 C 253.882812 112.90625 255.03125 113.074219 256.167969 113.300781 C 257.308594 113.527344 258.433594 113.808594 259.546875 114.148438 C 260.65625 114.484375 261.75 114.875 262.824219 115.320312 C 263.898438 115.765625 264.945312 116.261719 265.96875 116.808594 C 266.996094 117.355469 267.988281 117.953125 268.957031 118.597656 C 269.921875 119.242188 270.855469 119.933594 271.75 120.671875 C 272.648438 121.410156 273.507812 122.1875 274.332031 123.007812 C 275.152344 123.832031 275.929688 124.691406 276.667969 125.589844 C 277.40625 126.484375 278.097656 127.417969 278.742188 128.382812 C 279.386719 129.351562 279.984375 130.34375 280.53125 131.371094 C 281.078125 132.394531 281.574219 133.441406 282.019531 134.515625 C 282.464844 135.589844 282.855469 136.683594 283.191406 137.792969 C 283.53125 138.90625 283.8125 140.03125 284.039062 141.167969 C 284.265625 142.308594 284.433594 143.457031 284.546875 144.613281 C 284.664062 145.769531 284.71875 146.929688 284.71875 148.089844 Z M 284.71875 148.089844 " fill-opacity="1" fill-rule="nonzero"/></g></svg>