<svg xmlns="http://www.w3.org/2000/svg" xmlns:xlink="http://www.w3.org/1999/xlink" width="300" zoomAndPan="magnify" viewBox="0 0 224.87999 233.04" height="300" preserveAspectRatio="xMidYMid meet" version="1.0"><defs><clipPath id="4253a317af"><path d="M 98 67.222656 L 144 67.222656 L 144 145 L 98 145 Z M 98 67.222656 " clip-rule="nonzero"/></clipPath><clipPath id="58c786a179"><path d="M 112 67.222656 L 144 67.222656 L 144 119 L 112 119 Z M 112 67.222656 " clip-rule="nonzero"/></clipPath></defs><path fill="#0d62ad" d="M 84.023438 105.050781 C 80.589844 111.132812 79.515625 117.703125 81.289062 124.851562 C 85.457031 141.675781 104.109375 156.855469 120.933594 148.488281 C 130.21875 143.871094 133.890625 132.5625 127.507812 123.804688 C 124.011719 119.003906 118.417969 114.964844 112.296875 111.121094 C 104.425781 106.316406 92.960938 98.648438 94.144531 88.074219 C 89.59375 93.03125 86.5 98.734375 90.101562 105.089844 C 92.863281 109.964844 98.054688 114.433594 104.617188 118.675781 C 107.429688 120.753906 110.160156 122.914062 112.144531 125.792969 C 117.734375 133.902344 111.320312 139.390625 103.117188 138.457031 C 94.984375 137.535156 91.019531 133.554688 89.242188 127.972656 C 92.40625 130.535156 95.679688 132.910156 99.539062 133.921875 C 105.894531 135.589844 107.585938 131.644531 105.757812 127.289062 C 104.792969 124.992188 103.007812 122.820312 100.851562 121.085938 C 94.148438 115.6875 90.015625 112.144531 84.023438 105.050781 " fill-opacity="1" fill-rule="evenodd"/><path fill="#034e8f" d="M 124.59375 146.09375 C 131.070312 140.65625 132.96875 131.296875 127.511719 123.804688 C 124.015625 119.003906 118.421875 114.964844 112.300781 111.121094 C 104.425781 106.316406 92.960938 98.648438 94.144531 88.074219 C 91.453125 95.84375 92.753906 101.113281 98.5 106.652344 C 105.601562 113.492188 115.078125 118.480469 121.472656 125.855469 C 126.066406 131.15625 128.484375 137.527344 124.59375 146.09375 " fill-opacity="1" fill-rule="evenodd"/><path fill="#034e8f" d="M 106.4375 130.734375 C 106.503906 129.691406 106.265625 128.503906 105.753906 127.285156 C 104.789062 124.988281 103.007812 122.8125 100.847656 121.078125 C 94.144531 115.6875 90.011719 112.140625 84.023438 105.050781 C 89.996094 119.9375 101.757812 120.136719 106.4375 130.734375 " fill-opacity="1" fill-rule="evenodd"/><g clip-path="url(#4253a317af)"><path fill="#0098da" d="M 112.40625 67.222656 C 104.757812 73.109375 95.265625 81.199219 99.738281 90.734375 C 103.441406 98.625 115.257812 105.964844 121.980469 111.421875 C 134.070312 121.226562 143.289062 129.074219 131.109375 144.449219 C 141.125 134.933594 145.214844 123.953125 135.574219 112.523438 C 132.910156 109.359375 129.734375 106.410156 126.101562 103.648438 C 119.230469 98.433594 109.304688 92.648438 109.242188 82.898438 C 115.121094 91.96875 120.304688 94.3125 128.277344 100.117188 C 135.675781 105.507812 140.554688 111.742188 143.035156 118.773438 C 142.382812 110.71875 139.3125 103.46875 134.417969 96.828125 C 130.835938 91.972656 126.292969 87.472656 122.015625 82.820312 C 117.207031 77.585938 114.574219 74.308594 112.40625 67.222656 " fill-opacity="1" fill-rule="evenodd"/></g><g clip-path="url(#58c786a179)"><path fill="#007fb5" d="M 141.71875 115.585938 C 142.214844 116.628906 142.652344 117.691406 143.035156 118.773438 C 142.382812 110.71875 139.3125 103.46875 134.417969 96.828125 C 130.835938 91.972656 126.292969 87.472656 122.015625 82.820312 C 117.203125 77.585938 114.574219 74.3125 112.40625 67.226562 C 112.445312 72.320312 113.574219 76.785156 115.933594 81.265625 C 118.78125 86.664062 122.441406 89.382812 127.28125 93.921875 C 129.609375 96.109375 131.789062 98.4375 133.796875 100.933594 C 137.046875 104.976562 140.765625 110.519531 141.71875 115.585938 Z M 141.71875 115.585938 " fill-opacity="1" fill-rule="evenodd"/></g><path fill="#007fb5" d="M 100.234375 79.703125 C 98.429688 83.097656 97.886719 86.792969 99.738281 90.734375 C 103.441406 98.625 115.253906 105.964844 121.980469 111.421875 C 125.433594 114.222656 128.652344 116.867188 131.207031 119.570312 C 123.796875 109.277344 111.613281 103.410156 104.746094 93.648438 C 101.824219 89.496094 100.054688 84.851562 100.234375 79.703125 " fill-opacity="1" fill-rule="evenodd"/></svg>