<svg width="175" height="217" viewBox="0 0 175 217" fill="none" xmlns="http://www.w3.org/2000/svg">
<path fill-rule="evenodd" clip-rule="evenodd" d="M35.6102 99.3762C29.1641 110.779 27.1474 123.097 30.4768 136.499C38.3016 168.042 73.3187 196.502 104.904 180.815C122.335 172.158 129.229 150.956 117.246 134.537C110.683 125.536 100.181 117.963 88.6896 110.757C73.9128 101.749 52.3891 87.3728 54.6111 67.5479C46.0677 76.8415 40.2596 87.5339 47.021 99.4494C52.2058 108.589 61.9519 116.967 74.2721 124.921C79.5522 128.817 84.6782 132.867 88.4036 138.264C98.8978 153.468 86.8563 163.758 71.4561 162.008C56.1878 160.279 48.7444 152.816 45.4077 142.351C51.3478 147.155 57.4932 151.608 64.7386 153.505C76.6701 156.632 79.8455 149.235 76.4135 141.069C74.6021 136.763 71.2507 132.691 67.2027 129.44C54.6185 119.318 46.8597 112.676 35.6102 99.3762Z" fill="#0D62AD"/>
<path fill-rule="evenodd" clip-rule="evenodd" d="M111.775 176.325C123.934 166.131 127.498 148.583 117.253 134.537C110.69 125.536 100.188 117.963 88.697 110.757C73.9128 101.749 52.3891 87.3728 54.6112 67.5479C49.5584 82.1145 52.0005 91.994 62.788 102.379C76.1202 115.202 93.9111 124.555 105.916 138.382C114.54 148.32 119.079 160.265 111.775 176.325Z" fill="#034E8F"/>
<path fill-rule="evenodd" clip-rule="evenodd" d="M77.6895 147.529C77.8141 145.574 77.3668 143.347 76.4061 141.062C74.5948 136.756 71.2507 132.677 67.1953 129.425C54.6111 119.319 46.8524 112.669 35.6102 99.3765C46.823 127.287 68.904 127.66 77.6895 147.529Z" fill="#034E8F"/>
<mask id="mask0_31_64" style="mask-type:luminance" maskUnits="userSpaceOnUse" x="61" y="28" width="88" height="147">
<path d="M61.8493 28.4546H148.208V174.275H61.8493V28.4546Z" fill="white"/>
</mask>
<g mask="url(#mask0_31_64)">
<path fill-rule="evenodd" clip-rule="evenodd" d="M88.895 28.4546C74.5361 39.4912 56.7159 54.6584 65.1126 72.5353C72.0647 87.329 94.2484 101.09 106.869 111.321C129.566 129.703 146.873 144.416 124.007 173.242C142.81 155.402 150.489 134.815 132.39 113.386C127.388 107.454 121.426 101.925 114.606 96.7471C101.707 86.9701 83.0722 76.1239 82.9549 57.8442C93.9917 74.8496 103.723 79.2437 118.691 90.1266C132.58 100.233 141.74 111.922 146.396 125.104C145.172 110.003 139.408 96.4102 130.219 83.9601C123.494 74.8569 114.965 66.4201 106.935 57.6977C97.9078 47.8841 92.965 41.7396 88.895 28.4546Z" fill="#0098DA"/>
</g>
<mask id="mask1_31_64" style="mask-type:luminance" maskUnits="userSpaceOnUse" x="88" y="28" width="61" height="98">
<path d="M88.1323 28.4546H148.208V125.529H88.1323V28.4546Z" fill="white"/>
</mask>
<g mask="url(#mask1_31_64)">
<path fill-rule="evenodd" clip-rule="evenodd" d="M143.925 119.128C144.856 121.083 145.678 123.075 146.396 125.104C145.172 110.003 139.408 96.4102 130.219 83.9601C123.494 74.8569 114.965 66.4201 106.935 57.6977C97.9005 47.8841 92.9651 41.7469 88.895 28.4619C88.9683 38.0119 91.0877 46.3827 95.5171 54.7829C100.863 64.9041 107.735 70.0013 116.821 78.5114C121.191 82.6126 125.284 86.9774 129.053 91.6572C135.154 99.2371 142.136 109.629 143.925 119.128Z" fill="#007FB5"/>
</g>
<path fill-rule="evenodd" clip-rule="evenodd" d="M66.044 51.8535C62.6559 58.2177 61.6366 65.1458 65.1126 72.5353C72.0647 87.329 94.241 101.09 106.869 111.321C113.352 116.572 119.395 121.53 124.191 126.598C110.279 107.3 87.4063 96.3004 74.5141 77.9987C69.0287 70.2138 65.7066 61.506 66.044 51.8535Z" fill="#007FB5"/>
</svg>
