<svg xmlns="http://www.w3.org/2000/svg" xmlns:xlink="http://www.w3.org/1999/xlink" width="300" zoomAndPan="magnify" viewBox="0 0 224.87999 225" height="300" preserveAspectRatio="xMidYMid meet" version="1.0"><defs><clipPath id="ff2bec8de1"><path d="M 146 78.039062 L 157.414062 78.039062 L 157.414062 89 L 146 89 Z M 146 78.039062 " clip-rule="nonzero"/></clipPath><clipPath id="42ab6b9ea3"><path d="M 67.464844 108 L 85 108 L 85 126 L 67.464844 126 Z M 67.464844 108 " clip-rule="nonzero"/></clipPath></defs><path fill="#131516" d="M 90.636719 83.125 L 82.371094 93.691406 L 91.71875 84.507812 L 114.023438 85.066406 L 106.164062 93.882812 L 115.78125 85.109375 L 117.738281 85.160156 L 127.6875 96.613281 L 103.363281 97.316406 L 93.136719 86.320312 L 101.777344 97.363281 L 83.65625 97.890625 L 102.523438 99.007812 L 116.847656 147 L 104.324219 99.117188 L 130.046875 100.644531 L 116.847656 147 L 133.703125 100.859375 L 146.195312 101.601562 L 116.847656 147 L 154.609375 97.890625 L 143.0625 83.125 Z M 119.453125 85.199219 L 139.199219 85.695312 L 132.480469 96.472656 L 131.679688 96.496094 Z M 147.441406 96.039062 L 132.871094 96.460938 L 142.175781 87.59375 L 146.996094 95.324219 Z M 147.441406 96.039062 " fill-opacity="1" fill-rule="evenodd"/><path fill="#131516" d="M 78.429688 99.957031 L 78.9375 105.410156 L 79.441406 99.957031 L 84.890625 99.449219 L 79.441406 98.945312 L 78.9375 93.492188 L 78.429688 98.945312 L 72.980469 99.449219 Z M 78.429688 99.957031 " fill-opacity="1" fill-rule="evenodd"/><g clip-path="url(#ff2bec8de1)"><path fill="#131516" d="M 151.644531 83.757812 L 152.089844 88.582031 L 152.542969 83.757812 L 157.359375 83.308594 L 152.542969 82.859375 L 152.089844 78.039062 L 151.644531 82.859375 L 146.824219 83.308594 Z M 151.644531 83.757812 " fill-opacity="1" fill-rule="evenodd"/></g><g clip-path="url(#42ab6b9ea3)"><path fill="#131516" d="M 76.878906 117.597656 L 84.765625 116.863281 L 76.878906 116.128906 L 76.144531 108.234375 L 75.410156 116.128906 L 67.519531 116.863281 L 75.410156 117.597656 L 76.144531 125.492188 Z M 76.878906 117.597656 " fill-opacity="1" fill-rule="evenodd"/></g><path fill="#131516" d="M 95.28125 129.257812 L 94.25 118.148438 L 93.214844 129.257812 L 82.117188 130.289062 L 93.214844 131.324219 L 94.25 142.429688 L 95.28125 131.324219 L 106.382812 130.289062 Z M 95.28125 129.257812 " fill-opacity="1" fill-rule="evenodd"/></svg>