<svg width="172" height="165" viewBox="0 0 172 165" fill="none" xmlns="http://www.w3.org/2000/svg">
<path fill-rule="evenodd" clip-rule="evenodd" d="M41.888 28.1763L26.9622 47.2304L43.8419 30.6699L84.1191 31.6772L69.9269 47.5756L87.2934 31.7547L90.8273 31.8462L108.793 52.4994L64.8693 53.7673L46.4024 33.9383L62.0055 53.8519L29.2829 54.8028L63.3527 56.8174L89.219 143.361L66.6045 57.0146L113.054 59.7689L89.219 143.361L119.656 60.1563L142.214 61.4947L89.219 143.361L157.408 54.8028L136.557 28.1763H41.888ZM93.9239 31.9167L129.581 32.8113L117.448 52.2458L116.002 52.2881L93.9239 31.9167ZM144.464 51.4639L118.154 52.2247L134.956 36.2347L143.66 50.1749L144.464 51.4639Z" fill="#131516"/>
<path fill-rule="evenodd" clip-rule="evenodd" d="M19.8449 58.529L20.7619 68.3625L21.6719 58.529L31.5119 57.6133L21.6719 56.7046L20.7619 46.8711L19.8449 56.7046L10.0049 57.6133L19.8449 58.529Z" fill="#131516"/>
<mask id="mask0_31_142" style="mask-type:luminance" maskUnits="userSpaceOnUse" x="141" y="19" width="22" height="20">
<path d="M141.862 19.0049H162.473V38.7705H141.862V19.0049Z" fill="white"/>
</mask>
<g mask="url(#mask0_31_142)">
<path fill-rule="evenodd" clip-rule="evenodd" d="M152.054 29.3174L152.859 38.0168L153.677 29.3174L162.374 28.5073L153.677 27.6972L152.859 19.0049L152.054 27.6972L143.35 28.5073L152.054 29.3174Z" fill="#131516"/>
</g>
<mask id="mask1_31_142" style="mask-type:luminance" maskUnits="userSpaceOnUse" x="0" y="73" width="32" height="33">
<path d="M0.0449219 73.0327H31.7095V105.492H0.0449219V73.0327Z" fill="white"/>
</mask>
<g mask="url(#mask1_31_142)">
<path fill-rule="evenodd" clip-rule="evenodd" d="M17.0446 90.3402L31.2862 89.0159L17.0446 87.6916L15.7185 73.4556L14.3924 87.6916L0.143677 89.0159L14.3924 90.3402L15.7185 104.576L17.0446 90.3402Z" fill="#131516"/>
</g>
<path fill-rule="evenodd" clip-rule="evenodd" d="M50.275 111.366L48.4128 91.333L46.5435 111.366L26.5037 113.226L46.5435 115.093L48.4128 135.119L50.275 115.093L70.3219 113.226L50.275 111.366Z" fill="#131516"/>
</svg>
