<svg xmlns="http://www.w3.org/2000/svg" xmlns:xlink="http://www.w3.org/1999/xlink" width="300" zoomAndPan="magnify" viewBox="0 0 224.87999 233.04" height="300" preserveAspectRatio="xMidYMid meet" version="1.0"><defs><clipPath id="f7007ddfbe"><path d="M 80 67.222656 L 151 67.222656 L 151 110 L 80 110 Z M 80 67.222656 " clip-rule="nonzero"/></clipPath><clipPath id="c58a95d985"><path d="M 71.488281 92 L 153.652344 92 L 153.652344 156.855469 L 71.488281 156.855469 Z M 71.488281 92 " clip-rule="nonzero"/></clipPath></defs><path fill="#71b500" d="M 105.296875 124.769531 C 105.296875 124.105469 104.863281 123.65625 104.21875 123.65625 L 98.738281 123.65625 C 98.683594 123.65625 98.648438 123.65625 98.632812 123.640625 C 98.632812 123.640625 98.632812 123.621094 98.632812 123.621094 L 98.632812 120.328125 L 103.390625 120.328125 C 103.984375 120.328125 104.453125 119.863281 104.453125 119.234375 C 104.453125 118.574219 104.019531 118.125 103.390625 118.125 L 98.632812 118.125 L 98.632812 115.421875 C 98.632812 115.386719 98.632812 115.367188 98.632812 115.351562 C 98.648438 115.351562 98.667969 115.351562 98.683594 115.351562 L 104.074219 115.351562 C 104.703125 115.351562 105.152344 114.886719 105.152344 114.222656 C 105.152344 113.558594 104.722656 113.113281 104.074219 113.113281 L 98.289062 113.113281 C 96.925781 113.113281 96.277344 113.792969 96.277344 115.207031 L 96.277344 123.800781 C 96.277344 125.199219 96.941406 125.894531 98.289062 125.894531 L 104.21875 125.894531 C 104.847656 125.894531 105.296875 125.429688 105.296875 124.769531 Z M 105.296875 124.769531 " fill-opacity="1" fill-rule="nonzero"/><path fill="#71b500" d="M 112.285156 126.148438 C 115.515625 126.148438 116.792969 123.945312 117.257812 122.621094 C 117.3125 122.476562 117.332031 122.351562 117.332031 122.207031 C 117.332031 121.652344 116.882812 121.257812 116.46875 121.152344 C 115.769531 120.953125 115.140625 121.242188 114.90625 121.867188 C 114.476562 123.210938 113.59375 123.871094 112.230469 123.871094 C 110.199219 123.871094 108.871094 122.152344 108.871094 119.503906 C 108.871094 116.800781 110.144531 115.117188 112.230469 115.117188 C 113.847656 115.117188 114.421875 115.976562 114.78125 116.855469 C 114.976562 117.265625 115.371094 117.515625 115.839844 117.515625 C 116.039062 117.515625 116.199219 117.480469 116.359375 117.425781 C 116.757812 117.300781 117.152344 116.925781 117.152344 116.390625 C 117.152344 116.226562 117.117188 116.066406 117.0625 115.90625 C 116.488281 114.527344 115.191406 112.878906 112.195312 112.878906 C 108.761719 112.878906 106.464844 115.546875 106.464844 119.503906 C 106.445312 123.53125 108.746094 126.148438 112.285156 126.148438 Z M 112.285156 126.148438 " fill-opacity="1" fill-rule="nonzero"/><path fill="#71b500" d="M 124.371094 126.148438 C 127.894531 126.148438 130.15625 123.550781 130.15625 119.523438 C 130.15625 115.492188 127.894531 112.898438 124.371094 112.898438 C 120.832031 112.898438 118.550781 115.492188 118.550781 119.523438 C 118.570312 123.53125 120.851562 126.148438 124.371094 126.148438 Z M 124.371094 115.101562 C 126.402344 115.101562 127.730469 116.800781 127.730469 119.414062 C 127.730469 122.226562 126.472656 123.890625 124.371094 123.890625 C 122.289062 123.890625 120.996094 122.207031 120.996094 119.503906 C 120.996094 116.800781 122.289062 115.101562 124.371094 115.101562 Z M 124.371094 115.101562 " fill-opacity="1" fill-rule="nonzero"/><path fill="#71b500" d="M 92.847656 130.246094 L 89.039062 130.246094 C 88.175781 130.246094 87.765625 130.675781 87.765625 131.570312 L 87.765625 137.625 C 87.765625 138.054688 88.070312 138.339844 88.519531 138.339844 C 88.96875 138.339844 89.289062 138.054688 89.289062 137.640625 L 89.289062 134.867188 L 92.308594 134.867188 C 92.703125 134.867188 92.992188 134.5625 92.992188 134.167969 C 92.992188 133.738281 92.722656 133.453125 92.308594 133.453125 L 89.289062 133.453125 L 89.289062 131.695312 L 92.847656 131.695312 C 93.261719 131.695312 93.546875 131.394531 93.546875 130.980469 C 93.53125 130.535156 93.242188 130.246094 92.847656 130.246094 Z M 92.847656 130.246094 " fill-opacity="1" fill-rule="nonzero"/><path fill="#71b500" d="M 100.519531 136.800781 C 100.015625 135.527344 99.691406 134.8125 99.332031 134.402344 C 100.070312 134.042969 100.464844 133.363281 100.464844 132.449219 C 100.464844 131.089844 99.53125 130.230469 98.003906 130.230469 L 95.757812 130.230469 C 94.894531 130.230469 94.480469 130.660156 94.480469 131.570312 L 94.480469 137.625 C 94.480469 138.054688 94.789062 138.339844 95.253906 138.339844 C 95.703125 138.339844 96.007812 138.054688 96.007812 137.640625 L 96.007812 134.957031 L 97.464844 134.957031 C 98.164062 134.957031 98.363281 135.332031 99.097656 137.300781 L 99.332031 137.910156 C 99.441406 138.179688 99.691406 138.355469 99.996094 138.355469 C 100.085938 138.355469 100.195312 138.339844 100.285156 138.320312 C 100.609375 138.230469 100.824219 137.964844 100.824219 137.660156 C 100.824219 137.570312 100.804688 137.496094 100.789062 137.410156 Z M 95.992188 131.679688 C 95.992188 131.660156 95.992188 131.660156 95.992188 131.644531 C 95.992188 131.644531 95.992188 131.644531 96.007812 131.644531 L 97.949219 131.644531 C 98.613281 131.644531 98.9375 131.949219 98.9375 132.59375 C 98.9375 133.183594 98.542969 133.558594 97.894531 133.558594 L 95.992188 133.558594 Z M 95.992188 131.679688 " fill-opacity="1" fill-rule="nonzero"/><path fill="#71b500" d="M 102.621094 130.191406 C 102.171875 130.191406 101.863281 130.480469 101.863281 130.890625 L 101.863281 137.660156 C 101.863281 138.070312 102.171875 138.355469 102.621094 138.355469 C 103.070312 138.355469 103.390625 138.070312 103.390625 137.660156 L 103.390625 130.890625 C 103.390625 130.460938 103.070312 130.191406 102.621094 130.191406 Z M 102.621094 130.191406 " fill-opacity="1" fill-rule="nonzero"/><path fill="#71b500" d="M 109.914062 136.851562 L 106.480469 136.851562 C 106.464844 136.851562 106.445312 136.851562 106.425781 136.851562 L 106.425781 134.792969 L 109.390625 134.792969 C 109.785156 134.792969 110.074219 134.488281 110.074219 134.097656 C 110.074219 133.683594 109.785156 133.378906 109.390625 133.378906 L 106.425781 133.378906 L 106.425781 131.714844 C 106.425781 131.695312 106.425781 131.695312 106.425781 131.679688 C 106.425781 131.679688 106.445312 131.679688 106.445312 131.679688 L 109.824219 131.679688 C 110.234375 131.679688 110.503906 131.375 110.503906 130.964844 C 110.503906 130.550781 110.21875 130.246094 109.824219 130.246094 L 106.210938 130.246094 C 105.351562 130.246094 104.9375 130.675781 104.9375 131.589844 L 104.9375 136.960938 C 104.9375 137.839844 105.367188 138.285156 106.210938 138.285156 L 109.914062 138.285156 C 110.308594 138.285156 110.59375 137.980469 110.59375 137.570312 C 110.59375 137.140625 110.308594 136.851562 109.914062 136.851562 Z M 109.914062 136.851562 " fill-opacity="1" fill-rule="nonzero"/><path fill="#71b500" d="M 117.222656 130.191406 C 116.773438 130.191406 116.449219 130.480469 116.449219 130.890625 L 116.449219 133.773438 C 116.449219 134.4375 116.46875 135.082031 116.503906 135.652344 C 116.324219 135.3125 116.128906 134.972656 115.949219 134.6875 L 113.539062 130.785156 C 113.34375 130.480469 113.089844 130.15625 112.464844 130.191406 L 112.210938 129.636719 L 112.265625 130.230469 C 111.851562 130.320312 111.601562 130.640625 111.601562 131.089844 L 111.601562 137.675781 C 111.601562 138.089844 111.90625 138.375 112.375 138.375 C 112.820312 138.375 113.128906 138.089844 113.128906 137.675781 L 113.128906 134.742188 C 113.128906 134.097656 113.109375 133.433594 113.089844 132.859375 C 113.234375 133.128906 113.378906 133.378906 113.523438 133.59375 L 116.054688 137.695312 C 116.308594 138.089844 116.539062 138.375 117.117188 138.375 C 117.132812 138.375 117.152344 138.375 117.167969 138.375 L 117.421875 138.894531 L 117.367188 138.339844 C 117.761719 138.25 118.011719 137.925781 118.011719 137.460938 L 118.011719 130.910156 C 117.976562 130.460938 117.691406 130.191406 117.222656 130.191406 Z M 117.222656 130.191406 " fill-opacity="1" fill-rule="nonzero"/><path fill="#71b500" d="M 122.503906 130.246094 L 120.796875 130.246094 C 119.933594 130.246094 119.523438 130.675781 119.523438 131.589844 L 119.523438 136.960938 C 119.523438 137.839844 119.953125 138.285156 120.796875 138.285156 L 122.503906 138.285156 C 124.765625 138.285156 126.167969 136.710938 126.167969 134.1875 C 126.167969 131.714844 124.804688 130.246094 122.503906 130.246094 Z M 124.625 134.1875 C 124.625 135.867188 123.832031 136.835938 122.46875 136.835938 L 121.050781 136.835938 C 121.050781 136.835938 121.050781 136.816406 121.050781 136.816406 L 121.066406 131.660156 L 122.503906 131.660156 C 123.90625 131.679688 124.625 132.519531 124.625 134.1875 Z M 124.625 134.1875 " fill-opacity="1" fill-rule="nonzero"/><path fill="#71b500" d="M 132.367188 136.816406 L 128.988281 136.816406 C 128.96875 136.816406 128.953125 136.816406 128.953125 136.816406 C 128.953125 136.816406 128.953125 136.800781 128.953125 136.78125 L 128.953125 130.890625 C 128.953125 130.460938 128.648438 130.191406 128.179688 130.191406 C 127.730469 130.191406 127.40625 130.480469 127.40625 130.910156 L 127.40625 136.960938 C 127.40625 137.839844 127.839844 138.285156 128.683594 138.285156 L 132.367188 138.285156 C 132.761719 138.285156 133.066406 137.964844 133.066406 137.535156 C 133.066406 137.121094 132.777344 136.816406 132.367188 136.816406 Z M 132.367188 136.816406 " fill-opacity="1" fill-rule="nonzero"/><path fill="#71b500" d="M 138.5625 130.28125 C 138.167969 130.066406 137.753906 130.175781 137.558594 130.515625 L 135.636719 133.503906 L 133.710938 130.496094 C 133.570312 130.28125 133.355469 130.15625 133.121094 130.15625 C 132.957031 130.15625 132.832031 130.210938 132.707031 130.265625 C 132.4375 130.40625 132.277344 130.660156 132.277344 130.925781 C 132.277344 131.050781 132.3125 131.160156 132.382812 131.285156 L 134.878906 135.007812 L 134.878906 137.640625 C 134.878906 138.054688 135.1875 138.339844 135.652344 138.339844 C 136.101562 138.339844 136.40625 138.054688 136.40625 137.640625 L 136.40625 135.007812 L 138.867188 131.320312 C 138.941406 131.214844 138.992188 131.070312 138.992188 130.925781 C 138.976562 130.675781 138.8125 130.425781 138.5625 130.28125 Z M 138.5625 130.28125 " fill-opacity="1" fill-rule="nonzero"/><g clip-path="url(#f7007ddfbe)"><path fill="#71b500" d="M 147.976562 68.316406 C 147.328125 68.15625 146.789062 68.066406 146.195312 67.957031 C 145.621094 67.851562 145.046875 67.78125 144.472656 67.691406 C 143.324219 67.527344 142.171875 67.421875 141.003906 67.367188 C 138.6875 67.242188 136.371094 67.261719 134.054688 67.511719 C 131.738281 67.726562 129.4375 68.171875 127.191406 68.835938 C 124.945312 69.5 122.753906 70.429688 120.726562 71.609375 C 118.695312 72.8125 116.808594 74.261719 115.191406 75.945312 L 114.886719 76.25 L 114.582031 76.589844 C 114.386719 76.820312 114.1875 77.035156 114.007812 77.269531 C 113.648438 77.753906 113.289062 78.21875 112.984375 78.738281 C 112.355469 79.738281 111.835938 80.796875 111.402344 81.871094 C 110.578125 84.035156 110.054688 86.273438 109.804688 88.511719 C 109.570312 90.5 109.515625 92.46875 109.589844 94.4375 C 109.285156 93.363281 108.90625 92.289062 108.386719 91.25 C 107.953125 90.410156 107.453125 89.605469 106.839844 88.835938 C 106.535156 88.457031 106.210938 88.082031 105.851562 87.742188 C 105.492188 87.382812 105.132812 87.117188 104.773438 86.792969 C 103.285156 85.613281 101.59375 84.664062 99.800781 84.035156 C 98.902344 83.695312 97.984375 83.464844 97.070312 83.285156 C 96.152344 83.085938 95.21875 82.960938 94.285156 82.890625 C 92.417969 82.746094 90.566406 82.820312 88.753906 83.050781 C 87.835938 83.175781 86.9375 83.320312 86.039062 83.535156 C 85.589844 83.644531 85.140625 83.75 84.691406 83.859375 L 84.027344 84.054688 C 83.792969 84.125 83.597656 84.179688 83.308594 84.289062 L 80.957031 85.128906 L 82.320312 87.242188 C 83.972656 89.785156 85.574219 92.558594 86.882812 95.261719 C 87.511719 96.625 88.050781 98.054688 88.679688 99.578125 C 88.984375 100.328125 89.34375 101.117188 89.738281 101.886719 C 90.152344 102.65625 90.601562 103.410156 91.160156 104.125 C 91.410156 104.484375 91.714844 104.804688 92.003906 105.144531 C 92.308594 105.449219 92.613281 105.789062 92.9375 106.078125 C 93.261719 106.363281 93.585938 106.667969 93.925781 106.917969 L 94.429688 107.3125 C 94.589844 107.4375 94.824219 107.582031 95.003906 107.707031 C 95.8125 108.207031 96.65625 108.527344 97.5 108.761719 C 98.34375 108.996094 99.1875 109.15625 100.015625 109.246094 C 101.683594 109.425781 103.335938 109.425781 104.953125 109.28125 C 106.570312 109.136719 108.1875 108.90625 109.75 108.511719 C 106.535156 108.421875 103.335938 108.171875 100.375 107.382812 C 98.902344 106.988281 97.5 106.417969 96.457031 105.609375 C 96.332031 105.503906 96.226562 105.414062 96.097656 105.289062 L 95.703125 104.894531 C 95.433594 104.644531 95.199219 104.359375 94.949219 104.105469 C 94.699219 103.839844 94.5 103.550781 94.265625 103.265625 C 94.070312 102.960938 93.855469 102.691406 93.675781 102.371094 C 93.296875 101.78125 92.992188 101.136719 92.6875 100.472656 C 92.417969 99.792969 92.148438 99.09375 91.894531 98.378906 C 91.410156 96.910156 90.925781 95.335938 90.277344 93.777344 C 89.9375 92.988281 89.613281 92.238281 89.238281 91.503906 C 88.878906 90.769531 88.5 90.035156 88.105469 89.316406 C 87.746094 88.65625 87.386719 88.011719 87.007812 87.367188 C 87.746094 87.207031 88.5 87.0625 89.238281 86.953125 C 90.835938 86.738281 92.433594 86.613281 94.015625 86.703125 C 97.175781 86.8125 100.25 87.652344 102.816406 89.371094 C 103.121094 89.605469 103.464844 89.820312 103.734375 90.050781 C 104.019531 90.285156 104.289062 90.535156 104.558594 90.804688 C 105.082031 91.339844 105.566406 91.949219 105.996094 92.59375 C 106.859375 93.902344 107.523438 95.40625 108.027344 96.964844 C 108.546875 98.539062 108.925781 100.1875 109.210938 101.851562 C 109.355469 102.691406 109.480469 103.535156 109.570312 104.394531 C 109.679688 105.253906 109.75 106.09375 109.824219 106.972656 C 109.984375 106.113281 110.09375 105.253906 110.199219 104.394531 C 110.269531 103.535156 110.324219 102.65625 110.359375 101.78125 C 110.398438 100.023438 110.289062 98.253906 109.984375 96.496094 C 109.894531 95.941406 109.769531 95.386719 109.625 94.851562 C 109.769531 93.882812 109.894531 92.917969 110.09375 91.96875 C 110.289062 90.875 110.523438 89.800781 110.808594 88.746094 C 111.078125 87.6875 111.421875 86.652344 111.78125 85.628906 C 112.175781 84.628906 112.589844 83.625 113.089844 82.695312 C 113.59375 81.761719 114.132812 80.851562 114.78125 80.042969 C 115.085938 79.613281 115.445312 79.257812 115.785156 78.863281 C 115.964844 78.683594 116.144531 78.503906 116.324219 78.324219 L 116.59375 78.054688 L 116.898438 77.804688 C 118.5 76.425781 120.257812 75.261719 122.125 74.332031 C 125.882812 72.453125 130.066406 71.523438 134.289062 71.234375 C 136.40625 71.09375 138.542969 71.109375 140.664062 71.269531 C 141.722656 71.359375 142.785156 71.46875 143.84375 71.609375 C 144.042969 71.648438 144.238281 71.683594 144.4375 71.699219 C 142.730469 75.15625 141.238281 78.648438 139.964844 82.300781 C 139.191406 84.589844 138.597656 86.902344 138.078125 89.15625 C 137.808594 90.265625 137.539062 91.378906 137.234375 92.433594 C 137.089844 92.96875 136.910156 93.488281 136.75 94.007812 C 136.550781 94.511719 136.390625 95.046875 136.171875 95.53125 C 135.347656 97.519531 134.234375 99.378906 132.816406 101.082031 L 131.71875 102.316406 L 131.164062 102.855469 C 130.984375 103.050781 130.75 103.175781 130.550781 103.355469 L 130.246094 103.605469 C 130.136719 103.675781 130.03125 103.75 129.90625 103.820312 C 129.671875 103.964844 129.457031 104.125 129.222656 104.269531 C 128.738281 104.535156 128.269531 104.804688 127.765625 105.039062 C 125.773438 106.023438 123.5625 106.667969 121.355469 107.238281 C 120.242188 107.507812 119.109375 107.757812 117.960938 107.957031 C 116.828125 108.171875 115.679688 108.351562 114.511719 108.511719 C 115.679688 108.582031 116.847656 108.566406 118.011719 108.566406 C 119.179688 108.527344 120.347656 108.457031 121.535156 108.351562 C 122.703125 108.226562 123.871094 108.0625 125.035156 107.8125 C 126.203125 107.5625 127.371094 107.277344 128.523438 106.863281 C 129.097656 106.667969 129.652344 106.417969 130.226562 106.164062 C 130.515625 106.039062 130.785156 105.878906 131.054688 105.734375 C 131.199219 105.664062 131.339844 105.59375 131.46875 105.519531 L 131.863281 105.269531 C 132.402344 104.949219 132.90625 104.535156 133.40625 104.125 L 134.738281 102.871094 C 136.441406 101.136719 137.917969 99.074219 139.011719 96.855469 C 140.125 94.636719 140.808594 92.289062 141.453125 90.070312 C 142.101562 87.832031 142.710938 85.664062 143.503906 83.605469 C 144.292969 81.496094 145.191406 79.398438 146.144531 77.324219 C 147.078125 75.261719 148.082031 73.1875 149.125 71.21875 L 150.4375 68.90625 Z M 147.976562 68.316406 " fill-opacity="1" fill-rule="nonzero"/></g><path fill="#71b500" d="M 115.730469 104.230469 C 117.242188 102.65625 118.625 101.007812 119.898438 99.273438 C 121.175781 97.535156 122.34375 95.710938 123.382812 93.8125 C 124.40625 91.894531 125.34375 89.910156 125.933594 87.671875 C 123.996094 88.925781 122.378906 90.410156 120.851562 91.96875 C 119.34375 93.542969 117.960938 95.191406 116.683594 96.925781 C 115.410156 98.664062 114.242188 100.492188 113.21875 102.40625 C 112.195312 104.320312 111.257812 106.308594 110.648438 108.546875 C 112.589844 107.292969 114.207031 105.789062 115.730469 104.230469 Z M 115.730469 104.230469 " fill-opacity="1" fill-rule="nonzero"/><path fill="#71b500" d="M 105.152344 100.632812 C 104.234375 99.703125 103.230469 98.859375 102.117188 98.144531 C 100.984375 97.429688 99.761719 96.800781 98.253906 96.460938 C 98.578125 97.964844 99.1875 99.183594 99.890625 100.328125 C 100.589844 101.457031 101.414062 102.476562 102.332031 103.410156 C 103.25 104.339844 104.253906 105.164062 105.386719 105.878906 C 106.515625 106.59375 107.738281 107.222656 109.230469 107.5625 C 108.90625 106.058594 108.296875 104.839844 107.59375 103.695312 C 106.894531 102.585938 106.066406 101.566406 105.152344 100.632812 Z M 105.152344 100.632812 " fill-opacity="1" fill-rule="nonzero"/><g clip-path="url(#c58a95d985)"><path fill="#71b500" d="M 145.550781 92.59375 C 146.664062 94.007812 147.667969 95.53125 148.585938 97.105469 C 149.484375 98.699219 150.273438 100.347656 150.9375 102.046875 C 151.621094 103.75 152.160156 105.503906 152.589844 107.292969 C 153.003906 109.085938 153.292969 110.910156 153.472656 112.753906 L 153.542969 113.453125 L 153.578125 114.152344 C 153.597656 114.617188 153.632812 115.082031 153.632812 115.546875 L 153.652344 116.945312 C 153.652344 117.410156 153.617188 117.875 153.597656 118.339844 C 153.578125 119.273438 153.453125 120.183594 153.363281 121.117188 C 153.308594 121.582031 153.238281 122.027344 153.167969 122.496094 L 153.058594 123.191406 C 153.023438 123.425781 152.96875 123.65625 152.933594 123.871094 L 152.664062 125.25 C 152.554688 125.699219 152.429688 126.164062 152.320312 126.613281 L 152.144531 127.292969 L 151.925781 127.957031 C 151.785156 128.402344 151.65625 128.851562 151.496094 129.296875 C 151.171875 130.175781 150.867188 131.070312 150.488281 131.910156 L 150.21875 132.554688 C 150.128906 132.769531 150.039062 132.984375 149.933594 133.199219 L 149.324219 134.472656 C 145.925781 141.167969 140.59375 146.914062 134.109375 150.855469 L 132.886719 151.570312 C 132.472656 151.820312 132.042969 152.019531 131.628906 152.234375 C 130.804688 152.679688 129.921875 153.058594 129.058594 153.449219 C 128.628906 153.628906 128.179688 153.808594 127.730469 153.988281 L 127.066406 154.257812 L 126.402344 154.488281 C 125.953125 154.648438 125.503906 154.8125 125.054688 154.953125 L 123.691406 155.347656 C 123.242188 155.492188 122.773438 155.597656 122.304688 155.707031 C 121.839844 155.8125 121.390625 155.9375 120.921875 156.011719 C 119.988281 156.171875 119.054688 156.367188 118.101562 156.476562 C 116.21875 156.746094 114.3125 156.835938 112.410156 156.835938 C 108.601562 156.78125 104.8125 156.261719 101.144531 155.207031 C 100.230469 154.953125 99.332031 154.632812 98.433594 154.328125 C 97.984375 154.167969 97.554688 153.988281 97.105469 153.808594 L 96.441406 153.539062 C 96.226562 153.449219 96.007812 153.34375 95.792969 153.253906 L 94.5 152.664062 L 93.242188 152 C 92.8125 151.785156 92.417969 151.550781 92.003906 151.300781 L 91.394531 150.945312 C 91.195312 150.820312 90.980469 150.710938 90.78125 150.566406 L 89.597656 149.796875 C 89.398438 149.671875 89.203125 149.53125 89.003906 149.386719 L 88.394531 148.9375 C 87.621094 148.402344 86.882812 147.792969 86.148438 147.203125 C 85.789062 146.898438 85.429688 146.574219 85.085938 146.269531 C 84.90625 146.109375 84.726562 145.964844 84.566406 145.804688 L 84.0625 145.304688 C 83.722656 144.964844 83.382812 144.640625 83.058594 144.300781 L 82.089844 143.261719 C 80.832031 141.847656 79.644531 140.378906 78.601562 138.824219 L 78.207031 138.230469 L 77.832031 137.625 C 77.578125 137.230469 77.328125 136.816406 77.09375 136.421875 C 76.644531 135.601562 76.160156 134.792969 75.765625 133.933594 L 75.460938 133.308594 C 75.351562 133.09375 75.261719 132.878906 75.171875 132.664062 L 74.617188 131.375 C 74.527344 131.160156 74.4375 130.945312 74.363281 130.710938 L 74.113281 130.050781 C 73.949219 129.601562 73.789062 129.171875 73.644531 128.726562 L 73.230469 127.382812 C 73.105469 126.933594 73 126.46875 72.875 126.023438 L 72.695312 125.339844 C 72.640625 125.109375 72.605469 124.875 72.550781 124.660156 L 72.28125 123.28125 C 71.667969 119.613281 71.488281 115.851562 71.886719 112.183594 C 72.640625 104.824219 75.53125 97.75 80.074219 92.128906 C 79.125 93.667969 78.261719 95.261719 77.542969 96.890625 C 76.789062 98.519531 76.160156 100.1875 75.640625 101.886719 C 75.511719 102.316406 75.386719 102.746094 75.28125 103.175781 L 74.957031 104.464844 L 74.667969 105.773438 C 74.578125 106.203125 74.507812 106.648438 74.4375 107.078125 C 74.148438 108.816406 73.96875 110.589844 73.914062 112.34375 C 73.914062 112.789062 73.898438 113.21875 73.898438 113.667969 L 73.914062 114.992188 C 73.933594 115.421875 73.96875 115.871094 73.988281 116.300781 L 74.023438 116.960938 C 74.039062 117.175781 74.078125 117.390625 74.09375 117.605469 L 74.238281 118.914062 C 74.292969 119.34375 74.363281 119.773438 74.4375 120.203125 L 74.542969 120.847656 C 74.578125 121.0625 74.632812 121.277344 74.667969 121.492188 L 74.9375 122.761719 L 75.261719 124.035156 L 75.421875 124.660156 L 75.621094 125.289062 C 75.746094 125.699219 75.871094 126.109375 76.015625 126.523438 L 76.464844 127.742188 C 76.609375 128.152344 76.789062 128.546875 76.949219 128.941406 L 77.203125 129.53125 C 77.292969 129.726562 77.363281 129.925781 77.472656 130.121094 L 78.027344 131.285156 C 78.117188 131.480469 78.226562 131.679688 78.316406 131.859375 L 78.621094 132.429688 C 79.015625 133.199219 79.484375 133.933594 79.933594 134.667969 C 80.164062 135.027344 80.417969 135.386719 80.652344 135.742188 L 81.011719 136.28125 L 81.40625 136.800781 C 82.410156 138.214844 83.542969 139.503906 84.726562 140.757812 L 85.644531 141.667969 C 85.949219 141.972656 86.273438 142.261719 86.597656 142.546875 L 87.0625 142.976562 C 87.226562 143.121094 87.386719 143.261719 87.546875 143.386719 L 88.535156 144.210938 C 89.21875 144.730469 89.882812 145.269531 90.601562 145.75 L 91.140625 146.109375 C 91.320312 146.234375 91.5 146.359375 91.679688 146.46875 L 92.777344 147.148438 C 92.957031 147.273438 93.152344 147.363281 93.332031 147.46875 L 93.890625 147.792969 C 94.265625 148.007812 94.644531 148.222656 95.019531 148.402344 L 96.171875 148.972656 L 97.355469 149.492188 C 97.554688 149.582031 97.75 149.671875 97.949219 149.746094 L 98.542969 149.976562 C 98.9375 150.121094 99.332031 150.300781 99.746094 150.425781 C 100.554688 150.691406 101.363281 150.980469 102.207031 151.195312 L 102.816406 151.375 C 103.015625 151.425781 103.230469 151.5 103.445312 151.535156 L 104.703125 151.820312 L 105.007812 151.894531 L 105.332031 151.945312 L 105.960938 152.054688 C 106.390625 152.125 106.804688 152.214844 107.234375 152.25 L 108.511719 152.410156 C 108.726562 152.449219 108.941406 152.464844 109.15625 152.464844 L 109.804688 152.519531 C 110.667969 152.609375 111.511719 152.589844 112.375 152.625 C 114.097656 152.625 115.804688 152.554688 117.511719 152.324219 C 118.371094 152.234375 119.199219 152.070312 120.042969 151.929688 C 120.472656 151.855469 120.886719 151.75 121.300781 151.660156 C 121.714844 151.570312 122.144531 151.480469 122.558594 151.355469 L 123.796875 151.015625 C 124.210938 150.890625 124.605469 150.746094 125.019531 150.621094 L 125.628906 150.425781 L 126.222656 150.191406 C 126.617188 150.03125 127.03125 149.886719 127.425781 149.726562 C 128.199219 149.367188 129.007812 149.046875 129.761719 148.652344 L 130.335938 148.367188 C 130.535156 148.277344 130.714844 148.167969 130.910156 148.0625 L 132.042969 147.433594 C 132.238281 147.328125 132.417969 147.21875 132.597656 147.113281 L 133.136719 146.773438 C 133.496094 146.539062 133.875 146.324219 134.214844 146.074219 L 135.277344 145.339844 C 135.617188 145.089844 135.957031 144.820312 136.300781 144.550781 C 136.460938 144.425781 136.640625 144.300781 136.800781 144.160156 L 137.289062 143.746094 C 137.609375 143.460938 137.953125 143.191406 138.273438 142.90625 C 138.902344 142.3125 139.550781 141.742188 140.144531 141.113281 C 140.773438 140.507812 141.328125 139.859375 141.902344 139.214844 C 142.191406 138.894531 142.441406 138.554688 142.730469 138.214844 L 143.144531 137.710938 L 143.539062 137.195312 C 144.597656 135.832031 145.515625 134.363281 146.375 132.859375 C 149.808594 126.828125 151.515625 119.84375 151.386719 112.808594 C 151.351562 111.054688 151.207031 109.28125 150.957031 107.542969 C 150.6875 105.789062 150.292969 104.070312 149.808594 102.351562 C 149.324219 100.652344 148.695312 98.96875 147.976562 97.320312 C 147.3125 95.746094 146.464844 94.152344 145.550781 92.59375 Z M 145.550781 92.59375 " fill-opacity="1" fill-rule="nonzero"/></g></svg>