<svg width="174" height="190" viewBox="0 0 174 190" fill="none" xmlns="http://www.w3.org/2000/svg">
<path d="M73.0855 124.953C73.0855 123.891 72.3918 123.173 71.3606 123.173H62.592C62.5045 123.173 62.4482 123.173 62.4232 123.148V123.117V117.852H70.0356C70.9856 117.852 71.7356 117.109 71.7356 116.104C71.7356 115.048 71.0418 114.33 70.0356 114.33H62.4232V110.009C62.4232 109.953 62.4232 109.922 62.4232 109.897C62.4482 109.897 62.4795 109.897 62.5045 109.897H71.1293C72.1355 109.897 72.8543 109.153 72.8543 108.092C72.8543 107.03 72.1668 106.318 71.1293 106.318H61.8732C59.692 106.318 58.6545 107.405 58.6545 109.666V123.404C58.6545 125.64 59.717 126.751 61.8732 126.751H71.3606C72.3668 126.751 73.0855 126.008 73.0855 124.953Z" fill="#71B500"/>
<path d="M84.2666 127.157C89.4352 127.157 91.4789 123.635 92.2227 121.518C92.3102 121.287 92.3414 121.087 92.3414 120.856C92.3414 119.969 91.6227 119.339 90.9602 119.17C89.8415 118.852 88.8352 119.314 88.4602 120.313C87.7728 122.461 86.3603 123.516 84.1791 123.516C80.9291 123.516 78.8042 120.769 78.8042 116.535C78.8042 112.214 80.8416 109.522 84.1791 109.522C86.7665 109.522 87.6853 110.896 88.2602 112.301C88.5727 112.957 89.204 113.356 89.954 113.356C90.2727 113.356 90.529 113.3 90.7852 113.213C91.4227 113.013 92.0539 112.413 92.0539 111.558C92.0539 111.296 91.9977 111.04 91.9102 110.784C90.9914 108.579 88.9165 105.944 84.1228 105.944C78.6292 105.944 74.9542 110.209 74.9542 116.535C74.923 122.973 78.6042 127.157 84.2666 127.157Z" fill="#71B500"/>
<path d="M103.604 127.157C109.241 127.157 112.86 123.004 112.86 116.566C112.86 110.122 109.241 105.975 103.604 105.975C97.9413 105.975 94.2914 110.122 94.2914 116.566C94.3226 122.973 97.9726 127.157 103.604 127.157ZM103.604 109.497C106.854 109.497 108.979 112.214 108.979 116.391C108.979 120.887 106.966 123.548 103.604 123.548C100.273 123.548 98.2038 120.856 98.2038 116.535C98.2038 112.214 100.273 109.497 103.604 109.497Z" fill="#71B500"/>
<path d="M53.1671 133.708H47.0735C45.6922 133.708 45.036 134.394 45.036 135.824V145.504C45.036 146.191 45.5235 146.647 46.2422 146.647C46.961 146.647 47.4735 146.191 47.4735 145.529V141.095H52.3046C52.9359 141.095 53.3984 140.608 53.3984 139.977C53.3984 139.29 52.9671 138.834 52.3046 138.834H47.4735V136.024H53.1671C53.8296 136.024 54.2858 135.543 54.2858 134.882C54.2608 134.17 53.7984 133.708 53.1671 133.708Z" fill="#71B500"/>
<path d="M65.4419 144.187C64.6356 142.151 64.1169 141.008 63.5419 140.352C64.7231 139.778 65.3544 138.691 65.3544 137.23C65.3544 135.057 63.8606 133.683 61.4169 133.683H57.8233C56.442 133.683 55.7795 134.37 55.7795 135.825V145.504C55.7795 146.191 56.2733 146.647 57.017 146.647C57.7358 146.647 58.2232 146.191 58.2232 145.529V141.239H60.5545C61.6732 141.239 61.9919 141.839 63.1669 144.986L63.5419 145.96C63.7169 146.391 64.1169 146.672 64.6044 146.672C64.7481 146.672 64.9231 146.647 65.0669 146.616C65.5856 146.472 65.9294 146.048 65.9294 145.561C65.9294 145.417 65.8981 145.298 65.8731 145.161L65.4419 144.187ZM58.1982 136C58.1982 135.969 58.1982 135.969 58.1982 135.944C58.1982 135.944 58.1982 135.944 58.2232 135.944H61.3294C62.3919 135.944 62.9107 136.431 62.9107 137.461C62.9107 138.404 62.2794 139.004 61.2419 139.004H58.1982V136Z" fill="#71B500"/>
<path d="M68.8043 133.621C68.0856 133.621 67.5919 134.083 67.5919 134.738V145.561C67.5919 146.216 68.0856 146.672 68.8043 146.672C69.5231 146.672 70.0356 146.216 70.0356 145.561V134.738C70.0356 134.051 69.5231 133.621 68.8043 133.621Z" fill="#71B500"/>
<path d="M80.4729 144.267H74.9792C74.9542 144.267 74.923 144.267 74.8917 144.267V140.976H79.6354C80.2666 140.976 80.7291 140.489 80.7291 139.865C80.7291 139.203 80.2666 138.716 79.6354 138.716H74.8917V136.056C74.8917 136.024 74.8917 136.024 74.8917 135.999H74.923H80.3291C80.9853 135.999 81.4166 135.512 81.4166 134.857C81.4166 134.195 80.9603 133.708 80.3291 133.708H74.548C73.173 133.708 72.5105 134.394 72.5105 135.856V144.442C72.5105 145.847 73.198 146.559 74.548 146.559H80.4729C81.1041 146.559 81.5603 146.072 81.5603 145.416C81.5603 144.729 81.1041 144.267 80.4729 144.267Z" fill="#71B500"/>
<path d="M92.1664 133.621C91.4476 133.621 90.9289 134.083 90.9289 134.738V139.347C90.9289 140.409 90.9601 141.439 91.0164 142.351C90.7289 141.807 90.4164 141.264 90.1289 140.808L86.2727 134.57C85.9602 134.083 85.554 133.564 84.554 133.621L84.1478 132.734L84.2353 133.683C83.5728 133.827 83.1728 134.339 83.1728 135.057V145.586C83.1728 146.247 83.6603 146.703 84.4103 146.703C85.1228 146.703 85.6165 146.247 85.6165 145.586V140.896C85.6165 139.865 85.5852 138.804 85.554 137.886C85.7852 138.317 86.0165 138.716 86.2477 139.06L90.2977 145.617C90.7039 146.247 91.0726 146.703 91.9976 146.703C92.0226 146.703 92.0539 146.703 92.0789 146.703L92.4851 147.534L92.3976 146.647C93.0289 146.503 93.4289 145.985 93.4289 145.242V134.77C93.3726 134.052 92.9164 133.621 92.1664 133.621Z" fill="#71B500"/>
<path d="M100.616 133.708H97.8851C96.5038 133.708 95.8476 134.394 95.8476 135.856V144.442C95.8476 145.847 96.5351 146.559 97.8851 146.559H100.616C104.235 146.559 106.479 144.043 106.479 140.008C106.479 136.056 104.297 133.708 100.616 133.708ZM104.01 140.008C104.01 142.694 102.741 144.242 100.56 144.242H98.2913V144.211L98.3163 135.968H100.616C102.86 135.999 104.01 137.342 104.01 140.008Z" fill="#71B500"/>
<path d="M116.397 144.212H110.991C110.96 144.212 110.935 144.212 110.935 144.212C110.935 144.212 110.935 144.187 110.935 144.155V134.738C110.935 134.051 110.447 133.621 109.697 133.621C108.979 133.621 108.46 134.083 108.46 134.77V144.443C108.46 145.848 109.154 146.56 110.504 146.56H116.397C117.028 146.56 117.516 146.048 117.516 145.361C117.516 144.699 117.053 144.212 116.397 144.212Z" fill="#71B500"/>
<path d="M126.31 133.764C125.678 133.42 125.016 133.595 124.703 134.138L121.628 138.916L118.547 134.107C118.322 133.764 117.978 133.564 117.603 133.564C117.341 133.564 117.141 133.651 116.941 133.739C116.51 133.964 116.253 134.37 116.253 134.794C116.253 134.994 116.31 135.169 116.422 135.369L120.416 141.32V145.529C120.416 146.191 120.91 146.647 121.653 146.647C122.372 146.647 122.86 146.191 122.86 145.529V141.32L126.797 135.425C126.916 135.256 126.997 135.025 126.997 134.794C126.972 134.395 126.71 133.995 126.31 133.764Z" fill="#71B500"/>
<mask id="mask0_31_79" style="mask-type:luminance" maskUnits="userSpaceOnUse" x="32" y="32" width="115" height="70">
<path d="M32.6113 32.9556H146.209V101.341H32.6113V32.9556Z" fill="white"/>
</mask>
<g mask="url(#mask0_31_79)">
<path d="M141.372 34.7041C140.334 34.4481 139.472 34.3044 138.522 34.1296C137.603 33.961 136.684 33.8486 135.766 33.7049C133.928 33.4427 132.084 33.2741 130.216 33.1866C126.51 32.9868 122.803 33.018 119.097 33.4177C115.391 33.7611 111.71 34.473 108.116 35.5346C104.522 36.5963 101.016 38.0825 97.7726 39.9684C94.5227 41.8918 91.504 44.2086 88.9165 46.9L88.429 47.3871L87.9415 47.9304C87.629 48.2989 87.3103 48.6423 87.0228 49.017C86.4478 49.7913 85.8728 50.5345 85.3853 51.365C84.3791 52.9637 83.5479 54.656 82.8541 56.3733C81.5354 59.8329 80.6979 63.4111 80.2979 66.9893C79.9229 70.1679 79.8354 73.3152 79.9542 76.4625C79.4667 74.7453 78.8604 73.028 78.0292 71.3669C77.3355 70.0242 76.5355 68.7378 75.5543 67.5076C75.0668 66.9019 74.548 66.3024 73.973 65.7591C73.398 65.1846 72.8231 64.7599 72.2481 64.2416C69.8669 62.3557 67.1607 60.8383 64.292 59.8329C62.8545 59.2896 61.3858 58.9211 59.9233 58.6339C58.4546 58.3154 56.9608 58.1156 55.4671 58.0032C52.4797 57.7721 49.5172 57.8907 46.6173 58.2592C45.1486 58.459 43.7111 58.6901 42.2736 59.0335C41.5549 59.2084 40.8361 59.377 40.1174 59.5518L39.0549 59.8641C38.6799 59.9765 38.3674 60.0639 37.9049 60.2388L34.1425 61.5814L36.3237 64.9598C38.9674 69.0251 41.5299 73.4588 43.6236 77.7802C44.6298 79.9596 45.4923 82.2452 46.4985 84.6806C46.986 85.8796 47.561 87.141 48.1923 88.3712C48.8547 89.6014 49.5735 90.8067 50.4672 91.9495C50.8672 92.524 51.3547 93.036 51.8172 93.5793C52.3047 94.0664 52.7922 94.6097 53.3109 95.0718C53.8297 95.5277 54.3484 96.0148 54.8921 96.4144L55.6984 97.0452C55.9546 97.245 56.3296 97.476 56.6171 97.6759C57.9108 98.4752 59.2608 98.9873 60.6108 99.3619C61.9608 99.7366 63.3107 99.9927 64.6357 100.136C67.3044 100.424 69.9481 100.424 72.5356 100.192C75.123 99.9614 77.7105 99.593 80.2104 98.9623C75.0668 98.8186 69.9481 98.419 65.2107 97.1576C62.8545 96.5268 60.6108 95.6151 58.9421 94.3225C58.7421 94.1538 58.5733 94.0102 58.3671 93.8104L57.7358 93.1797C57.3046 92.78 56.9296 92.3241 56.5296 91.9182C56.1296 91.4936 55.8109 91.0315 55.4359 90.5756C55.1234 90.0885 54.7796 89.6576 54.4921 89.1456C53.8859 88.2026 53.3984 87.1722 52.9109 86.1106C52.4797 85.0241 52.0484 83.9063 51.6422 82.7635C50.8672 80.4155 50.0922 77.8988 49.0547 75.4072C48.511 74.1458 47.9923 72.9468 47.3923 71.7728C46.8173 70.5988 46.211 69.4247 45.5798 68.2757C45.0048 67.2204 44.4298 66.19 43.8236 65.1596C45.0048 64.9036 46.211 64.6725 47.3923 64.4977C49.9485 64.1542 52.5047 63.9544 55.0359 64.098C60.092 64.2729 65.0107 65.6155 69.1169 68.3631C69.6044 68.7378 70.1544 69.0813 70.5856 69.4497C71.0418 69.8244 71.4731 70.2241 71.9043 70.655C72.7418 71.5105 73.5168 72.4847 74.2043 73.515C75.5855 75.607 76.648 78.0112 77.4542 80.5029C78.2855 83.0195 78.8917 85.6548 79.3479 88.315C79.5792 89.6576 79.7792 91.0065 79.9229 92.3803C80.0979 93.7542 80.2104 95.0968 80.3292 96.5019C80.5854 95.128 80.7604 93.7542 80.9292 92.3803C81.0417 91.0065 81.1292 89.6014 81.1854 88.2026C81.2479 85.3925 81.0729 82.5636 80.5854 79.7535C80.4417 78.8668 80.2417 77.98 80.0104 77.1245C80.2417 75.5758 80.4417 74.0334 80.7604 72.5159C81.0729 70.7674 81.4479 69.0501 81.9041 67.364C82.3354 65.6717 82.8854 64.0168 83.4604 62.3807C84.0916 60.7821 84.7541 59.1772 85.5541 57.6909C86.3603 56.1984 87.2228 54.7434 88.2603 53.4508C88.7478 52.7638 89.3228 52.1956 89.8665 51.5648C90.154 51.2776 90.4415 50.9903 90.729 50.7031L91.1602 50.2722L91.6477 49.8725C94.2102 47.6681 97.0226 45.8072 100.01 44.321C106.022 41.3173 112.716 39.831 119.472 39.3689C122.86 39.1441 126.278 39.1691 129.672 39.4251C131.366 39.5687 133.066 39.7436 134.759 39.9684C135.078 40.0308 135.391 40.087 135.709 40.112C132.978 45.6386 130.591 51.2214 128.553 57.0602C127.316 60.7196 126.366 64.4165 125.535 68.0197C125.103 69.7932 124.672 71.5729 124.185 73.259C123.953 74.1145 123.666 74.9451 123.41 75.7756C123.091 76.5812 122.835 77.4367 122.485 78.2111C121.166 81.3896 119.385 84.3621 117.116 87.0848L115.36 89.0582L114.472 89.9199C114.185 90.2322 113.81 90.432 113.491 90.7192L113.004 91.1189C112.829 91.2313 112.66 91.35 112.46 91.4624C112.085 91.6934 111.741 91.9495 111.366 92.1805C110.591 92.6052 109.841 93.036 109.035 93.4107C105.847 94.9844 102.31 96.0148 98.7788 96.9265C96.9976 97.3574 95.1851 97.757 93.3477 98.0755C91.5352 98.419 89.6977 98.7062 87.829 98.9623C89.6977 99.0747 91.5665 99.0497 93.4289 99.0497C95.2976 98.9873 97.1664 98.8749 99.0663 98.7062C100.935 98.5064 102.804 98.2441 104.666 97.8445C106.535 97.4448 108.404 96.9889 110.247 96.327C111.166 96.0148 112.054 95.6151 112.972 95.2092C113.435 95.0094 113.866 94.7533 114.297 94.5223C114.529 94.4099 114.754 94.2975 114.96 94.1788L115.591 93.7792C116.454 93.2671 117.26 92.6052 118.06 91.9495L120.191 89.9449C122.916 87.1722 125.278 83.875 127.028 80.328C128.81 76.781 129.903 73.028 130.934 69.4809C131.972 65.9027 132.947 62.4369 134.216 59.1459C135.478 55.7738 136.916 52.4204 138.441 49.1044C139.934 45.8072 141.541 42.4913 143.209 39.3439L145.309 35.6471L141.372 34.7041Z" fill="#71B500"/>
</g>
<path d="M89.7789 92.1179C92.1976 89.6012 94.4101 86.966 96.4476 84.1933C98.4913 81.4144 100.36 78.4981 102.022 75.4632C103.66 72.397 105.16 69.2247 106.104 65.6465C103.004 67.651 100.416 70.024 97.9725 72.5157C95.5601 75.0323 93.3476 77.6676 91.3039 80.4402C89.2664 83.2191 87.3977 86.1417 85.7603 89.2016C84.1228 92.2615 82.6228 95.44 81.6478 99.0183C84.754 97.0137 87.3415 94.6095 89.7789 92.1179Z" fill="#71B500"/>
<path d="M72.8543 86.3666C71.3855 84.8804 69.7793 83.5315 67.9981 82.3887C66.1856 81.246 64.2294 80.2406 61.817 79.6973C62.3357 82.1015 63.3107 84.0498 64.4357 85.8795C65.5544 87.6843 66.8731 89.3141 68.3418 90.8066C69.8106 92.2929 71.4168 93.6105 73.2292 94.7533C75.0355 95.8961 76.9917 96.9015 79.3791 97.4448C78.8604 95.0405 77.8854 93.0922 76.7604 91.2625C75.6417 89.489 74.3167 87.8591 72.8543 86.3666Z" fill="#71B500"/>
<mask id="mask1_31_79" style="mask-type:luminance" maskUnits="userSpaceOnUse" x="18" y="72" width="133" height="105">
<path d="M18.9927 72.5659H150.453V176.247H18.9927V72.5659Z" fill="white"/>
</mask>
<g mask="url(#mask1_31_79)">
<path d="M137.491 73.5151C139.272 75.7757 140.878 78.2111 142.347 80.7277C143.784 83.2756 145.047 85.9109 146.109 88.6273C147.203 91.35 148.065 94.1539 148.753 97.014C149.415 99.8803 149.878 102.797 150.165 105.744L150.278 106.862L150.334 107.98C150.365 108.723 150.422 109.466 150.422 110.209L150.453 112.445C150.453 113.188 150.397 113.931 150.365 114.674C150.334 116.167 150.134 117.622 149.99 119.114C149.903 119.857 149.79 120.569 149.678 121.318L149.503 122.43C149.447 122.805 149.359 123.173 149.303 123.517L148.872 125.721C148.697 126.439 148.497 127.182 148.322 127.9L148.04 128.987L147.69 130.049C147.465 130.76 147.259 131.479 147.003 132.19C146.484 133.596 145.997 135.026 145.39 136.368L144.959 137.399C144.815 137.742 144.672 138.086 144.503 138.429L143.528 140.465C138.091 151.168 129.559 160.354 119.185 166.655L117.228 167.798C116.566 168.198 115.878 168.516 115.216 168.859C113.897 169.571 112.485 170.177 111.104 170.802C110.416 171.089 109.697 171.376 108.979 171.663L107.916 172.094L106.854 172.463C106.135 172.719 105.416 172.981 104.697 173.206L102.516 173.837C101.797 174.068 101.047 174.236 100.298 174.411C99.5538 174.58 98.835 174.779 98.085 174.898C96.5913 175.154 95.0976 175.466 93.5726 175.641C90.5602 176.072 87.5102 176.216 84.4665 176.216C78.3729 176.128 72.3105 175.298 66.4419 173.612C64.9794 173.206 63.5419 172.694 62.1045 172.207C61.3857 171.951 60.6982 171.663 59.9795 171.376L58.917 170.945C58.5733 170.802 58.2233 170.633 57.8795 170.489L55.8108 169.546L53.7984 168.485C53.1109 168.141 52.4796 167.767 51.8171 167.367L50.8422 166.799C50.5234 166.599 50.1797 166.424 49.8609 166.193L47.9672 164.963C47.6485 164.763 47.336 164.538 47.0172 164.307L46.0422 163.589C44.8048 162.733 43.6235 161.759 42.4486 160.816C41.8736 160.329 41.2986 159.811 40.7486 159.324C40.4611 159.068 40.1736 158.837 39.9174 158.581L39.1111 157.781C38.5674 157.238 38.0236 156.72 37.5049 156.176L35.9549 154.515C33.9425 152.255 32.0425 149.907 30.3738 147.421L29.7425 146.472L29.1426 145.504C28.7363 144.874 28.3363 144.212 27.9613 143.581C27.2426 142.269 26.4676 140.977 25.8364 139.603L25.3489 138.604C25.1739 138.26 25.0301 137.917 24.8864 137.573L23.9989 135.513C23.8552 135.169 23.7114 134.826 23.5927 134.451L23.1927 133.396C22.9302 132.678 22.6739 131.991 22.4427 131.279L21.7802 129.131C21.5802 128.412 21.4115 127.669 21.2115 126.957L20.924 125.865C20.8365 125.496 20.7802 125.121 20.6927 124.778L20.2615 122.574C19.2802 116.71 18.9927 110.696 19.6302 104.832C20.8365 93.0673 25.4614 81.7581 32.73 72.772C31.2113 75.2324 29.83 77.7802 28.6801 80.3843C27.4738 82.9883 26.4676 85.6548 25.6364 88.3713C25.4301 89.0582 25.2301 89.7451 25.0614 90.432L24.5426 92.4928L24.0802 94.5848C23.9364 95.2717 23.8239 95.9836 23.7114 96.6705C23.2489 99.4494 22.9614 102.285 22.8739 105.088C22.8739 105.8 22.8489 106.487 22.8489 107.205L22.8739 109.322C22.9052 110.009 22.9614 110.727 22.9927 111.414L23.0489 112.47C23.0739 112.813 23.1364 113.157 23.1614 113.5L23.3927 115.592C23.4802 116.279 23.5927 116.966 23.7114 117.653L23.8802 118.683C23.9364 119.027 24.0239 119.37 24.0802 119.714L24.5114 121.743L25.0301 123.779L25.2864 124.778L25.6051 125.783C25.8051 126.439 26.0051 127.095 26.2364 127.757L26.9551 129.705C27.1863 130.361 27.4738 130.992 27.7301 131.622L28.1363 132.565C28.2801 132.877 28.3926 133.196 28.5676 133.508L29.4551 135.369C29.5988 135.681 29.7738 136 29.9175 136.287L30.405 137.199C31.0363 138.429 31.7863 139.603 32.505 140.777C32.8737 141.351 33.28 141.926 33.655 142.494L34.23 143.356L34.8612 144.187C36.4674 146.447 38.2799 148.508 40.1736 150.512L41.6423 151.968C42.1298 152.455 42.6486 152.917 43.1673 153.373L43.911 154.06C44.1735 154.291 44.4298 154.515 44.686 154.715L46.2672 156.033C47.361 156.863 48.4235 157.725 49.5734 158.493L50.4359 159.068C50.7234 159.268 51.0109 159.467 51.2984 159.642L53.0546 160.729C53.3421 160.929 53.6546 161.072 53.9421 161.241L54.8358 161.759C55.4358 162.103 56.0421 162.446 56.6421 162.733L58.4858 163.645L60.3795 164.476C60.6982 164.619 61.0107 164.763 61.3295 164.882L62.2795 165.25C62.9107 165.481 63.5419 165.768 64.2044 165.968C65.4981 166.393 66.7919 166.855 68.1418 167.198L69.1168 167.486C69.4356 167.567 69.7793 167.685 70.1231 167.742L72.1355 168.198L72.623 168.316L73.1418 168.397L74.148 168.572C74.8355 168.685 75.498 168.828 76.1854 168.884L78.2292 169.14C78.5729 169.203 78.9166 169.228 79.2604 169.228L80.2979 169.315C81.6791 169.459 83.0291 169.428 84.4103 169.484C87.1665 169.484 89.8977 169.372 92.6289 169.003C94.0039 168.859 95.3288 168.597 96.6788 168.372C97.3663 168.254 98.0288 168.085 98.6913 167.942C99.3538 167.798 100.041 167.654 100.704 167.454L102.685 166.911C103.347 166.711 103.979 166.48 104.641 166.28L105.616 165.968L106.566 165.593C107.197 165.337 107.86 165.106 108.491 164.85C109.729 164.276 111.022 163.764 112.229 163.133L113.147 162.677C113.466 162.534 113.754 162.359 114.066 162.19L115.878 161.185C116.191 161.016 116.478 160.841 116.766 160.673L117.628 160.129C118.203 159.755 118.81 159.411 119.353 159.012L121.053 157.838C121.597 157.438 122.141 157.007 122.691 156.576C122.947 156.376 123.235 156.176 123.491 155.952L124.272 155.29C124.785 154.834 125.335 154.403 125.847 153.947C126.853 152.998 127.891 152.086 128.841 151.081C129.847 150.113 130.734 149.076 131.653 148.046C132.116 147.534 132.516 146.99 132.978 146.447L133.641 145.642L134.272 144.817C135.966 142.638 137.434 140.29 138.809 137.886C144.303 128.244 147.034 117.078 146.828 105.832C146.772 103.028 146.54 100.193 146.14 97.4136C145.709 94.6098 145.078 91.8621 144.303 89.1144C143.528 86.398 142.522 83.7065 141.372 81.0712C140.309 78.5546 138.953 76.0067 137.491 73.5151Z" fill="#71B500"/>
</g>
</svg>
