<svg xmlns="http://www.w3.org/2000/svg" xmlns:xlink="http://www.w3.org/1999/xlink" width="300" zoomAndPan="magnify" viewBox="0 0 224.87999 225" height="300" preserveAspectRatio="xMidYMid meet" version="1.0"><defs><clipPath id="75859d4dbe"><path d="M 67.464844 67.523438 L 157.414062 67.523438 L 157.414062 157.476562 L 67.464844 157.476562 Z M 67.464844 67.523438 " clip-rule="nonzero"/></clipPath></defs><g clip-path="url(#75859d4dbe)"><path fill="#12110f" d="M 112.441406 151.066406 C 91.175781 151.066406 73.875 133.765625 73.875 112.5 C 73.875 91.238281 91.175781 73.9375 112.441406 73.9375 C 133.707031 73.9375 151.003906 91.238281 151.003906 112.5 C 151.003906 133.765625 133.707031 151.066406 112.441406 151.066406 Z M 144.214844 80.726562 C 135.730469 72.238281 124.445312 67.566406 112.441406 67.566406 C 100.4375 67.566406 89.152344 72.238281 80.667969 80.726562 C 72.179688 89.214844 67.503906 100.5 67.503906 112.5 C 67.503906 124.503906 72.179688 135.789062 80.667969 144.277344 C 89.152344 152.761719 100.4375 157.4375 112.441406 157.4375 C 124.445312 157.4375 135.730469 152.761719 144.214844 144.277344 C 152.703125 135.789062 157.378906 124.503906 157.378906 112.5 C 157.378906 100.5 152.703125 89.214844 144.214844 80.726562 " fill-opacity="1" fill-rule="nonzero"/><path fill="#12110f" d="M 112.441406 73.976562 C 91.199219 73.976562 73.917969 91.257812 73.917969 112.5 C 73.917969 133.742188 91.199219 151.023438 112.441406 151.023438 C 133.683594 151.023438 150.964844 133.742188 150.964844 112.5 C 150.964844 91.257812 133.683594 73.976562 112.441406 73.976562 Z M 112.441406 151.105469 C 91.152344 151.105469 73.835938 133.789062 73.835938 112.5 C 73.835938 91.214844 91.152344 73.894531 112.441406 73.894531 C 133.726562 73.894531 151.046875 91.214844 151.046875 112.5 C 151.046875 133.789062 133.726562 151.105469 112.441406 151.105469 Z M 112.441406 67.605469 C 100.449219 67.605469 89.175781 72.273438 80.695312 80.753906 C 72.214844 89.234375 67.546875 100.507812 67.546875 112.5 C 67.546875 124.492188 72.214844 135.765625 80.695312 144.246094 C 89.175781 152.726562 100.449219 157.398438 112.441406 157.398438 C 124.433594 157.398438 135.707031 152.726562 144.1875 144.246094 C 152.667969 135.765625 157.335938 124.492188 157.335938 112.5 C 157.335938 100.507812 152.667969 89.234375 144.1875 80.753906 C 135.707031 72.273438 124.433594 67.605469 112.441406 67.605469 Z M 112.441406 157.476562 C 100.425781 157.476562 89.132812 152.800781 80.636719 144.304688 C 72.140625 135.808594 67.464844 124.515625 67.464844 112.5 C 67.464844 100.488281 72.140625 89.191406 80.636719 80.699219 C 89.132812 72.203125 100.425781 67.523438 112.441406 67.523438 C 124.453125 67.523438 135.75 72.203125 144.246094 80.699219 C 152.738281 89.191406 157.417969 100.488281 157.417969 112.5 C 157.417969 124.515625 152.738281 135.808594 144.246094 144.304688 C 135.75 152.800781 124.453125 157.476562 112.441406 157.476562 " fill-opacity="1" fill-rule="nonzero"/></g><path fill="#12110f" d="M 112.441406 93.546875 C 117.503906 93.546875 122.261719 95.519531 125.84375 99.097656 L 128.09375 101.351562 L 132.601562 96.847656 L 130.347656 94.59375 C 125.566406 89.808594 119.207031 87.175781 112.441406 87.175781 C 105.675781 87.175781 99.316406 89.808594 94.53125 94.59375 C 89.75 99.375 87.117188 105.738281 87.117188 112.5 C 87.117188 119.265625 89.75 125.625 94.53125 130.40625 C 99.316406 135.191406 105.675781 137.824219 112.441406 137.824219 C 119.203125 137.824219 125.566406 135.191406 130.347656 130.40625 L 132.601562 128.15625 L 128.09375 123.648438 L 125.84375 125.902344 C 122.261719 129.484375 117.503906 131.453125 112.441406 131.453125 C 107.378906 131.453125 102.617188 129.484375 99.039062 125.902344 C 95.460938 122.324219 93.488281 117.5625 93.488281 112.5 C 93.488281 107.4375 95.457031 102.679688 99.039062 99.097656 C 102.617188 95.519531 107.378906 93.546875 112.441406 93.546875 " fill-opacity="1" fill-rule="nonzero"/><path fill="#12110f" d="M 112.441406 87.21875 C 105.6875 87.21875 99.335938 89.847656 94.5625 94.621094 C 89.785156 99.398438 87.15625 105.746094 87.15625 112.5 C 87.15625 119.253906 89.785156 125.605469 94.5625 130.378906 C 99.335938 135.15625 105.6875 137.785156 112.441406 137.785156 C 119.195312 137.785156 125.542969 135.15625 130.320312 130.378906 L 132.542969 128.15625 L 128.09375 123.707031 L 125.871094 125.929688 C 122.285156 129.519531 117.515625 131.496094 112.441406 131.496094 C 107.367188 131.496094 102.597656 129.519531 99.011719 125.929688 C 95.421875 122.34375 93.445312 117.574219 93.445312 112.5 C 93.445312 107.425781 95.421875 102.65625 99.011719 99.070312 C 102.597656 95.480469 107.367188 93.507812 112.441406 93.507812 C 117.515625 93.507812 122.285156 95.480469 125.871094 99.070312 L 128.09375 101.292969 L 132.542969 96.847656 L 130.320312 94.621094 C 125.542969 89.847656 119.195312 87.21875 112.441406 87.21875 Z M 112.441406 137.867188 C 105.664062 137.867188 99.296875 135.226562 94.503906 130.4375 C 89.714844 125.644531 87.074219 119.277344 87.074219 112.5 C 87.074219 105.726562 89.714844 99.355469 94.503906 94.5625 C 99.292969 89.773438 105.664062 87.136719 112.441406 87.136719 C 119.214844 87.136719 125.585938 89.773438 130.378906 94.5625 L 132.660156 96.847656 L 128.09375 101.410156 L 125.8125 99.128906 C 122.242188 95.554688 117.492188 93.589844 112.441406 93.589844 C 107.390625 93.589844 102.640625 95.554688 99.066406 99.128906 C 95.496094 102.699219 93.527344 107.449219 93.527344 112.5 C 93.527344 117.550781 95.496094 122.300781 99.066406 125.875 C 102.640625 129.445312 107.390625 131.414062 112.441406 131.414062 C 117.492188 131.414062 122.242188 129.445312 125.8125 125.875 L 128.09375 123.59375 L 132.660156 128.15625 L 130.378906 130.4375 C 125.585938 135.226562 119.214844 137.867188 112.441406 137.867188 " fill-opacity="1" fill-rule="nonzero"/></svg>