<svg width="74" height="71" viewBox="0 0 74 71" fill="none" xmlns="http://www.w3.org/2000/svg">
<mask id="mask0_37_2315" style="mask-type:luminance" maskUnits="userSpaceOnUse" x="3" y="3" width="65" height="65">
<path d="M3.48363 3.59863H67.2022V67.1063H3.48363V3.59863Z" fill="white"/>
</mask>
<g mask="url(#mask0_37_2315)">
<path d="M67.2049 35.3525C67.2049 36.3931 67.1522 37.4283 67.0522 38.4634C66.9495 39.4985 66.7967 40.5281 66.5912 41.5466C66.3885 42.5679 66.1358 43.5753 65.8331 44.5689C65.5304 45.5653 65.1777 46.5423 64.7806 47.5027C64.3807 48.4631 63.9336 49.4041 63.4421 50.3202C62.9506 51.2363 62.4146 52.1275 61.8342 52.9938C61.2566 53.8573 60.6345 54.6932 59.9736 55.4958C59.3099 56.3012 58.6101 57.0707 57.8742 57.8041C57.1355 58.5403 56.3635 59.2378 55.5554 59.8965C54.75 60.558 53.9114 61.1752 53.045 61.7536C52.1785 62.3321 51.2843 62.8662 50.3624 63.3561C49.4432 63.846 48.5018 64.2888 47.5382 64.6874C46.5718 65.0859 45.5915 65.4374 44.5945 65.7391C43.5948 66.0408 42.584 66.2926 41.5592 66.4947C40.5373 66.6967 39.507 66.8517 38.4684 66.9514C37.4298 67.0538 36.3884 67.1063 35.3443 67.1063C34.3001 67.1063 33.2615 67.0538 32.2229 66.9514C31.1843 66.8517 30.1513 66.6967 29.1293 66.4947C28.1046 66.2926 27.0938 66.0408 26.0968 65.7391C25.0971 65.4374 24.1168 65.0859 23.1532 64.6874C22.1896 64.2888 21.2454 63.846 20.3262 63.3561C19.407 62.8662 18.5128 62.3321 17.6436 61.7536C16.7772 61.1752 15.9385 60.558 15.1332 59.8965C14.3251 59.2378 13.5531 58.5403 12.8172 57.8041C12.0785 57.0707 11.3787 56.3012 10.7178 55.4958C10.054 54.6932 9.43477 53.8573 8.85438 52.9938C8.27398 52.1275 7.73802 51.2363 7.24649 50.3202C6.75495 49.4041 6.31063 48.4631 5.91074 47.5027C5.51085 46.5423 5.16095 45.5653 4.85548 44.5689C4.55278 43.5753 4.30008 42.5679 4.09735 41.5466C3.89463 40.5281 3.73912 39.4985 3.63915 38.4634C3.5364 37.4283 3.48363 36.3931 3.48363 35.3525C3.48363 34.3118 3.5364 33.2739 3.63915 32.2388C3.73912 31.2037 3.89463 30.1769 4.09735 29.1584C4.30008 28.1371 4.55278 27.1296 4.85548 26.1333C5.16095 25.1397 5.51085 24.1627 5.91074 23.1995C6.31063 22.2391 6.75495 21.3009 7.24649 20.3848C7.73802 19.4659 8.27398 18.5747 8.85438 17.7111C9.43477 16.8476 10.054 16.0118 10.7178 15.2091C11.3787 14.4037 12.0785 13.6343 12.8172 12.8981C13.5531 12.1647 14.3251 11.4672 15.1332 10.8057C15.9385 10.147 16.7772 9.52705 17.6436 8.95137C18.5128 8.37292 19.407 7.83875 20.3262 7.34887C21.2454 6.85899 22.1896 6.41339 23.1532 6.01484C24.1168 5.61906 25.0971 5.26756 26.0968 4.96588C27.0938 4.6642 28.1046 4.41234 29.1293 4.2103C30.1513 4.00548 31.1843 3.85326 32.2229 3.75086C33.2615 3.65122 34.3001 3.59863 35.3443 3.59863C36.3884 3.59863 37.4298 3.65122 38.4684 3.75086C39.507 3.85326 40.5373 4.00548 41.5592 4.2103C42.584 4.41234 43.5948 4.6642 44.5945 4.96588C45.5915 5.26756 46.5718 5.61906 47.5382 6.01484C48.5018 6.41339 49.4432 6.85899 50.3624 7.34887C51.2843 7.83875 52.1785 8.37292 53.045 8.95137C53.9114 9.52705 54.75 10.147 55.5554 10.8057C56.3635 11.4672 57.1355 12.1647 57.8742 12.8981C58.6101 13.6343 59.3099 14.4037 59.9736 15.2091C60.6345 16.0118 61.2566 16.8476 61.8342 17.7111C62.4146 18.5747 62.9506 19.4659 63.4421 20.3848C63.9336 21.3009 64.3807 22.2391 64.7806 23.1995C65.1777 24.1627 65.5304 25.1397 65.8331 26.1333C66.1358 27.1296 66.3885 28.1371 66.5912 29.1584C66.7967 30.1769 66.9495 31.2037 67.0522 32.2388C67.1522 33.2739 67.2049 34.3118 67.2049 35.3525Z" fill="#E4383C"/>
</g>
<path d="M16.2579 23.7776C16.5828 23.5645 16.9716 23.4399 17.3881 23.4399H53.1116C53.5809 23.4399 54.0114 23.5949 54.3585 23.8606L35.261 34.1897L16.2579 23.7776ZM54.9167 46.1905C55.075 45.9026 55.1638 45.5705 55.1638 45.219V25.7344L43.3837 31.9949L54.9167 46.1905ZM15.3387 25.5932V45.219C15.3387 45.4017 15.3609 45.576 15.4053 45.7421L27.141 31.9949L15.3387 25.5932ZM41.5454 33.019L35.7636 36.2516C35.6081 36.3374 35.4359 36.3817 35.261 36.3817C35.0888 36.3817 34.9166 36.3374 34.7611 36.2516L28.9794 33.0217L16.8577 47.1951C17.0271 47.2394 17.2048 47.2643 17.3881 47.2643H53.1116C53.1255 47.2643 53.1394 47.2643 53.1505 47.2643L41.5454 33.019Z" fill="white"/>
</svg>
