<svg xmlns="http://www.w3.org/2000/svg" xmlns:xlink="http://www.w3.org/1999/xlink" width="300" zoomAndPan="magnify" viewBox="0 0 224.87999 233.04" height="300" preserveAspectRatio="xMidYMid meet" version="1.0"><defs><clipPath id="297adbb8dd"><path d="M 72 115 L 153 115 L 153 140.8125 L 72 140.8125 Z M 72 115 " clip-rule="nonzero"/></clipPath><clipPath id="fe81a21530"><path d="M 67.625 87 L 98 87 L 98 137 L 67.625 137 Z M 67.625 87 " clip-rule="nonzero"/></clipPath><clipPath id="a227b8afd7"><path d="M 72 83.300781 L 153 83.300781 L 153 117 L 72 117 Z M 72 83.300781 " clip-rule="nonzero"/></clipPath><clipPath id="c520916d86"><path d="M 127 87 L 157.253906 87 L 157.253906 137 L 127 137 Z M 127 87 " clip-rule="nonzero"/></clipPath></defs><g clip-path="url(#297adbb8dd)"><path fill="#000000" d="M 152.308594 139.726562 L 124.179688 116.371094 C 123.355469 115.6875 122.164062 115.6875 121.34375 116.371094 L 113.765625 122.664062 C 113.003906 123.296875 111.898438 123.296875 111.132812 122.664062 L 103.554688 116.371094 C 102.734375 115.6875 101.542969 115.6875 100.71875 116.371094 L 72.589844 139.726562 C 72.203125 140.046875 72.429688 140.679688 72.933594 140.679688 L 151.964844 140.679688 C 152.46875 140.679688 152.695312 140.046875 152.308594 139.726562 " fill-opacity="1" fill-rule="nonzero"/></g><g clip-path="url(#fe81a21530)"><path fill="#000000" d="M 97.207031 111.097656 L 68.519531 87.277344 C 68.167969 86.988281 67.636719 87.234375 67.636719 87.691406 L 67.636719 136.371094 C 67.636719 136.824219 68.167969 137.074219 68.519531 136.785156 L 97.207031 112.964844 C 97.789062 112.480469 97.789062 111.582031 97.207031 111.097656 " fill-opacity="1" fill-rule="nonzero"/></g><g clip-path="url(#a227b8afd7)"><path fill="#000000" d="M 72.589844 84.335938 L 111.375 116.539062 C 111.996094 117.054688 112.902344 117.054688 113.527344 116.539062 L 152.308594 84.335938 C 152.695312 84.015625 152.46875 83.382812 151.964844 83.382812 L 72.933594 83.382812 C 72.429688 83.382812 72.203125 84.015625 72.589844 84.335938 " fill-opacity="1" fill-rule="nonzero"/></g><g clip-path="url(#c520916d86)"><path fill="#000000" d="M 156.382812 87.277344 L 127.695312 111.097656 C 127.109375 111.582031 127.109375 112.480469 127.695312 112.964844 L 156.382812 136.785156 C 156.730469 137.074219 157.261719 136.828125 157.261719 136.371094 L 157.261719 87.691406 C 157.261719 87.234375 156.730469 86.988281 156.382812 87.277344 " fill-opacity="1" fill-rule="nonzero"/></g></svg>