<svg width="75" height="70" viewBox="0 0 75 70" fill="none" xmlns="http://www.w3.org/2000/svg">
<mask id="mask0_37_2291" style="mask-type:luminance" maskUnits="userSpaceOnUse" x="6" y="4" width="62" height="63">
<path d="M6.05797 4.47705H67.8699V66.1317H6.05797V4.47705Z" fill="white"/>
</mask>
<g mask="url(#mask0_37_2291)">
<path d="M67.8699 35.3057C67.8699 36.3134 67.8214 37.321 67.7217 38.326C67.622 39.3309 67.4739 40.3278 67.2772 41.3193C67.0806 42.3082 66.8327 43.2863 66.5391 44.2536C66.2454 45.2183 65.906 46.1695 65.5181 47.1019C65.1302 48.0343 64.6991 48.9452 64.2223 49.8373C63.7455 50.7267 63.2256 51.592 62.6625 52.4303C62.0995 53.2714 61.4988 54.0802 60.8549 54.8621C60.2138 55.6414 59.5349 56.3884 58.8183 57.1031C58.1017 57.8179 57.3528 58.495 56.5716 59.1346C55.7877 59.7741 54.9768 60.376 54.1363 60.9376C53.2931 61.4992 52.4257 62.0151 51.534 62.4934C50.6396 62.969 49.7263 63.3989 48.7916 63.7859C47.8568 64.1728 46.9058 64.5114 45.936 64.8043C44.9662 65.0972 43.9856 65.3444 42.9943 65.5405C42.0002 65.7367 41.0008 65.8845 39.9932 65.9839C38.9857 66.0833 37.9755 66.1317 36.9653 66.1317C35.9524 66.1317 34.9421 66.0833 33.9346 65.9839C32.9271 65.8845 31.9276 65.7367 30.9336 65.5405C29.9422 65.3444 28.9616 65.0972 27.9918 64.8043C27.0247 64.5114 26.0711 64.1728 25.1363 63.7859C24.2015 63.3989 23.2883 62.969 22.3939 62.4934C21.5022 62.0151 20.6347 61.4992 19.7942 60.9376C18.951 60.376 18.1402 59.7741 17.3563 59.1346C16.575 58.495 15.8261 57.8179 15.1095 57.1031C14.3929 56.3884 13.7141 55.6414 13.0729 54.8621C12.4318 54.0802 11.8283 53.2714 11.2653 52.4303C10.705 51.592 10.185 50.7267 9.70822 49.8373C9.22871 48.9452 8.79768 48.0343 8.40976 47.1019C8.02183 46.1695 7.6824 45.2183 7.38876 44.2536C7.09513 43.2863 6.84998 42.3082 6.65063 41.3193C6.45397 40.3278 6.30581 39.3309 6.20613 38.326C6.10646 37.321 6.05797 36.3134 6.05797 35.3057C6.05797 34.2954 6.10646 33.2877 6.20613 32.2828C6.30581 31.2778 6.45397 30.2809 6.65063 29.2894C6.84998 28.3005 7.09513 27.3224 7.38876 26.3551C7.6824 25.3904 8.02183 24.4392 8.40976 23.5068C8.79768 22.5744 9.22871 21.6635 9.70822 20.7714C10.185 19.882 10.705 19.0167 11.2653 18.1784C11.8283 17.3373 12.4318 16.5285 13.0729 15.7466C13.7141 14.9673 14.3929 14.2203 15.1095 13.5056C15.8261 12.7908 16.575 12.1137 17.3563 11.4742C18.1402 10.8346 18.951 10.2327 19.7942 9.67114C20.6347 9.11223 21.5022 8.59363 22.3939 8.11533C23.2883 7.63972 24.2015 7.20979 25.1363 6.82286C26.0711 6.43592 27.0247 6.09735 27.9918 5.80446C28.9616 5.51157 29.9422 5.26705 30.9336 5.0682C31.9276 4.87205 32.9271 4.72426 33.9346 4.62484C34.9421 4.52542 35.9524 4.47705 36.9653 4.47705C37.9755 4.47705 38.9857 4.52542 39.9932 4.62484C41.0008 4.72426 42.0002 4.87205 42.9943 5.0682C43.9856 5.26705 44.9662 5.51157 45.936 5.80446C46.9058 6.09735 47.8568 6.43592 48.7916 6.82286C49.7263 7.20979 50.6396 7.63972 51.534 8.11533C52.4257 8.59363 53.2931 9.11223 54.1363 9.67114C54.9768 10.2327 55.7877 10.8346 56.5716 11.4742C57.3528 12.1137 58.1017 12.7908 58.8183 13.5056C59.5349 14.2203 60.2138 14.9673 60.8549 15.7466C61.4988 16.5285 62.0995 17.3373 62.6625 18.1784C63.2256 19.0167 63.7455 19.882 64.2223 20.7714C64.6991 21.6635 65.1302 22.5744 65.5181 23.5068C65.906 24.4392 66.2454 25.3904 66.5391 26.3551C66.8327 27.3224 67.0806 28.3005 67.2772 29.2894C67.4739 30.2809 67.622 31.2778 67.7217 32.2828C67.8214 33.2877 67.8699 34.2954 67.8699 35.3057Z" fill="#E4383C"/>
</g>
<path fill-rule="evenodd" clip-rule="evenodd" d="M48.5814 54.9618H25.3706C20.896 54.9618 17.2808 51.3316 17.2808 46.8899V23.7409C17.2808 19.2777 20.896 15.6689 25.3706 15.6689H48.5814C53.0318 15.6689 56.6712 19.2777 56.6712 23.7409V46.8899C56.6712 51.3316 53.0318 54.9618 48.5814 54.9618ZM25.3706 18.1222C22.2646 18.1222 19.7377 20.6427 19.7377 23.7409V46.8899C19.7377 49.9908 22.2646 52.5112 25.3706 52.5112H48.5814C51.6875 52.5112 54.2144 49.9908 54.2144 46.8899V23.7409C54.2144 20.6427 51.6875 18.1222 48.5814 18.1222H25.3706Z" fill="#FFFFFE"/>
<path fill-rule="evenodd" clip-rule="evenodd" d="M36.9653 46.2662C30.912 46.2662 25.9983 41.3624 25.9983 35.3057C25.9983 29.2679 30.912 24.3667 36.9653 24.3667C43.04 24.3667 47.9537 29.2679 47.9537 35.3057C47.9537 41.3624 43.04 46.2662 36.9653 46.2662ZM36.9653 26.8173C32.2805 26.8173 28.4552 30.6329 28.4552 35.3057C28.4552 40 32.2805 43.8156 36.9653 43.8156C41.6715 43.8156 45.4969 40 45.4969 35.3057C45.4969 30.6329 41.6715 26.8173 36.9653 26.8173Z" fill="#FFFFFE"/>
<path fill-rule="evenodd" clip-rule="evenodd" d="M31.2137 37.2944C30.5187 37.2944 29.9853 36.7381 29.9853 36.0691C29.9853 31.8127 33.4632 28.3438 37.7303 28.3438C38.4011 28.3438 38.9588 28.8758 38.9588 29.569C38.9588 30.2408 38.4011 30.7943 37.7303 30.7943C34.8074 30.7943 32.4422 33.1536 32.4422 36.0691C32.4422 36.7381 31.8872 37.2944 31.2137 37.2944Z" fill="#FFFFFE"/>
<path fill-rule="evenodd" clip-rule="evenodd" d="M27.2268 36.5314H22.7522C22.0787 36.5314 21.5237 35.9994 21.5237 35.3061C21.5237 34.6343 22.0787 34.0781 22.7522 34.0781H27.2268C27.8975 34.0781 28.4552 34.6343 28.4552 35.3061C28.4552 35.9994 27.8975 36.5314 27.2268 36.5314Z" fill="#FFFFFE"/>
<path fill-rule="evenodd" clip-rule="evenodd" d="M51.0841 36.5314H46.7253C46.0518 36.5314 45.4969 35.9994 45.4969 35.3061C45.4969 34.6343 46.0518 34.0781 46.7253 34.0781H51.0841C51.7575 34.0781 52.3125 34.6343 52.3125 35.3061C52.3125 35.9994 51.7575 36.5314 51.0841 36.5314Z" fill="#FFFFFE"/>
<path fill-rule="evenodd" clip-rule="evenodd" d="M45.8902 50.708H28.0376C24.4439 50.708 21.5237 47.7926 21.5237 44.208V26.4009C21.5237 22.8163 24.4439 19.9009 28.0376 19.9009H45.8902C49.4839 19.9009 52.4068 22.8163 52.4068 26.4009V44.208C52.4068 47.7926 49.4839 50.708 45.8902 50.708ZM28.0376 22.3542C25.8125 22.3542 23.9806 24.1814 23.9806 26.4009V44.208C23.9806 46.4517 25.8125 48.2547 28.0376 48.2547H45.8902C48.1396 48.2547 49.9473 46.4517 49.9473 44.208V26.4009C49.9473 24.1814 48.1396 22.3542 45.8902 22.3542H28.0376Z" fill="#FFFFFE"/>
</svg>
