<svg width="84" height="76" viewBox="0 0 84 76" fill="none" xmlns="http://www.w3.org/2000/svg">
<path d="M75.3907 64.6006C75.9924 64.6036 76.4878 64.1214 76.4938 63.5208C76.4938 63.4966 76.4938 63.4693 76.4938 63.445C76.4938 62.626 75.9985 62.2378 74.9865 62.2378H73.3486V66.5176H73.9655V64.6522H74.7222L74.7404 64.6734L75.9134 66.5176H76.5728L75.3087 64.6097L75.3907 64.6006ZM74.6766 64.1699H73.9624V62.7231H74.8711C75.336 62.7231 75.8709 62.802 75.8709 63.4116C75.8709 64.1153 75.3299 64.1729 74.6735 64.1729" fill="#E4383C"/>
<mask id="mask0_37_2303" style="mask-type:luminance" maskUnits="userSpaceOnUse" x="9" y="9" width="60" height="60">
<path d="M9.10336 9.06934H68.4104V68.2188H9.10336V9.06934Z" fill="white"/>
</mask>
<g mask="url(#mask0_37_2303)">
<path d="M59.3241 59.2375H50.5903V45.5853C50.5903 42.3338 50.5326 38.142 46.0502 38.142C41.5678 38.142 40.8051 41.6877 40.8051 45.3518V59.2375H32.0744V31.1657H40.4587V35.0027H40.5741C42.285 32.0817 45.4637 30.3407 48.846 30.4651C57.6983 30.4651 59.3271 36.2766 59.3271 43.8352V59.2375H59.3241ZM22.2162 27.3288C19.4174 27.3288 17.1473 25.0661 17.1473 22.2725C17.1473 19.479 19.4143 17.2132 22.2131 17.2132C25.012 17.2132 27.282 19.476 27.282 22.2695C27.282 25.063 25.015 27.3288 22.2162 27.3288ZM26.5861 59.2375H17.8402V31.1657H26.5861V59.2375ZM63.6788 9.11472H13.452C11.0786 9.09045 9.13071 10.9892 9.10336 13.3581V63.6932C9.13071 66.0651 11.0756 67.9639 13.452 67.9396H63.6788C66.0583 67.97 68.0093 66.0682 68.0427 63.6932V13.3551C68.0093 10.9801 66.0583 9.08136 63.6788 9.11169" fill="#E4383C"/>
</g>
<mask id="mask1_37_2303" style="mask-type:luminance" maskUnits="userSpaceOnUse" x="70" y="59" width="9" height="10">
<path d="M70.7442 59.6777H78.8338V68.2252H70.7442V59.6777Z" fill="white"/>
</mask>
<g mask="url(#mask1_37_2303)">
<path d="M74.7495 60.333C72.5281 60.3542 70.7473 62.1681 70.7716 64.3823C70.7929 66.5995 72.6071 68.3769 74.8285 68.3557C77.0499 68.3345 78.8307 66.5206 78.8064 64.3064C78.7852 62.1195 77.0165 60.3512 74.8285 60.333H74.7495ZM74.7495 67.8977C72.8046 67.931 71.2001 66.3811 71.1666 64.4399C71.1332 62.4956 72.6891 60.8972 74.634 60.8638C76.5789 60.8304 78.1835 62.3804 78.2169 64.3216V64.3792C78.2564 66.281 76.7461 67.8522 74.8407 67.8946H74.7495" fill="#E4383C"/>
</g>
</svg>
