<svg width="215" height="210" viewBox="0 0 215 210" fill="none" xmlns="http://www.w3.org/2000/svg">
<g clip-path="url(#clip0_36_1967)">
<mask id="mask0_36_1967" style="mask-type:luminance" maskUnits="userSpaceOnUse" x="9" y="-25" width="186" height="172">
<path d="M194.294 -24.3921H9.89273V146.005H194.294V-24.3921Z" fill="white"/>
</mask>
<g mask="url(#mask0_36_1967)">
<path d="M38.7531 107.944C29.7364 107.944 23.2197 105.714 19.2113 101.245C15.2115 96.7684 13.2115 89.5569 13.2115 79.6066V69.8894H32.7363V82.269C32.7363 87.1997 34.3168 89.6628 37.482 89.6628C39.2531 89.6628 40.4861 89.1456 41.1768 88.1027C41.8632 87.064 42.2106 85.313 42.2106 82.8456C42.2106 79.615 41.825 76.9399 41.0581 74.8243C40.287 72.7003 39.3039 70.9239 38.1091 69.4994C36.9227 68.0664 34.7871 65.8491 31.7025 62.8517L23.1604 54.2878C16.525 47.8097 13.2115 40.6448 13.2115 32.7846C13.2115 24.3054 15.1522 17.8528 19.0419 13.4182C22.94 8.98781 28.6221 6.77051 36.0922 6.77051C45.0283 6.77051 51.4561 9.14044 55.3797 13.8761C59.3118 18.6159 61.2778 26.0352 61.2778 36.1423H41.0581L40.9395 29.3081C40.9395 27.9981 40.5708 26.9594 39.8378 26.1878C39.1133 25.4204 38.0963 25.0346 36.7871 25.0346C35.249 25.0346 34.0922 25.4586 33.3126 26.3065C32.5414 27.1544 32.1601 28.3161 32.1601 29.783C32.1601 33.0178 34.0117 36.3713 37.7192 39.8393L49.2612 50.93C51.9603 53.5543 54.1975 56.0429 55.9729 58.3917C57.744 60.7447 59.1677 63.5216 60.244 66.7182C61.3287 69.9191 61.871 73.7178 61.871 78.1142C61.871 87.8949 60.0745 95.31 56.4814 100.364C52.8967 105.417 46.9901 107.944 38.7531 107.944Z" fill="#E4383C"/>
<path d="M68.444 107.011V7.68604H108.189V26.8829H88.6637V46.1984H107.392V64.9204H88.6637V87.6954H109.46V107.011H68.444Z" fill="#E4383C"/>
<path d="M123.794 107.011L113.167 7.68604H132.574L138.116 70.364L143.675 7.68604H162.149L167.471 70.364L172.793 7.68604H192.436L181.572 107.011H157.759L152.793 59.1376L148.065 107.011H123.794Z" fill="#E4383C"/>
</g>
<mask id="mask1_36_1967" style="mask-type:luminance" maskUnits="userSpaceOnUse" x="9" y="102" width="187" height="72">
<path d="M195.378 102.592H9.89273V173.138H195.378V102.592Z" fill="white"/>
</mask>
<g mask="url(#mask1_36_1967)">
<path d="M27.7487 117.601V123.334H19.8845V133.117H27.4265V138.664H19.8845V149.839H28.2741V155.622H13.7321V117.601H27.7487Z" fill="#FFFFE8" stroke="black" stroke-width="2"/>
<path d="M38.2306 119V146.981C38.2306 148.303 38.355 149.424 38.6583 150.292V150.293C38.8381 150.814 39.148 151.275 39.6212 151.596C40.0888 151.913 40.6309 152.035 41.1798 152.035C41.7234 152.035 42.2619 151.916 42.7286 151.605C43.2017 151.291 43.5145 150.836 43.6983 150.318L43.6993 150.314C43.9998 149.459 44.129 148.327 44.129 146.981V119H49.9083V147.304C49.9083 150.84 49.129 153.331 47.7433 154.945L47.7413 154.947C46.3973 156.521 44.2806 157.395 41.1798 157.395C38.2726 157.395 36.222 156.627 34.8624 155.232L34.5997 154.945C33.2227 153.332 32.4513 150.841 32.4513 147.304V119H38.2306Z" fill="#FFFFE8" stroke="black" stroke-width="2"/>
<path d="M66.2761 117.601C68.0872 117.601 69.3364 118.018 70.1599 118.707L70.1658 118.713C71.0379 119.43 71.6642 120.468 71.9968 121.897V121.898C72.3457 123.39 72.53 125.35 72.53 127.793C72.53 129.986 72.2403 131.589 71.7419 132.68C71.28 133.674 70.486 134.382 69.2585 134.8L65.7859 135.981L69.3787 136.726C70.3373 136.924 70.9507 137.378 71.3347 138.065L71.3367 138.069C71.71 138.732 71.9543 139.665 72.0095 140.92L72.0212 141.479L71.9265 155.622H66.1062V140.97C66.1062 140.355 66.0478 139.788 65.8972 139.301C65.7482 138.819 65.4856 138.345 65.032 138.023H65.033C65.0271 138.019 65.0213 138.015 65.0154 138.011H65.0144C64.3039 137.506 63.2362 137.358 62.073 137.358H61.073V155.622H54.9714V117.601H66.2761ZM61.1238 132.422H64.0388C64.51 132.422 64.9631 132.291 65.3572 132.007C65.741 131.73 66.0131 131.35 66.2048 130.936C66.5765 130.132 66.7166 129.049 66.7166 127.793C66.7165 126.73 66.6669 125.865 66.5486 125.246H66.5496C66.4415 124.632 66.2126 123.977 65.6941 123.547V123.546L65.6873 123.541L65.4978 123.403C65.043 123.11 64.5084 123.012 63.988 123.012H61.1238V132.422Z" fill="#FFFFE8" stroke="black" stroke-width="2"/>
<path d="M85.7325 117.228C88.7711 117.228 90.9164 118.055 92.3458 119.562L92.3497 119.565C93.7907 121.069 94.5967 123.378 94.5967 126.674V145.718C94.5967 149.181 93.7873 151.697 92.3135 153.409L92.3116 153.412C90.8745 155.094 88.7405 155.995 85.7325 155.995C82.9019 155.995 80.838 155.196 79.3995 153.703L79.1202 153.395C77.6512 151.658 76.8516 149.143 76.8516 145.718V126.674C76.8516 123.375 77.6508 121.067 79.084 119.563C80.5216 118.056 82.68 117.228 85.7325 117.228ZM85.7667 122.588C84.8027 122.588 83.9697 122.978 83.4307 123.797C82.9399 124.543 82.7667 125.534 82.7667 126.623V146.142C82.7667 147.339 82.9067 148.392 83.2872 149.182V149.183C83.5061 149.644 83.8393 150.026 84.2911 150.284C84.7342 150.537 85.231 150.636 85.7325 150.636C86.2334 150.636 86.7323 150.525 87.17 150.242C87.612 149.956 87.9136 149.544 88.1016 149.075L88.1026 149.071C88.4153 148.283 88.546 147.266 88.546 146.091V126.521C88.546 125.585 88.4172 124.73 88.1055 124.018C87.9108 123.568 87.5985 123.19 87.1612 122.934C86.7328 122.683 86.2502 122.588 85.7667 122.588Z" fill="#FFFFE8" stroke="black" stroke-width="2"/>
<path d="M109.828 117.601C112.5 117.601 114.33 118.342 115.506 119.658L115.51 119.662C116.643 120.917 117.333 122.811 117.441 125.479L117.455 126.023L117.54 144.756V144.76C117.573 148.603 116.895 151.321 115.671 153.062L115.669 153.065C114.526 154.704 112.579 155.622 109.557 155.622H99.7947V117.601H109.828ZM105.862 150.533H108.252C109.129 150.533 109.972 150.319 110.591 149.715C111.214 149.106 111.438 148.269 111.438 147.396V126.759C111.438 125.834 111.362 125.038 111.172 124.438H111.17C110.962 123.762 110.534 123.202 109.852 122.907L109.844 122.903L109.625 122.822C109.098 122.649 108.448 122.588 107.744 122.588H105.862V150.533Z" fill="#FFFFE8" stroke="black" stroke-width="2"/>
<path d="M134.046 117.601C135.857 117.601 137.107 118.018 137.93 118.707L137.936 118.713C138.808 119.43 139.434 120.468 139.767 121.897V121.898C140.116 123.39 140.3 125.35 140.3 127.793C140.3 129.986 140.011 131.589 139.512 132.68C139.05 133.674 138.256 134.382 137.029 134.8L133.556 135.981L137.149 136.726C138.108 136.924 138.721 137.378 139.105 138.065L139.107 138.069C139.48 138.732 139.724 139.665 139.78 140.92L139.791 141.479L139.697 155.622H133.876V140.97C133.876 140.355 133.818 139.788 133.667 139.301C133.518 138.819 133.256 138.345 132.802 138.023H132.803C132.797 138.019 132.791 138.015 132.786 138.011H132.785C132.074 137.506 131.006 137.358 129.843 137.358H128.843V155.622H122.742V117.601H134.046ZM128.894 132.422H131.809C132.28 132.422 132.733 132.291 133.127 132.007C133.511 131.73 133.783 131.35 133.975 130.936C134.347 130.132 134.487 129.049 134.487 127.793C134.487 126.73 134.437 125.865 134.319 125.246H134.32C134.212 124.632 133.983 123.977 133.464 123.547V123.546L133.457 123.541L133.268 123.403C132.813 123.11 132.279 123.012 131.758 123.012H128.894V132.422Z" fill="#FFFFE8" stroke="black" stroke-width="2"/>
<path d="M150.299 117.601V155.622H144.571V117.601H150.299Z" fill="#FFFFE8" stroke="black" stroke-width="2"/>
<path d="M160.001 117.567L162.837 143.926L164.827 143.915L167.35 117.567H172.938L168.253 155.623H159.072L154.385 117.567H160.001Z" fill="#FFFFE8" stroke="black" stroke-width="2"/>
<path d="M191.356 117.601V123.334H183.492V133.117H191.034V138.664H183.492V149.839H191.881V155.622H177.339V117.601H191.356Z" fill="#FFFFE8" stroke="black" stroke-width="2"/>
</g>
<mask id="mask2_36_1967" style="mask-type:luminance" maskUnits="userSpaceOnUse" x="10" y="152" width="184" height="59">
<path d="M193.209 152.518H10.9774V210.04H193.209V152.518Z" fill="white"/>
</mask>
<g mask="url(#mask2_36_1967)">
<path d="M13.2573 196.956V164.04H26.4263V170.399H19.952V176.792H26.1552V182.999H19.952V190.562H26.8501V196.956H13.2573Z" fill="#E4383C"/>
<path d="M32.0564 196.956L28.0057 163.989H34.2767L36.7003 186.425L38.8358 163.989H45.1238L41.073 196.956H32.0564Z" fill="#E4383C"/>
<path d="M47.0053 196.956V164.04H60.1743V170.399H53.7V176.792H59.9032V182.999H53.7V190.562H60.5981V196.956H47.0053Z" fill="#E4383C"/>
<path d="M62.7876 164.04H72.9059C74.5075 164.04 75.7532 164.404 76.6346 165.125C77.5159 165.85 78.1091 166.872 78.4142 168.194C78.7193 169.509 78.8718 171.187 78.8718 173.231C78.8718 175.096 78.626 176.555 78.143 177.606C77.6557 178.649 76.8125 179.378 75.6177 179.794C76.6092 179.997 77.3295 180.498 77.7701 181.286C78.2193 182.079 78.4481 183.152 78.4481 184.508L78.3803 196.956H71.9398V184.084C71.9398 183.16 71.7576 182.571 71.3975 182.321C71.0458 182.062 70.3975 181.931 69.4484 181.931V196.956H62.7876V164.04ZM71.0585 176.216C71.9737 176.216 72.4313 175.224 72.4313 173.231C72.4313 172.362 72.3889 171.713 72.3127 171.281C72.2449 170.84 72.1093 170.543 71.9059 170.382C71.7025 170.212 71.4059 170.128 71.0246 170.128H69.4823V176.216H71.0585Z" fill="#E4383C"/>
<path d="M85.0427 196.956V186.102L79.7886 164.04H86.2969L88.1443 175.181L89.9747 164.04H96.4999L91.2459 186.102V196.956H85.0427Z" fill="#E4383C"/>
<path d="M100.704 196.956L97.1783 164.04H103.619L105.466 184.814L107.297 164.04H113.432L115.195 184.814L116.957 164.04H123.466L119.856 196.956H111.974L110.33 181.083L108.754 196.956H100.704Z" fill="#E4383C"/>
<path d="M125.419 196.956V164.04H131.961V175.792H135.062V164.04H141.622V196.956H135.062V182.015H131.961V196.956H125.419Z" fill="#E4383C"/>
<path d="M144.534 196.956V164.04H157.703V170.399H151.228V176.792H157.431V182.999H151.228V190.562H158.126V196.956H144.534Z" fill="#E4383C"/>
<path d="M160.316 164.04H170.434C172.036 164.04 173.282 164.404 174.163 165.125C175.044 165.85 175.637 166.872 175.942 168.194C176.248 169.509 176.4 171.187 176.4 173.231C176.4 175.096 176.154 176.555 175.671 177.606C175.184 178.649 174.341 179.378 173.146 179.794C174.137 179.997 174.858 180.498 175.298 181.286C175.748 182.079 175.976 183.152 175.976 184.508L175.909 196.956H169.468V184.084C169.468 183.16 169.286 182.571 168.926 182.321C168.574 182.062 167.926 181.931 166.977 181.931V196.956H160.316V164.04ZM168.587 176.216C169.502 176.216 169.96 175.224 169.96 173.231C169.96 172.362 169.917 171.713 169.841 171.281C169.773 170.84 169.638 170.543 169.434 170.382C169.231 170.212 168.934 170.128 168.553 170.128H167.011V176.216H168.587Z" fill="#E4383C"/>
<mask id="mask3_36_1967" style="mask-type:luminance" maskUnits="userSpaceOnUse" x="178" y="163" width="16" height="35">
<path d="M178.023 163.371H193.158V197.016H178.023V163.371Z" fill="white"/>
</mask>
<g mask="url(#mask3_36_1967)">
<path d="M178.588 196.956V164.04H191.757V170.399H185.283V176.792H191.486V182.999H185.283V190.562H192.181V196.956H178.588Z" fill="#E4383C"/>
</g>
</g>
</g>
<defs>
<clipPath id="clip0_36_1967">
<rect width="215" height="210" fill="white"/>
</clipPath>
</defs>
</svg>
