<svg xmlns="http://www.w3.org/2000/svg" xmlns:xlink="http://www.w3.org/1999/xlink" width="300" zoomAndPan="magnify" viewBox="0 0 224.87999 225" height="300" preserveAspectRatio="xMidYMid meet" version="1.0"><defs><clipPath id="d5fd7db8d1"><path d="M 67.464844 81.355469 L 157 81.355469 L 157 143 L 67.464844 143 Z M 67.464844 81.355469 " clip-rule="nonzero"/></clipPath></defs><g clip-path="url(#d5fd7db8d1)"><path fill="#000000" d="M 156.671875 113.425781 C 157.027344 112.554688 157.027344 111.683594 156.671875 110.816406 C 156.492188 110.394531 156.246094 110.023438 155.925781 109.699219 L 128.546875 82.351562 C 128.222656 82.03125 127.855469 81.785156 127.433594 81.613281 C 127.015625 81.4375 126.578125 81.351562 126.125 81.351562 C 125.667969 81.351562 125.230469 81.4375 124.8125 81.613281 C 124.394531 81.785156 124.023438 82.035156 123.703125 82.355469 C 123.378906 82.675781 123.132812 83.046875 122.957031 83.464844 C 122.785156 83.882812 122.699219 84.320312 122.699219 84.773438 C 122.699219 85.226562 122.785156 85.664062 122.957031 86.082031 C 123.132812 86.5 123.378906 86.871094 123.699219 87.191406 L 145.246094 108.703125 L 71.371094 108.703125 C 70.917969 108.703125 70.480469 108.789062 70.0625 108.960938 C 69.644531 109.136719 69.273438 109.382812 68.953125 109.703125 C 68.628906 110.023438 68.382812 110.394531 68.210938 110.8125 C 68.035156 111.230469 67.949219 111.667969 67.949219 112.121094 C 67.949219 112.574219 68.035156 113.011719 68.210938 113.429688 C 68.382812 113.847656 68.628906 114.21875 68.953125 114.539062 C 69.273438 114.859375 69.644531 115.105469 70.0625 115.277344 C 70.480469 115.453125 70.917969 115.539062 71.371094 115.539062 L 145.246094 115.539062 L 123.707031 137.046875 C 123.386719 137.371094 123.136719 137.738281 122.964844 138.160156 C 122.792969 138.578125 122.703125 139.015625 122.703125 139.46875 C 122.703125 139.921875 122.792969 140.359375 122.964844 140.777344 C 123.140625 141.195312 123.386719 141.566406 123.707031 141.886719 C 124.03125 142.207031 124.398438 142.457031 124.820312 142.628906 C 125.238281 142.800781 125.675781 142.890625 126.128906 142.890625 C 126.585938 142.890625 127.019531 142.804688 127.441406 142.628906 C 127.859375 142.457031 128.230469 142.210938 128.550781 141.890625 L 155.929688 114.539062 C 156.25 114.21875 156.496094 113.84375 156.671875 113.425781 Z M 156.671875 113.425781 " fill-opacity="1" fill-rule="nonzero"/></g></svg>