<svg xmlns="http://www.w3.org/2000/svg" xmlns:xlink="http://www.w3.org/1999/xlink" width="300" zoomAndPan="magnify" viewBox="0 0 224.87999 225" height="300" preserveAspectRatio="xMidYMid meet" version="1.0"><defs><clipPath id="978b01c03f"><path d="M 67.464844 108.453125 L 157 108.453125 L 157 116.699219 L 67.464844 116.699219 Z M 67.464844 108.453125 " clip-rule="nonzero"/></clipPath><clipPath id="f6486e111a"><path d="M 67.464844 112.5 C 67.464844 114.734375 69.277344 116.546875 71.511719 116.546875 L 153.367188 116.546875 C 154.441406 116.546875 155.472656 116.121094 156.230469 115.363281 C 156.988281 114.601562 157.414062 113.574219 157.414062 112.5 C 157.414062 111.425781 156.988281 110.398438 156.230469 109.636719 C 155.472656 108.878906 154.441406 108.453125 153.367188 108.453125 L 71.511719 108.453125 C 69.277344 108.453125 67.464844 110.265625 67.464844 112.5 Z M 67.464844 112.5 " clip-rule="nonzero"/></clipPath></defs><g clip-path="url(#978b01c03f)"><g clip-path="url(#f6486e111a)"><path fill="#000000" d="M 67.753906 108.179688 L 156.953125 108.179688 L 156.953125 116.097656 L 67.753906 116.097656 Z M 67.753906 108.179688 " fill-opacity="1" fill-rule="nonzero"/></g></g></svg>