<svg xmlns="http://www.w3.org/2000/svg" xmlns:xlink="http://www.w3.org/1999/xlink" width="300" zoomAndPan="magnify" viewBox="0 0 224.87999 233.04" height="300" preserveAspectRatio="xMidYMid meet" version="1.0"><defs><clipPath id="b5cbf30fa7"><path d="M 65.441406 67.222656 L 154.324219 67.222656 L 154.324219 156.855469 L 65.441406 156.855469 Z M 65.441406 67.222656 " clip-rule="nonzero"/></clipPath></defs><g clip-path="url(#b5cbf30fa7)"><path fill="#000000" d="M 141.585938 80.285156 C 133.207031 71.894531 122.066406 67.269531 110.195312 67.269531 C 85.730469 67.269531 65.824219 87.175781 65.8125 111.644531 C 65.8125 119.464844 67.855469 127.101562 71.738281 133.828125 L 65.441406 156.824219 L 88.96875 150.652344 C 95.453125 154.191406 102.75 156.050781 110.175781 156.054688 L 110.195312 156.054688 C 134.652344 156.054688 154.566406 136.144531 154.570312 111.679688 C 154.570312 99.820312 149.964844 88.675781 141.582031 80.285156 Z M 110.195312 148.5625 L 110.179688 148.5625 C 103.566406 148.5625 97.070312 146.78125 91.40625 143.421875 L 90.058594 142.621094 L 76.097656 146.28125 L 79.820312 132.667969 L 78.945312 131.273438 C 75.25 125.402344 73.300781 118.613281 73.308594 111.644531 C 73.316406 91.308594 89.863281 74.761719 110.207031 74.761719 C 120.058594 74.761719 129.320312 78.605469 136.285156 85.578125 C 143.25 92.550781 147.082031 101.816406 147.078125 111.675781 C 147.066406 132.015625 130.519531 148.5625 110.191406 148.5625 Z M 130.425781 120.9375 C 129.320312 120.386719 123.867188 117.703125 122.851562 117.335938 C 121.832031 116.960938 121.097656 116.78125 120.355469 117.886719 C 119.617188 119 117.492188 121.496094 116.84375 122.238281 C 116.199219 122.976562 115.550781 123.070312 114.441406 122.511719 C 113.332031 121.957031 109.761719 120.785156 105.523438 117.007812 C 102.226562 114.066406 100 110.433594 99.355469 109.324219 C 98.707031 108.210938 99.289062 107.613281 99.839844 107.0625 C 100.335938 106.566406 100.949219 105.761719 101.503906 105.117188 C 102.058594 104.46875 102.246094 104.003906 102.613281 103.265625 C 102.984375 102.527344 102.796875 101.878906 102.519531 101.320312 C 102.242188 100.769531 100.027344 95.308594 99.101562 93.089844 C 98.203125 90.929688 97.285156 91.222656 96.609375 91.1875 C 95.960938 91.15625 95.222656 91.144531 94.484375 91.144531 C 93.742188 91.144531 92.542969 91.421875 91.523438 92.53125 C 90.507812 93.644531 87.644531 96.328125 87.644531 101.78125 C 87.644531 107.238281 91.617188 112.511719 92.175781 113.257812 C 92.730469 113.996094 99.996094 125.195312 111.121094 130 C 113.761719 131.140625 115.832031 131.824219 117.441406 132.335938 C 120.101562 133.183594 122.519531 133.0625 124.425781 132.777344 C 126.554688 132.457031 130.984375 130.09375 131.910156 127.5 C 132.835938 124.910156 132.835938 122.691406 132.554688 122.226562 C 132.277344 121.761719 131.539062 121.488281 130.429688 120.929688 Z M 130.425781 120.9375 " fill-opacity="1" fill-rule="evenodd"/></g></svg>