<svg width="31" height="33" viewBox="0 0 31 33" fill="none" xmlns="http://www.w3.org/2000/svg">
<g clip-path="url(#clip0_29_24)">
<path d="M30.445 14.3203C29.4092 10.906 26.8737 7.5203 23.8389 5.62831C19.8202 3.22206 13.3933 2.10351 9.74548 5.69515C17.9525 2.34631 26.1595 5.56283 29.494 13.8742C30.9389 18.2202 29.8525 24.1799 26.9942 27.7429C25.0498 30.0346 22.2968 31.7015 19.2729 31.9757C14.7261 32.8419 10.5678 31.7629 6.8447 29.0538C3.44176 26.5766 1.81897 22.1951 2.21167 18.0701C2.35397 15.6448 2.86982 13.1908 4.08896 11.0683C4.84289 9.74512 5.81301 8.52699 6.96785 7.5353C7.75188 6.80006 8.94776 6.2517 9.55529 5.38686C8.23625 5.84793 6.8748 6.29944 5.89511 7.37843C2.50448 10.7054 1.28123 15.7076 1.50152 20.34C1.79708 24.169 3.72773 27.9884 6.99384 30.1041C11.1671 32.936 15.6455 33.5143 20.529 32.6481C22.0245 32.4203 23.4325 31.7888 24.6886 30.9621C27.5743 29.0988 29.6117 26.0732 30.341 22.7285C30.9718 19.9785 31.2112 17.0798 30.445 14.3203Z" fill="black"/>
<path d="M14.5605 18.4875C14.4975 18.6703 14.3224 18.8572 14.4743 19.0523C14.3498 19.4751 15.0572 19.7643 15.2802 20.093C15.3007 20.269 15.4704 20.4245 15.6469 20.43C17.3025 21.8241 19.0567 23.0845 20.8054 24.3599C21.3636 24.7664 21.9205 25.1743 22.4829 25.5753C22.7825 25.7063 23.0986 25.5726 23.4571 25.5685C23.4858 25.4335 23.4147 25.353 23.3586 25.2452C23.3285 25.0488 23.3695 24.6996 23.1465 24.6177C23.063 24.5904 23.0015 24.5359 22.944 24.4827L22.2038 23.7856C21.3554 22.7421 20.4373 21.7463 19.4672 20.8037C18.7447 20.1272 18.3301 19.1955 17.5981 18.5243C17.5228 17.0961 17.1493 15.7075 16.9523 14.2943C16.8496 13.6968 16.7484 13.0966 16.6389 12.4992C16.4939 12.2209 16.1723 12.1063 15.9452 11.8567C15.7523 11.9181 15.714 12.079 15.5785 12.2032C15.3623 12.3682 15.5183 12.596 15.4772 12.8088L15.3527 13.9574C15.3076 14.3857 15.1913 14.8045 14.9792 15.1851C14.8451 15.4511 14.5851 15.8153 14.9368 16.0363C14.9039 16.365 14.8328 16.6869 14.7671 17.0102C14.6836 17.1507 14.5851 17.3158 14.6877 17.474C14.6467 17.8123 14.6097 18.1506 14.5605 18.4875ZM16.0807 14.4498C16.0889 14.4989 16.0984 14.5494 16.108 14.5999C16.0697 14.6176 16.0314 14.6381 15.9945 14.6572C16.0259 14.589 16.0547 14.5194 16.0807 14.4498ZM16.2873 15.3174C16.3146 15.4156 16.342 15.5138 16.3639 15.6134C16.3529 15.6257 16.3406 15.6379 16.3283 15.6489L16.1915 15.5479C16.0724 15.7389 16.0068 15.9721 15.8398 16.1276C15.9876 15.8562 16.1368 15.5861 16.2873 15.3174ZM17.828 20.1258C17.7828 20.1735 17.7377 20.2226 17.6925 20.2704C17.7048 20.1858 17.7185 20.1026 17.7308 20.0194C17.7637 20.0549 17.7965 20.0903 17.828 20.1258ZM16.7333 18.5912C16.7169 18.6062 16.7019 18.6212 16.6854 18.6362C16.7005 18.6076 16.7142 18.5789 16.7292 18.5503C16.7306 18.5639 16.732 18.5775 16.7333 18.5912ZM16.383 19.8898C16.4145 19.8598 16.4474 19.8298 16.4775 19.7984C16.4665 19.8461 16.4556 19.8939 16.4446 19.9403C16.4241 19.9239 16.4036 19.9062 16.383 19.8898ZM20.9531 23.3396C20.9614 23.36 20.9696 23.3791 20.9791 23.3982C20.9244 23.3614 20.8697 23.3273 20.8149 23.2932C20.8382 23.2809 20.8615 23.2686 20.8861 23.2577C20.908 23.285 20.9312 23.3123 20.9531 23.3396ZM16.5486 16.5341C16.5486 16.5382 16.55 16.541 16.55 16.5437C16.3256 16.6023 16.1628 16.912 15.9986 17.0607C16.1532 16.7879 16.2558 16.4769 16.4994 16.2668C16.5171 16.3568 16.5336 16.4455 16.5486 16.5341Z" fill="black"/>
<path d="M15.8111 7.54073C15.8056 7.75762 15.8685 7.83265 15.885 7.98542C15.8754 8.15048 15.8206 8.18595 15.8234 8.42875C15.8152 8.98803 16.6964 8.98939 16.6881 8.42875C16.7593 8.13002 16.7716 7.84629 16.6758 7.54073C16.7073 7.25018 16.7141 6.96236 16.7005 6.65408C16.7005 6.429 16.6922 6.42764 16.6922 6.21075C16.7333 6.00204 16.788 5.62283 16.6977 5.41958C16.7319 4.79755 15.8658 4.6857 15.8179 5.32409C15.8124 5.54098 15.8713 5.60918 15.8863 5.76742C15.8754 5.93384 15.822 5.99522 15.8275 6.20938C15.8371 6.70182 15.8576 7.04557 15.8111 7.54073Z" fill="black"/>
<path d="M24.8473 8.71649C24.6379 8.9593 24.5299 9.09298 24.3191 9.31123C24.133 9.47492 23.9073 9.70409 23.8047 9.91689C23.5461 10.2006 23.2204 10.4434 22.9536 10.7503C22.5622 11.2346 23.2396 11.9316 23.8539 11.0586C24.1262 10.8322 24.4943 10.5034 24.6598 10.1829C24.8966 9.96054 25.1784 9.67681 25.3768 9.42855C25.8927 9.02478 25.359 8.27044 24.8473 8.71649Z" fill="black"/>
<path d="M26.4441 19.0958C26.7547 19.089 26.949 19.1354 27.2869 19.1627C27.9998 19.1531 28.6908 19.1586 29.3955 19.1272C29.9551 19.1354 29.9565 18.2542 29.3955 18.2624C29.0342 18.2542 28.6908 18.3033 28.3542 18.2937C28.0094 18.2842 27.6386 18.2897 27.2869 18.2965C27.0133 18.2474 26.7519 18.2337 26.4441 18.231C25.8844 18.2242 25.8817 19.104 26.4441 19.0958Z" fill="black"/>
<path d="M16.5924 28.9188C16.9604 28.1781 15.8973 27.7252 15.7837 28.6118C15.6017 29.1084 15.8343 29.7809 15.7769 30.2842C15.6989 30.4929 15.7208 30.7862 15.7112 31.0345C15.6961 31.5937 16.5759 31.606 16.5746 31.044C16.5773 30.8394 16.5828 30.8394 16.5842 30.6307C16.6019 30.4902 16.658 30.4193 16.6553 30.2174C16.658 29.7454 16.5568 29.3594 16.5924 28.9188Z" fill="black"/>
<path d="M6.7831 27.9679C7.10054 27.972 7.38104 27.4904 7.66154 27.2913C8.05698 26.9503 8.43189 26.5274 8.79038 26.1591C9.65788 25.6094 9.00657 24.8605 8.48389 25.2765C8.27864 25.4498 8.09392 25.6271 7.9051 25.829C7.59313 26.1796 7.27432 26.481 6.93088 26.7893C6.78584 26.9107 6.62575 27.0853 6.48071 27.2285C6.20158 27.4836 6.41229 27.9815 6.7831 27.9679Z" fill="black"/>
<path d="M6.70237 18.5721C6.64901 17.826 5.27388 18.0865 4.78266 18.1302C4.58152 18.1697 4.51174 18.1015 4.27092 18.107C3.92885 18.1342 3.78928 18.1533 3.47047 18.1411C2.41826 17.9583 2.44425 18.9459 3.07093 18.995C3.45952 19.0059 3.89327 19.0264 4.26955 18.9718C4.71835 19.0564 5.27935 18.9254 5.70763 18.9186C5.90466 18.8749 6.01002 19.0141 6.26999 19.0045C6.50808 19.0045 6.70237 18.8108 6.70237 18.5721Z" fill="black"/>
<path d="M9.34316 10.6946C9.10371 10.52 8.97919 10.3672 8.79721 10.1258C8.62754 9.97434 8.45924 9.86385 8.3101 9.7179C8.09117 9.51328 7.93929 9.21455 7.69847 9.01403C7.57122 8.89262 7.5849 8.71802 7.41113 8.63208C7.17442 8.49295 6.94181 8.58434 6.82687 8.7262C6.48343 9.27184 7.15937 9.59104 7.39061 9.96616C7.55754 10.2676 7.92013 10.5268 8.18148 10.7328C8.30462 10.9401 8.53039 11.1761 8.73153 11.3057C8.87794 11.4503 8.84647 11.4517 8.99698 11.6003C9.38831 12.0014 10.0109 11.378 9.60587 10.9879C9.48546 10.8637 9.49777 10.846 9.34316 10.6946Z" fill="black"/>
<path d="M25.7763 27.4932C25.2851 27.0103 24.8432 26.5643 24.4217 26.0187C24.0988 25.3816 23.1916 25.7936 23.6254 26.4142C23.7567 26.5575 23.7472 26.5752 23.8963 26.7348C24.3041 27.2832 24.85 27.7892 25.3344 28.2626C25.9296 28.7427 26.4016 27.8534 25.7763 27.4932Z" fill="black"/>
</g>
<defs>
<clipPath id="clip0_29_24">
<rect width="31" height="33" fill="white"/>
</clipPath>
</defs>
</svg>
