<svg width="117" height="118" viewBox="0 0 117 118" fill="none" xmlns="http://www.w3.org/2000/svg">
<g clip-path="url(#clip0_20_1112)">
<g filter="url(#filter0_d_20_1112)">
<mask id="mask0_20_1112" style="mask-type:luminance" maskUnits="userSpaceOnUse" x="0" y="-1" width="117" height="119">
<path d="M0.345261 -0.42865H116.241V117.645H0.345261V-0.42865Z" fill="white"/>
</mask>
<g mask="url(#mask0_20_1112)">
<path fill-rule="evenodd" clip-rule="evenodd" d="M58.4285 27.499C60.2188 27.499 61.8506 28.2288 63.0349 29.4076V29.417C64.2191 30.5958 64.9464 32.2331 64.9464 34.0295C64.9464 35.8259 64.2191 37.4538 63.0349 38.642V38.6514C61.8506 39.8303 60.2188 40.56 58.4285 40.56C56.6382 40.56 55.0157 39.8303 53.8314 38.642V38.6514C52.6472 37.4632 51.9199 35.8352 51.9199 34.0295C51.9199 32.2238 52.6472 30.5865 53.8314 29.4076C55.0157 28.2288 56.6382 27.499 58.4285 27.499ZM56.9645 17.1699L11.0407 45.9023H6.39701C5.59509 45.9023 4.93304 46.5666 4.93304 47.3806V50.9265C4.93304 52.3019 5.49252 53.5556 6.40634 54.4631V54.4725H6.41566C7.32015 55.38 8.56965 55.9507 9.94038 55.9507H12.4767V57.5506C12.4767 58.795 12.9895 59.927 13.8101 60.7504C14.6307 61.5737 15.7589 62.0883 17.0084 62.0883H18.3139V94.0018H17.0084C15.7589 94.0018 14.6307 94.5164 13.8101 95.3397C12.9895 96.1537 12.4767 97.2951 12.4767 98.5395V100.139H9.94038C8.56033 100.139 7.31083 100.71 6.40634 101.618C6.36904 101.646 6.34107 101.683 6.31309 101.711C5.46455 102.619 4.93304 103.835 4.93304 105.164V107.259C3.72084 107.362 2.62054 107.896 1.80929 108.719C1.78132 108.747 1.74402 108.784 1.71604 108.812C0.867502 109.72 0.335999 110.936 0.335999 112.265V115.811C0.335999 116.625 0.998047 117.289 1.80929 117.289H115.057C115.868 117.289 116.521 116.625 116.521 115.811V112.265C116.521 110.889 115.962 109.636 115.057 108.719C114.236 107.896 113.145 107.362 111.933 107.259V105.164C111.933 103.788 111.364 102.534 110.46 101.618H110.451C109.546 100.701 108.297 100.139 106.926 100.139H104.39V98.5395C104.39 97.2951 103.877 96.1537 103.056 95.3397C102.236 94.5164 101.107 94.0018 99.8578 94.0018H98.5524V62.0883H99.8578C101.107 62.0883 102.236 61.5737 103.056 60.7504C103.877 59.927 104.39 58.795 104.39 57.5506V55.9507H106.926C108.297 55.9507 109.546 55.38 110.46 54.4725V54.4631C111.374 53.5556 111.933 52.3019 111.933 50.9265V47.3806C111.933 46.5666 111.271 45.9023 110.469 45.9023H105.826L59.9018 17.1699V11.6124H72.2942C73.0961 11.6124 73.7582 10.9575 73.7582 10.1435C73.7582 9.69442 73.553 9.29211 73.236 9.02078L69.8139 5.60583L73.3199 2.11602C73.8887 1.5453 73.8981 0.609696 73.3293 0.0389775C73.0402 -0.251061 72.6672 -0.391401 72.2942 -0.391401V-0.400757H58.4285C57.6266 -0.400757 56.9645 0.263524 56.9645 1.06814V17.1699ZM59.9018 8.67461V2.5464H68.7415L66.7088 4.56731V4.57666C66.14 5.14738 66.14 6.07363 66.7088 6.64435L68.7415 8.67461H59.9018ZM58.4285 19.7147L16.5702 45.9023H100.296L58.4285 19.7147ZM9.94038 53.0036C9.36225 53.0036 8.84939 52.779 8.47641 52.4048L8.46708 52.3954C8.0941 52.0212 7.86098 51.4972 7.86098 50.9265V48.8495H108.996V50.9265C108.996 51.4972 108.772 52.0212 108.399 52.3954L108.39 52.4048C108.017 52.779 107.495 53.0036 106.926 53.0036H9.94038ZM79.5301 55.9507V57.5506C79.5301 58.795 80.043 59.927 80.8542 60.7504C81.6748 61.5737 82.8124 62.0883 84.0526 62.0883H85.3674V94.0018H84.0526C82.8124 94.0018 81.6748 94.5164 80.8542 95.3397C80.043 96.1537 79.5301 97.2951 79.5301 98.5395V100.139H70.8582V98.5395C70.8582 97.2951 70.3547 96.1537 69.5341 95.3397C68.7136 94.5164 67.5853 94.0018 66.3358 94.0018H65.021V62.0883H66.3358C67.5853 62.0883 68.7136 61.5737 69.5341 60.7504C70.3547 59.927 70.8582 58.795 70.8582 57.5506V55.9507H79.5301ZM46.0081 55.9507V57.5506C46.0081 58.795 46.5116 59.927 47.3322 60.7504C48.1527 61.5737 49.281 62.0883 50.5305 62.0883H51.8453V94.0018H50.5305C49.281 94.0018 48.1527 94.5164 47.3322 95.3397C46.5116 96.1537 46.0081 97.2951 46.0081 98.5395V100.139H37.3362V98.5395C37.3362 97.2951 36.8233 96.1537 36.0027 95.3397C35.1915 94.5164 34.0539 94.0018 32.8137 94.0018H31.4989V62.0883H32.8137C34.0539 62.0883 35.1915 61.5737 36.0027 60.7504C36.8233 59.927 37.3362 58.795 37.3362 57.5506V55.9507H46.0081ZM28.571 94.0018H21.2512V62.0883H28.571V94.0018ZM17.0084 59.1411C16.5702 59.1411 16.1692 58.9634 15.8802 58.6733C15.5911 58.3833 15.4139 57.981 15.4139 57.5506V55.9507H34.4082V57.5506C34.4082 57.981 34.2217 58.3833 33.9327 58.6733C33.6436 58.9634 33.252 59.1411 32.8137 59.1411H17.0084ZM32.8137 96.9489C33.252 96.9489 33.6436 97.1267 33.9327 97.4167C34.2217 97.7068 34.4082 98.1091 34.4082 98.5395V100.139H15.4139V98.5395C15.4139 98.1091 15.5911 97.7068 15.8802 97.4167C16.1692 97.1267 16.5702 96.9489 17.0084 96.9489H32.8137ZM95.6151 94.0018H88.2953V62.0883H95.6151V94.0018ZM84.0526 59.1411C83.6143 59.1411 83.2227 58.9634 82.9336 58.6733C82.6446 58.3833 82.4581 57.981 82.4581 57.5506V55.9507H101.452V57.5506C101.452 57.981 101.275 58.3833 100.986 58.6733C100.697 58.9634 100.296 59.1411 99.8578 59.1411H84.0526ZM99.8578 96.9489C100.296 96.9489 100.697 97.1267 100.986 97.4167C101.275 97.7068 101.452 98.1091 101.452 98.5395V100.139H82.4581V98.5395C82.4581 98.1091 82.6446 97.7068 82.9336 97.4167C83.2227 97.1267 83.6143 96.9489 84.0526 96.9489H99.8578ZM62.0931 94.0018H54.7732V62.0883H62.0931V94.0018ZM50.5305 59.1411C50.0923 59.1411 49.6913 58.9634 49.4022 58.6733C49.1132 58.3833 48.936 57.981 48.936 57.5506V55.9507H67.9303V57.5506C67.9303 57.981 67.7531 58.3833 67.4641 58.6733C67.175 58.9634 66.774 59.1411 66.3358 59.1411H50.5305ZM66.3358 96.9489C66.774 96.9489 67.175 97.1267 67.4641 97.4167C67.7531 97.7068 67.9303 98.1091 67.9303 98.5395V100.139H48.936V98.5395C48.936 98.1091 49.1132 97.7068 49.4022 97.4167C49.6913 97.1267 50.0923 96.9489 50.5305 96.9489H66.3358ZM7.86098 107.241V105.164C7.86098 104.621 8.07545 104.125 8.41113 103.751L8.47641 103.695C8.84939 103.32 9.37157 103.087 9.94038 103.087H106.926C107.495 103.087 108.017 103.311 108.39 103.685L108.399 103.695C108.772 104.069 108.996 104.593 108.996 105.164V107.241H7.86098ZM3.27326 114.342V112.265C3.27326 111.722 3.4784 111.226 3.81409 110.852L3.87936 110.796C4.25235 110.422 4.77453 110.188 5.34333 110.188H111.523C112.092 110.188 112.605 110.422 112.987 110.796C113.36 111.17 113.593 111.694 113.593 112.265V114.342H3.27326ZM60.9648 31.4847C60.3214 30.8391 59.4262 30.4368 58.4285 30.4368C57.4401 30.4368 56.5449 30.8391 55.9015 31.4847C55.2488 32.1396 54.8478 33.0378 54.8478 34.0295C54.8478 35.0212 55.2488 35.9194 55.9015 36.5743C56.5449 37.2199 57.4401 37.6222 58.4285 37.6222C59.4262 37.6222 60.3214 37.2199 60.9648 36.5743H60.9741C61.6175 35.9194 62.0185 35.0212 62.0185 34.0295C62.0185 33.0284 61.6175 32.1302 60.9741 31.4847H60.9648Z" fill="#E3301D"/>
</g>
</g>
</g>
<defs>
<filter id="filter0_d_20_1112" x="-6.15474" y="-2.90076" width="128.896" height="130.69" filterUnits="userSpaceOnUse" color-interpolation-filters="sRGB">
<feFlood flood-opacity="0" result="BackgroundImageFix"/>
<feColorMatrix in="SourceAlpha" type="matrix" values="0 0 0 0 0 0 0 0 0 0 0 0 0 0 0 0 0 0 127 0" result="hardAlpha"/>
<feOffset dy="4"/>
<feGaussianBlur stdDeviation="3.25"/>
<feComposite in2="hardAlpha" operator="out"/>
<feColorMatrix type="matrix" values="0 0 0 0 0 0 0 0 0 0 0 0 0 0 0 0 0 0 0.3 0"/>
<feBlend mode="normal" in2="BackgroundImageFix" result="effect1_dropShadow_20_1112"/>
<feBlend mode="normal" in="SourceGraphic" in2="effect1_dropShadow_20_1112" result="shape"/>
</filter>
<clipPath id="clip0_20_1112">
<rect width="117" height="118" fill="white"/>
</clipPath>
</defs>
</svg>
