<svg width="137" height="141" viewBox="0 0 137 141" fill="none" xmlns="http://www.w3.org/2000/svg">
<g clip-path="url(#clip0_20_1124)">
<g filter="url(#filter0_d_20_1124)">
<mask id="mask0_20_1124" style="mask-type:luminance" maskUnits="userSpaceOnUse" x="10" y="-3" width="117" height="134">
<path d="M10.4777 -2.45111H126.488V130.16H10.4777V-2.45111Z" fill="white"/>
</mask>
<g mask="url(#mask0_20_1124)">
<path fill-rule="evenodd" clip-rule="evenodd" d="M100.611 70.7027C103.154 70.7027 105.349 72.2526 106.305 74.4563C107.104 76.2804 108.197 77.0923 110.214 76.2277C112.483 75.2576 115.215 75.6899 117.064 77.5457C118.86 79.3487 119.323 82.0057 118.44 84.2411C117.726 86.0968 117.936 87.4464 119.964 88.2583C122.264 89.1756 123.882 91.432 123.882 94.0575C123.882 96.6723 122.264 98.9287 119.964 99.8461C117.936 100.658 117.726 102.008 118.44 103.863C119.323 106.099 118.86 108.766 117.064 110.569C115.215 112.414 112.483 112.857 110.214 111.877C108.197 111.023 107.104 111.824 106.305 113.648C105.349 115.852 103.154 117.402 100.611 117.402C98.0685 117.402 95.8727 115.852 94.9061 113.648C94.1181 111.824 93.015 111.023 91.0083 111.877C88.7389 112.857 85.9968 112.414 84.1582 110.569C82.3616 108.766 81.8994 106.099 82.7714 103.863C83.4963 102.018 83.2862 100.658 81.2585 99.8461C78.9576 98.9287 77.3396 96.6723 77.3396 94.0575C77.3396 91.432 78.9576 89.1756 81.2585 88.2583C83.2862 87.4464 83.4963 86.0968 82.7714 84.2411C81.8994 82.0057 82.3616 79.3487 84.1582 77.5457C85.9968 75.6899 88.7389 75.2576 91.0083 76.2277C93.015 77.0923 94.1181 76.2804 94.9061 74.4563C95.8727 72.2526 98.0685 70.7027 100.611 70.7027ZM68.756 107.058H79.1467C79.0101 105.614 79.1992 104.127 79.7456 102.725C76.331 101.217 74.1037 97.8216 74.1037 94.0575C74.1037 90.2827 76.331 86.8876 79.7456 85.3798C78.779 82.8598 78.9366 80.0868 80.0818 77.7355C77.5918 77.0396 74.8602 76.3331 71.9184 75.6372L68.756 107.058ZM72.3492 21.0197C72.4857 24.3199 73.1371 27.0508 74.3138 29.2123C75.2489 30.9415 76.5306 32.3227 78.1696 33.3455C79.2938 29.0225 79.8611 25.2478 79.8716 22.0424C79.8716 19.6173 79.5565 17.5191 78.9261 15.7371C76.9824 17.8881 74.7971 19.6489 72.3492 21.0197ZM79.2623 46.0615C82.141 45.6397 83.8115 44.385 84.5679 42.9194C85.0407 41.9915 85.1563 40.9793 84.9882 40.0514C84.8201 39.1552 84.3998 38.3644 83.7695 37.8372C83.0445 37.2362 81.9939 36.9937 80.7121 37.4049C80.481 40.4943 79.9977 43.3728 79.2623 46.0615ZM77.5287 36.6985C76.5306 51.7763 69.0922 61.6349 55.2134 66.2742C55.1294 66.3058 55.0348 66.3269 54.9298 66.3269C54.8352 66.3269 54.7406 66.3058 54.6461 66.2742C47.5544 63.9018 42.1541 60.2009 38.4454 55.1609C34.8628 50.2896 32.8246 44.1425 32.3413 36.6985C34.6632 35.4965 36.5123 33.7989 37.8886 31.6163C39.4225 29.1701 40.347 26.1335 40.6517 22.5169C40.6622 22.422 40.6832 22.3482 40.7253 22.2849V22.2744C40.7673 22.2111 40.8408 22.1373 40.9459 22.074C41.0615 22.0002 41.1665 21.9581 41.2821 21.937C41.3977 21.9264 41.5343 21.937 41.6708 21.9792C52.6814 25.2267 61.8534 25.4059 69.1868 22.5169L69.2183 22.5064C69.4809 25.7222 70.2374 28.4742 71.4771 30.7622C72.8955 33.3666 74.9022 35.3489 77.5287 36.6985ZM63.9967 65.9157C61.6538 67.2548 59.0692 68.4041 56.243 69.3425C55.7913 69.5006 55.3605 69.5745 54.9298 69.5745C54.499 69.5745 54.0682 69.5006 53.627 69.3425C50.8008 68.4041 48.2162 67.2548 45.8628 65.9052L45.7683 66.696L45.7788 66.7065C45.6632 67.5606 45.5792 68.2565 45.1799 71.388C45.1484 71.5989 45.1064 71.8098 45.0434 72.0101C45.1274 72.0734 45.222 72.1366 45.306 72.1999L54.3834 79.4436C54.583 79.6017 54.7722 79.781 54.9298 79.9708C55.0979 79.781 55.2765 79.6017 55.4866 79.4436L64.564 72.1999C64.6481 72.1366 64.7321 72.0734 64.8162 72.0101C64.7636 71.8098 64.7111 71.5989 64.6901 71.388L63.9967 65.9157ZM30.6077 46.0615C29.8723 43.3728 29.389 40.4943 29.1579 37.4049C27.8761 36.9937 26.8255 37.2362 26.1005 37.8372C25.4702 38.3644 25.0394 39.1552 24.8713 40.0514C24.7032 40.9793 24.8293 41.9915 25.3021 42.9194C26.0585 44.385 27.729 45.6397 30.6077 46.0615ZM30.0509 20.4608C30.2715 16.7388 31.3432 13.8709 33.2553 11.8675C33.5285 11.5934 33.7386 11.2876 33.9067 10.9607H33.9172C34.0853 10.6233 34.2009 10.2754 34.2639 9.89581V9.88527C36.4702 -2.80962 49.3404 -0.753557 62.2106 1.30251C69.1132 2.40962 76.0158 3.51674 81.6682 2.55724H81.6787C81.8363 2.52561 81.9939 2.53615 82.12 2.57833C82.2356 2.6205 82.3511 2.69431 82.4457 2.79975C82.5297 2.8841 82.5718 2.97899 82.5928 3.06335C82.6033 3.1477 82.5928 3.24259 82.5612 3.33749C79.4094 11.5301 74.5555 16.9181 68.0101 19.5013C61.3596 22.1162 52.881 21.9053 42.5849 18.8687C42.007 18.7 41.4187 18.6473 40.8513 18.7316C40.284 18.8054 39.7272 19.0058 39.2229 19.3326H39.2124C38.7081 19.6595 38.2878 20.0812 37.9831 20.5768V20.5663C37.6679 21.0724 37.4788 21.6417 37.4263 22.2533C37.1742 25.3532 36.4177 27.8943 35.1569 29.8871C34.2744 31.3105 33.1187 32.4598 31.7004 33.3455C30.3871 28.3055 29.8303 24.0036 30.0509 20.4608ZM37.9516 75.6372C33.623 76.6705 29.7672 77.6933 26.4052 78.7266C22.0556 80.0551 18.5045 81.3837 15.7834 82.7122C14.386 83.4186 13.2829 84.3887 12.4949 85.6223C11.6859 86.8981 11.1816 88.4797 10.982 90.3565C10.7404 93.0241 10.5828 95.7023 10.5092 98.391C10.4357 101.08 10.4357 103.768 10.5197 106.468C10.5197 106.605 10.5933 106.742 10.7089 106.847C10.8559 106.984 11.0556 107.058 11.2867 107.058H41.114L37.9516 75.6372ZM44.3499 107.058H47.9746C47.8905 106.531 47.9221 105.993 48.0692 105.455L50.6327 96.0924C50.6537 96.0186 50.6537 95.9554 50.6537 95.9026C50.6432 95.8394 50.6222 95.7761 50.5907 95.7129L49.2248 93.1507C49.0673 93.2561 48.9097 93.351 48.7521 93.4354C48.1427 93.7306 47.4598 93.8782 46.7349 93.8571C46.0204 93.8255 45.348 93.6252 44.7702 93.2667C44.1818 92.9082 43.688 92.3915 43.3518 91.7589L42.6899 90.5042L44.3499 107.058ZM61.8849 107.058H65.5096L67.1801 90.5042L66.5077 91.7589H66.5182C66.182 92.3915 65.6882 92.9082 65.0998 93.2667C64.522 93.6252 63.8496 93.8255 63.1246 93.8571C62.3997 93.8887 61.7168 93.7411 61.1179 93.4354C60.9498 93.351 60.7923 93.2561 60.6452 93.1507L59.2794 95.7129C59.2478 95.7761 59.2268 95.8394 59.2163 95.8921V95.9026C59.2163 95.9659 59.2163 96.0292 59.2373 96.0924L61.8009 105.455C61.9479 105.993 61.969 106.531 61.8849 107.058ZM41.8389 82.0268L41.114 74.8991L42.5534 74.5828H42.5639C42.711 74.5512 42.8475 74.5406 42.9631 74.5723C43.0787 74.5934 43.1837 74.6566 43.2888 74.741L52.3767 81.9741C52.5028 82.0796 52.5763 82.2061 52.5974 82.3326C52.6184 82.4486 52.5974 82.5751 52.5133 82.7016L51.6413 84.0513C51.6098 84.0934 51.5783 84.1356 51.5467 84.1778V84.1883L48.8571 88.3321L48.8361 88.3637L47.5859 90.2827C47.5123 90.3882 47.4178 90.4831 47.3127 90.5358C47.1866 90.599 47.029 90.6307 46.8714 90.6201C46.7033 90.6096 46.5563 90.578 46.4407 90.5042C46.3461 90.4409 46.2621 90.3565 46.199 90.2405L41.8389 82.0268ZM61.0129 88.3321L58.3128 84.1883L57.3462 82.7016C57.2727 82.5751 57.2411 82.4486 57.2621 82.3326C57.2832 82.2061 57.3672 82.0796 57.4933 81.9741L66.5707 74.741C66.6863 74.6566 66.7913 74.5934 66.8964 74.5723C67.0225 74.5406 67.1591 74.5512 67.3061 74.5828H67.3166L68.7455 74.8991L68.0311 82.0268L63.671 90.2405H63.6605C63.5974 90.3565 63.5134 90.4409 63.4188 90.5042C63.3033 90.5674 63.1667 90.6096 62.9986 90.6201C62.841 90.6201 62.6834 90.599 62.5573 90.5358C62.4522 90.4725 62.3577 90.3882 62.2841 90.2827L61.0969 88.4692C61.0759 88.4165 61.0444 88.3743 61.0129 88.3321ZM51.5257 90.6307L53.4274 94.1945C53.6585 94.6268 53.8056 95.0802 53.8581 95.5336V95.5441C53.9106 95.9975 53.8686 96.4615 53.7425 96.9359L51.179 106.31C51.1475 106.404 51.1475 106.489 51.158 106.552H51.1685C51.179 106.626 51.221 106.7 51.2946 106.784C51.3681 106.879 51.4522 106.953 51.5467 106.995C51.6413 107.037 51.7674 107.058 51.9039 107.058H57.9556C58.1026 107.058 58.2182 107.037 58.3128 106.995H58.3233C58.4073 106.953 58.4914 106.879 58.5754 106.784C58.649 106.7 58.691 106.615 58.7015 106.552C58.712 106.489 58.712 106.404 58.691 106.31L56.1275 96.9359C55.9909 96.4615 55.9489 95.9975 56.0014 95.5336C56.0539 95.0697 56.201 94.6268 56.4322 94.1945L58.3338 90.6307C58.3863 90.5358 58.4073 90.4409 58.4073 90.3671C58.3968 90.2827 58.3653 90.1984 58.3023 90.1035L55.6022 85.9492V85.9386C55.5391 85.8437 55.4446 85.7699 55.3395 85.7067H55.35C55.2344 85.6539 55.0979 85.6223 54.9298 85.6223C54.7617 85.6223 54.6251 85.6539 54.52 85.7067H54.5095C54.4149 85.7594 54.3309 85.8437 54.2574 85.9597H54.2468L51.5572 90.1035H51.5467C51.4942 90.1984 51.4627 90.2827 51.4522 90.3671C51.4627 90.4409 51.4837 90.5358 51.5257 90.6307ZM94.3178 118.235C93.3302 117.349 92.5212 116.252 91.9644 114.998C88.4973 116.337 84.5259 115.525 81.8678 112.857C81.5001 112.488 81.1639 112.088 80.8697 111.666L75.0177 121.83C74.8076 122.199 74.8181 122.632 75.0493 123.001C75.2699 123.359 75.6586 123.549 76.0894 123.517L82.2251 123.001C82.6978 122.958 83.1286 123.201 83.3387 123.644L85.9548 129.232C86.1334 129.622 86.4906 129.865 86.9213 129.875C87.3521 129.896 87.7303 129.685 87.9405 129.316L94.3178 118.235ZM120.352 111.666C120.058 112.088 119.722 112.488 119.354 112.857C116.696 115.525 112.725 116.337 109.258 114.998C108.701 116.252 107.892 117.349 106.904 118.235L113.282 129.316C113.492 129.685 113.87 129.896 114.301 129.875C114.721 129.865 115.089 129.622 115.267 129.232L117.883 123.633C118.093 123.201 118.524 122.958 118.997 122.99L125.133 123.517C125.563 123.549 125.942 123.359 126.173 123.001C126.404 122.632 126.414 122.199 126.204 121.83L120.352 111.666ZM92.8049 94.9642L96.8288 99.941C97.5852 100.879 98.9195 100.974 99.8546 100.257C100.002 100.152 100.128 100.025 100.233 99.8988L107.24 91.2422C107.986 90.3249 107.839 88.9436 106.925 88.195C106.001 87.4464 104.624 87.5835 103.878 88.5113L98.6674 94.9642C98.6253 95.0064 98.5833 95.0275 98.5203 95.0275C98.4467 95.0275 98.4047 95.0064 98.3627 94.9642L96.1669 92.2334C95.4104 91.316 94.0446 91.1684 93.1201 91.917C92.206 92.6656 92.0589 94.0469 92.8049 94.9642ZM100.611 78.2521C96.2614 78.2521 92.3216 80.0235 89.4744 82.8809C86.6272 85.7383 84.8621 89.6923 84.8621 94.0575C84.8621 98.4121 86.6272 102.366 89.4744 105.223C92.3216 108.091 96.2614 109.852 100.611 109.852C104.961 109.852 108.89 108.091 111.748 105.223C114.595 102.366 116.36 98.4121 116.36 94.0575C116.36 89.6923 114.595 85.7383 111.748 82.8809C108.89 80.0235 104.961 78.2521 100.611 78.2521ZM109.457 85.1795C107.188 82.902 104.068 81.4996 100.611 81.4996C97.1545 81.4996 94.0236 82.902 91.7647 85.1795C89.4954 87.4464 88.0981 90.5885 88.0981 94.0575C88.0981 97.5159 89.4954 100.658 91.7647 102.935C94.0236 105.202 97.1545 106.605 100.611 106.605C104.068 106.605 107.188 105.202 109.457 102.935C111.716 100.658 113.124 97.5159 113.124 94.0575C113.124 90.5885 111.716 87.4464 109.457 85.1795Z" fill="#E3301D"/>
</g>
</g>
</g>
<defs>
<filter id="filter0_d_20_1124" x="3.97766" y="-2.73273" width="128.877" height="143.109" filterUnits="userSpaceOnUse" color-interpolation-filters="sRGB">
<feFlood flood-opacity="0" result="BackgroundImageFix"/>
<feColorMatrix in="SourceAlpha" type="matrix" values="0 0 0 0 0 0 0 0 0 0 0 0 0 0 0 0 0 0 127 0" result="hardAlpha"/>
<feOffset dy="4"/>
<feGaussianBlur stdDeviation="3.25"/>
<feComposite in2="hardAlpha" operator="out"/>
<feColorMatrix type="matrix" values="0 0 0 0 0 0 0 0 0 0 0 0 0 0 0 0 0 0 0.31 0"/>
<feBlend mode="normal" in2="BackgroundImageFix" result="effect1_dropShadow_20_1124"/>
<feBlend mode="normal" in="SourceGraphic" in2="effect1_dropShadow_20_1124" result="shape"/>
</filter>
<clipPath id="clip0_20_1124">
<rect width="137" height="141" fill="white"/>
</clipPath>
</defs>
</svg>
