<svg width="152" height="140" viewBox="0 0 152 140" fill="none" xmlns="http://www.w3.org/2000/svg">
<mask id="mask0_20_1130" style="mask-type:luminance" maskUnits="userSpaceOnUse" x="20" y="4" width="119" height="119">
<path d="M20.3741 4.80768H138.32V122.753H20.3741V4.80768Z" fill="white"/>
</mask>
<g mask="url(#mask0_20_1130)">
<path d="M79.4844 4.80768C95.8064 4.80768 110.582 11.4314 121.295 22.1166C131.981 32.8303 138.604 47.6055 138.604 63.9275C138.604 80.24 131.981 95.0152 121.295 105.729C110.582 116.414 95.8064 123.038 79.4844 123.038C63.1719 123.038 48.3967 116.414 37.683 105.729C26.9978 95.0152 20.3741 80.24 20.3741 63.9275C20.3741 47.6055 26.9978 32.8303 37.683 22.1166C48.3967 11.4314 63.1719 4.80768 79.4844 4.80768ZM119.426 23.986C109.215 13.7753 95.0947 7.43628 79.4844 7.43628C63.8836 7.43628 49.7632 13.7468 39.5525 23.986C29.3322 34.2063 23.0027 48.3172 23.0027 63.9275C23.0027 79.5283 29.3133 93.6487 39.5525 103.859C49.7632 114.08 63.8836 120.409 79.4844 120.409C95.0947 120.409 109.215 114.099 119.426 103.859C129.637 93.6487 135.976 79.5283 135.976 63.9275C135.976 48.3172 129.637 34.2063 119.426 23.986Z" fill="#E3301D"/>
</g>
<g filter="url(#filter0_d_20_1130)">
<path d="M50.0479 96.7234C47.0492 96.7234 44.6104 94.2845 44.6104 91.3048V71.9177C44.6104 71.1585 45.2272 70.5702 45.9579 70.5702H54.1189C54.878 70.5702 55.4664 71.187 55.4664 71.9177V91.2859C55.4854 94.313 53.056 96.7234 50.0479 96.7234ZM47.3338 73.2842V91.3048C47.3338 92.8232 48.558 94.0283 50.0479 94.0283H50.0763C51.5852 94.0283 52.7903 92.7947 52.7903 91.3048V73.2842H47.3338Z" fill="#E3301D"/>
</g>
<g filter="url(#filter1_d_20_1130)">
<path d="M58.2279 96.7234C55.2292 96.7234 52.7904 94.2845 52.7904 91.3048V71.9177C52.7904 71.1585 53.4072 70.5702 54.1379 70.5702H62.2989C63.0581 70.5702 63.6464 71.187 63.6464 71.9177V91.2859C63.6464 94.313 61.2076 96.7234 58.2279 96.7234ZM55.4854 73.2842V91.3048C55.4854 92.8232 56.7191 94.0283 58.2089 94.0283H58.2279C59.7462 94.0283 60.9514 92.7947 60.9514 91.3048V73.2842H55.4854Z" fill="#E3301D"/>
</g>
<g filter="url(#filter2_d_20_1130)">
<path d="M62.3463 73.2841H45.9104C45.1512 73.2841 44.5629 72.6767 44.5629 71.9365V62.3616C44.5629 59.0023 47.3054 56.2598 50.6647 56.2598H57.6205C59.3381 56.2598 60.9703 57 62.128 58.2526L62.2514 58.395C62.4602 58.6227 62.65 58.841 62.8682 59.0498L65.2975 61.4886L67.0721 59.714C68.6378 58.1577 71.1621 58.1577 72.6994 59.714C74.2651 61.2798 74.2651 63.804 72.6994 65.3413L66.2939 71.7278C65.772 72.2497 64.9464 72.2497 64.4055 71.7468L63.6938 71.0635V71.9365C63.6938 72.6767 63.1054 73.2841 62.3463 73.2841ZM47.2579 70.57H60.9988V67.894C60.9988 67.1443 61.6156 66.5465 62.3463 66.5465C62.6974 66.5465 63.0295 66.6888 63.2952 66.9261L65.326 68.8619L70.7825 63.4054C71.2854 62.9025 71.2854 62.0769 70.7825 61.5835C70.289 61.09 69.4634 61.09 68.97 61.5835L66.2275 64.3259C65.7056 64.8479 64.8515 64.8479 64.3106 64.3259L60.9229 60.9477C60.6856 60.682 60.4579 60.4447 60.2396 60.1885L60.1257 60.0462C59.4804 59.3344 58.56 58.9359 57.6205 58.9359H50.6647C48.7952 58.9359 47.2579 60.4447 47.2579 62.3426V70.57Z" fill="#E3301D"/>
</g>
<g filter="url(#filter3_d_20_1130)">
<path d="M43.2629 71.6994C41.0613 71.6994 39.2868 69.9344 39.2868 67.7044V62.6939C39.2868 59.6667 41.7541 57.2089 44.7812 57.2089H47.7989C48.5581 57.2089 49.1559 57.8257 49.1559 58.5564C49.1559 59.3156 48.5391 59.904 47.7989 59.904H44.7812C43.2439 59.904 42.0103 61.1566 42.0103 62.6939V67.7044C42.0103 68.4161 42.5796 68.9854 43.2914 68.9854C43.9936 68.9854 44.563 68.4161 44.563 67.7044V63.8326C44.563 63.0735 45.1798 62.4851 45.9105 62.4851C46.6412 62.4851 47.258 63.0924 47.258 63.8326V67.7044C47.258 69.9344 45.4834 71.6994 43.2629 71.6994Z" fill="#E3301D"/>
</g>
<g filter="url(#filter4_d_20_1130)">
<path d="M54.1379 55.3869C50.5699 55.3869 47.6661 52.5021 47.6661 48.9056C47.6661 45.3185 50.5509 42.4337 54.119 42.4337C57.687 42.4337 60.6003 45.3185 60.6003 48.8866C60.6003 52.4831 57.7155 55.3869 54.1379 55.3869ZM54.1379 45.1477C52.0597 45.1477 50.3801 46.8274 50.3801 48.9056C50.3801 50.9933 52.0597 52.6729 54.1379 52.6729C56.2256 52.6729 57.8958 50.9933 57.8958 48.9056C57.8958 46.8558 56.2256 45.1477 54.1379 45.1477Z" fill="#E3301D"/>
</g>
<g filter="url(#filter5_d_20_1130)">
<path d="M113.466 75.8179H62.2704C61.5207 75.8179 60.9229 75.201 60.9229 74.4704C60.9229 73.7397 61.5397 73.1228 62.2704 73.1228H113.447C115.383 73.1228 116.968 71.5381 116.968 69.6022V31.8339C116.968 29.898 115.383 28.3133 113.447 28.3133H46.6885C44.7527 28.3133 43.1679 29.898 43.1679 31.8339V59.809C43.1679 60.5682 42.5511 61.1565 41.8204 61.1565C41.0613 61.1565 40.4729 60.5397 40.4729 59.809V31.8339C40.4729 28.4081 43.2628 25.6182 46.6885 25.6182H113.447C116.873 25.6182 119.663 28.4081 119.663 31.8339V69.6022C119.682 73.0279 116.892 75.8179 113.466 75.8179Z" fill="#E3301D"/>
</g>
<g filter="url(#filter6_d_20_1130)">
<path d="M71.7315 61.9822C70.9724 61.9822 70.384 61.3749 70.384 60.6347C70.384 60.2836 70.5264 59.9325 70.7826 59.6953L83.7453 46.7325C84.2672 46.1916 85.1118 46.1632 85.6622 46.6851C86.2031 47.207 86.2316 48.0611 85.7096 48.602C85.6812 48.621 85.6812 48.621 85.6622 48.6494L72.6995 61.6026C72.4433 61.8399 72.1111 61.9822 71.7315 61.9822Z" fill="#E3301D"/>
</g>
<g filter="url(#filter7_d_20_1130)">
<path d="M86.2315 102.256H70.1752C69.416 102.256 68.8277 101.639 68.8277 100.908V97.0744C68.8277 94.2371 71.1431 91.9216 73.9805 91.9216H82.4167C85.2541 91.9216 87.579 94.2371 87.579 97.0744V100.908C87.579 101.639 86.9812 102.256 86.2315 102.256ZM71.5417 99.5322H84.884V97.0744C84.884 95.7269 83.7927 94.6356 82.4167 94.6167H73.9805C72.633 94.6167 71.5417 95.708 71.5227 97.0744V99.5322H71.5417Z" fill="#E3301D"/>
</g>
<g filter="url(#filter8_d_20_1130)">
<path d="M78.2129 90.9537C75.1857 90.9537 72.7279 88.4959 72.7279 85.4687C72.7279 82.4416 75.1857 79.9838 78.2129 79.9838C81.24 79.9838 83.6978 82.4416 83.6978 85.4687C83.6978 88.4959 81.24 90.9537 78.2129 90.9537ZM78.2129 82.6788C76.6756 82.6788 75.4229 83.9314 75.4229 85.4687C75.4229 87.006 76.6756 88.2586 78.2129 88.2586C79.7502 88.2586 81.0028 87.006 81.0028 85.4687C80.9743 83.9314 79.7502 82.6788 78.2129 82.6788Z" fill="#E3301D"/>
</g>
<g filter="url(#filter9_d_20_1130)">
<path d="M102.278 102.256H86.2314C85.4723 102.256 84.8839 101.639 84.8839 100.908V97.0744C84.8839 94.2371 87.1994 91.9216 90.0367 91.9216H98.4729C101.31 91.9216 103.626 94.2371 103.626 97.0744V100.908C103.626 101.639 103.037 102.256 102.278 102.256ZM87.5979 99.5322H100.931V97.0744C100.931 95.7269 99.8489 94.6356 98.4729 94.6167H90.0367C88.6892 94.6167 87.5979 95.708 87.5789 97.0744V99.5322H87.5979Z" fill="#E3301D"/>
</g>
<g filter="url(#filter10_d_20_1130)">
<path d="M94.2691 90.9537C91.2419 90.9537 88.7841 88.4959 88.7841 85.4687C88.7841 82.4416 91.2419 79.9838 94.2691 79.9838C97.2962 79.9838 99.754 82.4416 99.754 85.4687C99.7256 88.4959 97.2962 90.9537 94.2691 90.9537ZM94.2691 82.6788C92.7318 82.6788 91.4791 83.9314 91.4791 85.4687C91.4791 87.006 92.7318 88.2586 94.2691 88.2586C95.8064 88.2586 97.059 87.006 97.059 85.4687C97.0305 83.9314 95.8064 82.6788 94.2691 82.6788Z" fill="#E3301D"/>
</g>
<g filter="url(#filter11_d_20_1130)">
<path d="M118.335 102.256H102.278C101.529 102.256 100.931 101.639 100.931 100.908V97.0744C100.931 94.2371 103.256 91.9216 106.093 91.9216H114.529C117.367 91.9216 119.682 94.2371 119.682 97.0744V100.908C119.682 101.639 119.075 102.256 118.335 102.256ZM103.626 99.5322H116.968V97.0744C116.968 95.7269 115.877 94.6356 114.51 94.6167H106.065C104.717 94.6167 103.626 95.708 103.607 97.0744V99.5322H103.626Z" fill="#E3301D"/>
</g>
<g filter="url(#filter12_d_20_1130)">
<path d="M110.297 90.9537C107.27 90.9537 104.812 88.4959 104.812 85.4687C104.812 82.4416 107.27 79.9838 110.297 79.9838C113.324 79.9838 115.782 82.4416 115.782 85.4687C115.81 88.4959 113.353 90.9537 110.297 90.9537ZM110.297 82.6788C108.76 82.6788 107.507 83.9314 107.536 85.4687C107.554 87.006 108.788 88.2586 110.325 88.2302C111.863 88.2302 113.087 86.9776 113.087 85.4687C113.115 83.9314 111.863 82.6788 110.297 82.6788C110.325 82.6788 110.325 82.6788 110.297 82.6788Z" fill="#E3301D"/>
</g>
<g filter="url(#filter13_d_20_1130)">
<circle cx="79" cy="64" r="57.5" stroke="#E3301D" stroke-width="3" shape-rendering="crispEdges"/>
</g>
<defs>
<filter id="filter0_d_20_1130" x="38.1104" y="68.0702" width="23.8561" height="39.1531" filterUnits="userSpaceOnUse" color-interpolation-filters="sRGB">
<feFlood flood-opacity="0" result="BackgroundImageFix"/>
<feColorMatrix in="SourceAlpha" type="matrix" values="0 0 0 0 0 0 0 0 0 0 0 0 0 0 0 0 0 0 127 0" result="hardAlpha"/>
<feOffset dy="4"/>
<feGaussianBlur stdDeviation="3.25"/>
<feComposite in2="hardAlpha" operator="out"/>
<feColorMatrix type="matrix" values="0 0 0 0 0 0 0 0 0 0 0 0 0 0 0 0 0 0 0.3 0"/>
<feBlend mode="normal" in2="BackgroundImageFix" result="effect1_dropShadow_20_1130"/>
<feBlend mode="normal" in="SourceGraphic" in2="effect1_dropShadow_20_1130" result="shape"/>
</filter>
<filter id="filter1_d_20_1130" x="46.2904" y="68.0702" width="23.856" height="39.1531" filterUnits="userSpaceOnUse" color-interpolation-filters="sRGB">
<feFlood flood-opacity="0" result="BackgroundImageFix"/>
<feColorMatrix in="SourceAlpha" type="matrix" values="0 0 0 0 0 0 0 0 0 0 0 0 0 0 0 0 0 0 127 0" result="hardAlpha"/>
<feOffset dy="4"/>
<feGaussianBlur stdDeviation="3.25"/>
<feComposite in2="hardAlpha" operator="out"/>
<feColorMatrix type="matrix" values="0 0 0 0 0 0 0 0 0 0 0 0 0 0 0 0 0 0 0.3 0"/>
<feBlend mode="normal" in2="BackgroundImageFix" result="effect1_dropShadow_20_1130"/>
<feBlend mode="normal" in="SourceGraphic" in2="effect1_dropShadow_20_1130" result="shape"/>
</filter>
<filter id="filter2_d_20_1130" x="38.0629" y="53.7598" width="42.3108" height="30.0242" filterUnits="userSpaceOnUse" color-interpolation-filters="sRGB">
<feFlood flood-opacity="0" result="BackgroundImageFix"/>
<feColorMatrix in="SourceAlpha" type="matrix" values="0 0 0 0 0 0 0 0 0 0 0 0 0 0 0 0 0 0 127 0" result="hardAlpha"/>
<feOffset dy="4"/>
<feGaussianBlur stdDeviation="3.25"/>
<feComposite in2="hardAlpha" operator="out"/>
<feColorMatrix type="matrix" values="0 0 0 0 0 0 0 0 0 0 0 0 0 0 0 0 0 0 0.3 0"/>
<feBlend mode="normal" in2="BackgroundImageFix" result="effect1_dropShadow_20_1130"/>
<feBlend mode="normal" in="SourceGraphic" in2="effect1_dropShadow_20_1130" result="shape"/>
</filter>
<filter id="filter3_d_20_1130" x="32.7868" y="54.7089" width="22.8691" height="27.4905" filterUnits="userSpaceOnUse" color-interpolation-filters="sRGB">
<feFlood flood-opacity="0" result="BackgroundImageFix"/>
<feColorMatrix in="SourceAlpha" type="matrix" values="0 0 0 0 0 0 0 0 0 0 0 0 0 0 0 0 0 0 127 0" result="hardAlpha"/>
<feOffset dy="4"/>
<feGaussianBlur stdDeviation="3.25"/>
<feComposite in2="hardAlpha" operator="out"/>
<feColorMatrix type="matrix" values="0 0 0 0 0 0 0 0 0 0 0 0 0 0 0 0 0 0 0.3 0"/>
<feBlend mode="normal" in2="BackgroundImageFix" result="effect1_dropShadow_20_1130"/>
<feBlend mode="normal" in="SourceGraphic" in2="effect1_dropShadow_20_1130" result="shape"/>
</filter>
<filter id="filter4_d_20_1130" x="41.1661" y="39.9337" width="25.9343" height="25.9532" filterUnits="userSpaceOnUse" color-interpolation-filters="sRGB">
<feFlood flood-opacity="0" result="BackgroundImageFix"/>
<feColorMatrix in="SourceAlpha" type="matrix" values="0 0 0 0 0 0 0 0 0 0 0 0 0 0 0 0 0 0 127 0" result="hardAlpha"/>
<feOffset dy="4"/>
<feGaussianBlur stdDeviation="3.25"/>
<feComposite in2="hardAlpha" operator="out"/>
<feColorMatrix type="matrix" values="0 0 0 0 0 0 0 0 0 0 0 0 0 0 0 0 0 0 0.3 0"/>
<feBlend mode="normal" in2="BackgroundImageFix" result="effect1_dropShadow_20_1130"/>
<feBlend mode="normal" in="SourceGraphic" in2="effect1_dropShadow_20_1130" result="shape"/>
</filter>
<filter id="filter5_d_20_1130" x="33.9729" y="23.1182" width="92.1903" height="63.1996" filterUnits="userSpaceOnUse" color-interpolation-filters="sRGB">
<feFlood flood-opacity="0" result="BackgroundImageFix"/>
<feColorMatrix in="SourceAlpha" type="matrix" values="0 0 0 0 0 0 0 0 0 0 0 0 0 0 0 0 0 0 127 0" result="hardAlpha"/>
<feOffset dy="4"/>
<feGaussianBlur stdDeviation="3.25"/>
<feComposite in2="hardAlpha" operator="out"/>
<feColorMatrix type="matrix" values="0 0 0 0 0 0 0 0 0 0 0 0 0 0 0 0 0 0 0.3 0"/>
<feBlend mode="normal" in2="BackgroundImageFix" result="effect1_dropShadow_20_1130"/>
<feBlend mode="normal" in="SourceGraphic" in2="effect1_dropShadow_20_1130" result="shape"/>
</filter>
<filter id="filter6_d_20_1130" x="63.884" y="43.8098" width="28.7009" height="28.6725" filterUnits="userSpaceOnUse" color-interpolation-filters="sRGB">
<feFlood flood-opacity="0" result="BackgroundImageFix"/>
<feColorMatrix in="SourceAlpha" type="matrix" values="0 0 0 0 0 0 0 0 0 0 0 0 0 0 0 0 0 0 127 0" result="hardAlpha"/>
<feOffset dy="4"/>
<feGaussianBlur stdDeviation="3.25"/>
<feComposite in2="hardAlpha" operator="out"/>
<feColorMatrix type="matrix" values="0 0 0 0 0 0 0 0 0 0 0 0 0 0 0 0 0 0 0.3 0"/>
<feBlend mode="normal" in2="BackgroundImageFix" result="effect1_dropShadow_20_1130"/>
<feBlend mode="normal" in="SourceGraphic" in2="effect1_dropShadow_20_1130" result="shape"/>
</filter>
<filter id="filter7_d_20_1130" x="62.3277" y="89.4216" width="31.7513" height="23.3341" filterUnits="userSpaceOnUse" color-interpolation-filters="sRGB">
<feFlood flood-opacity="0" result="BackgroundImageFix"/>
<feColorMatrix in="SourceAlpha" type="matrix" values="0 0 0 0 0 0 0 0 0 0 0 0 0 0 0 0 0 0 127 0" result="hardAlpha"/>
<feOffset dy="4"/>
<feGaussianBlur stdDeviation="3.25"/>
<feComposite in2="hardAlpha" operator="out"/>
<feColorMatrix type="matrix" values="0 0 0 0 0 0 0 0 0 0 0 0 0 0 0 0 0 0 0.3 0"/>
<feBlend mode="normal" in2="BackgroundImageFix" result="effect1_dropShadow_20_1130"/>
<feBlend mode="normal" in="SourceGraphic" in2="effect1_dropShadow_20_1130" result="shape"/>
</filter>
<filter id="filter8_d_20_1130" x="66.2279" y="77.4838" width="23.9699" height="23.9699" filterUnits="userSpaceOnUse" color-interpolation-filters="sRGB">
<feFlood flood-opacity="0" result="BackgroundImageFix"/>
<feColorMatrix in="SourceAlpha" type="matrix" values="0 0 0 0 0 0 0 0 0 0 0 0 0 0 0 0 0 0 127 0" result="hardAlpha"/>
<feOffset dy="4"/>
<feGaussianBlur stdDeviation="3.25"/>
<feComposite in2="hardAlpha" operator="out"/>
<feColorMatrix type="matrix" values="0 0 0 0 0 0 0 0 0 0 0 0 0 0 0 0 0 0 0.3 0"/>
<feBlend mode="normal" in2="BackgroundImageFix" result="effect1_dropShadow_20_1130"/>
<feBlend mode="normal" in="SourceGraphic" in2="effect1_dropShadow_20_1130" result="shape"/>
</filter>
<filter id="filter9_d_20_1130" x="78.3839" y="89.4216" width="31.7418" height="23.3341" filterUnits="userSpaceOnUse" color-interpolation-filters="sRGB">
<feFlood flood-opacity="0" result="BackgroundImageFix"/>
<feColorMatrix in="SourceAlpha" type="matrix" values="0 0 0 0 0 0 0 0 0 0 0 0 0 0 0 0 0 0 127 0" result="hardAlpha"/>
<feOffset dy="4"/>
<feGaussianBlur stdDeviation="3.25"/>
<feComposite in2="hardAlpha" operator="out"/>
<feColorMatrix type="matrix" values="0 0 0 0 0 0 0 0 0 0 0 0 0 0 0 0 0 0 0.3 0"/>
<feBlend mode="normal" in2="BackgroundImageFix" result="effect1_dropShadow_20_1130"/>
<feBlend mode="normal" in="SourceGraphic" in2="effect1_dropShadow_20_1130" result="shape"/>
</filter>
<filter id="filter10_d_20_1130" x="82.2841" y="77.4838" width="23.9699" height="23.9699" filterUnits="userSpaceOnUse" color-interpolation-filters="sRGB">
<feFlood flood-opacity="0" result="BackgroundImageFix"/>
<feColorMatrix in="SourceAlpha" type="matrix" values="0 0 0 0 0 0 0 0 0 0 0 0 0 0 0 0 0 0 127 0" result="hardAlpha"/>
<feOffset dy="4"/>
<feGaussianBlur stdDeviation="3.25"/>
<feComposite in2="hardAlpha" operator="out"/>
<feColorMatrix type="matrix" values="0 0 0 0 0 0 0 0 0 0 0 0 0 0 0 0 0 0 0.3 0"/>
<feBlend mode="normal" in2="BackgroundImageFix" result="effect1_dropShadow_20_1130"/>
<feBlend mode="normal" in="SourceGraphic" in2="effect1_dropShadow_20_1130" result="shape"/>
</filter>
<filter id="filter11_d_20_1130" x="94.4308" y="89.4216" width="31.7513" height="23.3341" filterUnits="userSpaceOnUse" color-interpolation-filters="sRGB">
<feFlood flood-opacity="0" result="BackgroundImageFix"/>
<feColorMatrix in="SourceAlpha" type="matrix" values="0 0 0 0 0 0 0 0 0 0 0 0 0 0 0 0 0 0 127 0" result="hardAlpha"/>
<feOffset dy="4"/>
<feGaussianBlur stdDeviation="3.25"/>
<feComposite in2="hardAlpha" operator="out"/>
<feColorMatrix type="matrix" values="0 0 0 0 0 0 0 0 0 0 0 0 0 0 0 0 0 0 0.3 0"/>
<feBlend mode="normal" in2="BackgroundImageFix" result="effect1_dropShadow_20_1130"/>
<feBlend mode="normal" in="SourceGraphic" in2="effect1_dropShadow_20_1130" result="shape"/>
</filter>
<filter id="filter12_d_20_1130" x="98.312" y="77.4838" width="23.9702" height="23.9699" filterUnits="userSpaceOnUse" color-interpolation-filters="sRGB">
<feFlood flood-opacity="0" result="BackgroundImageFix"/>
<feColorMatrix in="SourceAlpha" type="matrix" values="0 0 0 0 0 0 0 0 0 0 0 0 0 0 0 0 0 0 127 0" result="hardAlpha"/>
<feOffset dy="4"/>
<feGaussianBlur stdDeviation="3.25"/>
<feComposite in2="hardAlpha" operator="out"/>
<feColorMatrix type="matrix" values="0 0 0 0 0 0 0 0 0 0 0 0 0 0 0 0 0 0 0.3 0"/>
<feBlend mode="normal" in2="BackgroundImageFix" result="effect1_dropShadow_20_1130"/>
<feBlend mode="normal" in="SourceGraphic" in2="effect1_dropShadow_20_1130" result="shape"/>
</filter>
<filter id="filter13_d_20_1130" x="13.5" y="2.5" width="131" height="131" filterUnits="userSpaceOnUse" color-interpolation-filters="sRGB">
<feFlood flood-opacity="0" result="BackgroundImageFix"/>
<feColorMatrix in="SourceAlpha" type="matrix" values="0 0 0 0 0 0 0 0 0 0 0 0 0 0 0 0 0 0 127 0" result="hardAlpha"/>
<feOffset dy="4"/>
<feGaussianBlur stdDeviation="3.25"/>
<feComposite in2="hardAlpha" operator="out"/>
<feColorMatrix type="matrix" values="0 0 0 0 0 0 0 0 0 0 0 0 0 0 0 0 0 0 0.35 0"/>
<feBlend mode="normal" in2="BackgroundImageFix" result="effect1_dropShadow_20_1130"/>
<feBlend mode="normal" in="SourceGraphic" in2="effect1_dropShadow_20_1130" result="shape"/>
</filter>
</defs>
</svg>
