<svg xmlns="http://www.w3.org/2000/svg" xmlns:xlink="http://www.w3.org/1999/xlink" width="300" zoomAndPan="magnify" viewBox="0 0 224.87999 233.04" height="300" preserveAspectRatio="xMidYMid meet" version="1.0"><defs><clipPath id="06ae20d25c"><path d="M 67.625 67.222656 L 157.253906 67.222656 L 157.253906 156.855469 L 67.625 156.855469 Z M 67.625 67.222656 " clip-rule="nonzero"/></clipPath></defs><g clip-path="url(#06ae20d25c)"><path fill="#e4383c" d="M 157.257812 112.039062 C 157.257812 113.507812 157.183594 114.96875 157.042969 116.429688 C 156.898438 117.890625 156.683594 119.34375 156.394531 120.78125 C 156.109375 122.222656 155.753906 123.644531 155.328125 125.046875 C 154.902344 126.453125 154.40625 127.832031 153.847656 129.1875 C 153.285156 130.542969 152.65625 131.871094 151.964844 133.164062 C 151.273438 134.457031 150.519531 135.714844 149.703125 136.9375 C 148.890625 138.15625 148.015625 139.335938 147.085938 140.46875 C 146.152344 141.605469 145.167969 142.691406 144.132812 143.726562 C 143.09375 144.765625 142.007812 145.75 140.871094 146.679688 C 139.738281 147.613281 138.558594 148.484375 137.339844 149.300781 C 136.121094 150.117188 134.863281 150.871094 133.566406 151.5625 C 132.273438 152.253906 130.949219 152.878906 129.59375 153.441406 C 128.234375 154.003906 126.855469 154.5 125.453125 154.925781 C 124.046875 155.351562 122.625 155.707031 121.183594 155.992188 C 119.746094 156.277344 118.296875 156.496094 116.835938 156.636719 C 115.375 156.78125 113.910156 156.855469 112.441406 156.855469 C 110.972656 156.855469 109.511719 156.78125 108.050781 156.636719 C 106.589844 156.496094 105.136719 156.277344 103.699219 155.992188 C 102.257812 155.707031 100.835938 155.351562 99.433594 154.925781 C 98.027344 154.5 96.648438 154.003906 95.292969 153.441406 C 93.9375 152.878906 92.609375 152.253906 91.316406 151.5625 C 90.023438 150.871094 88.765625 150.117188 87.542969 149.300781 C 86.324219 148.484375 85.144531 147.613281 84.011719 146.679688 C 82.875 145.75 81.789062 144.765625 80.753906 143.726562 C 79.714844 142.691406 78.730469 141.605469 77.800781 140.46875 C 76.867188 139.335938 75.996094 138.15625 75.179688 136.9375 C 74.363281 135.714844 73.609375 134.457031 72.917969 133.164062 C 72.226562 131.871094 71.601562 130.542969 71.039062 129.1875 C 70.476562 127.832031 69.984375 126.453125 69.554688 125.046875 C 69.128906 123.644531 68.773438 122.222656 68.488281 120.78125 C 68.203125 119.34375 67.984375 117.890625 67.84375 116.429688 C 67.699219 114.96875 67.625 113.507812 67.625 112.039062 C 67.625 110.570312 67.699219 109.105469 67.84375 107.644531 C 67.984375 106.183594 68.203125 104.734375 68.488281 103.296875 C 68.773438 101.855469 69.128906 100.433594 69.554688 99.027344 C 69.984375 97.625 70.476562 96.246094 71.039062 94.886719 C 71.601562 93.53125 72.226562 92.207031 72.917969 90.914062 C 73.609375 89.617188 74.363281 88.359375 75.179688 87.140625 C 75.996094 85.921875 76.867188 84.742188 77.800781 83.609375 C 78.730469 82.472656 79.714844 81.386719 80.753906 80.347656 C 81.789062 79.3125 82.875 78.328125 84.011719 77.394531 C 85.144531 76.464844 86.324219 75.589844 87.542969 74.777344 C 88.765625 73.960938 90.023438 73.207031 91.316406 72.515625 C 92.609375 71.824219 93.9375 71.195312 95.292969 70.632812 C 96.648438 70.074219 98.027344 69.578125 99.433594 69.152344 C 100.835938 68.726562 102.257812 68.371094 103.699219 68.085938 C 105.136719 67.796875 106.589844 67.582031 108.050781 67.4375 C 109.511719 67.296875 110.972656 67.222656 112.441406 67.222656 C 113.910156 67.222656 115.375 67.296875 116.835938 67.4375 C 118.296875 67.582031 119.746094 67.796875 121.183594 68.085938 C 122.625 68.371094 124.046875 68.726562 125.453125 69.152344 C 126.855469 69.578125 128.234375 70.074219 129.59375 70.632812 C 130.949219 71.195312 132.273438 71.824219 133.566406 72.515625 C 134.863281 73.207031 136.121094 73.960938 137.339844 74.777344 C 138.558594 75.589844 139.738281 76.464844 140.871094 77.394531 C 142.007812 78.328125 143.09375 79.3125 144.132812 80.347656 C 145.167969 81.386719 146.152344 82.472656 147.085938 83.609375 C 148.015625 84.742188 148.890625 85.921875 149.703125 87.140625 C 150.519531 88.359375 151.273438 89.617188 151.964844 90.914062 C 152.65625 92.207031 153.285156 93.53125 153.847656 94.886719 C 154.40625 96.246094 154.902344 97.625 155.328125 99.027344 C 155.753906 100.433594 156.109375 101.855469 156.394531 103.296875 C 156.683594 104.734375 156.898438 106.183594 157.042969 107.644531 C 157.183594 109.105469 157.257812 110.570312 157.257812 112.039062 Z M 157.257812 112.039062 " fill-opacity="1" fill-rule="nonzero"/></g><path fill="#ffffff" d="M 85.59375 95.703125 C 86.050781 95.402344 86.597656 95.226562 87.183594 95.226562 L 137.433594 95.226562 C 138.09375 95.226562 138.699219 95.445312 139.1875 95.820312 L 112.324219 110.398438 Z M 139.972656 127.335938 C 140.195312 126.929688 140.320312 126.460938 140.320312 125.964844 L 140.320312 98.464844 L 123.75 107.300781 Z M 84.300781 98.265625 L 84.300781 125.964844 C 84.300781 126.222656 84.332031 126.46875 84.394531 126.703125 L 100.902344 107.300781 Z M 121.164062 108.746094 L 113.03125 113.308594 C 112.8125 113.429688 112.570312 113.492188 112.324219 113.492188 C 112.082031 113.492188 111.839844 113.429688 111.621094 113.308594 L 103.488281 108.75 L 86.4375 128.753906 C 86.675781 128.816406 86.925781 128.851562 87.183594 128.851562 L 137.433594 128.851562 C 137.453125 128.851562 137.472656 128.851562 137.488281 128.851562 Z M 121.164062 108.746094 " fill-opacity="1" fill-rule="nonzero"/></svg>