<svg xmlns="http://www.w3.org/2000/svg" xmlns:xlink="http://www.w3.org/1999/xlink" width="300" zoomAndPan="magnify" viewBox="0 0 224.87999 233.04" height="300" preserveAspectRatio="xMidYMid meet" version="1.0"><defs><clipPath id="e3b2e6b95c"><path d="M 67.625 52.339844 L 157.253906 52.339844 L 157.253906 141.96875 L 67.625 141.96875 Z M 67.625 52.339844 " clip-rule="nonzero"/></clipPath></defs><g clip-path="url(#e3b2e6b95c)"><path fill="#e4383c" d="M 157.253906 97.15625 C 157.253906 98.621094 157.183594 100.085938 157.039062 101.546875 C 156.894531 103.007812 156.679688 104.457031 156.394531 105.898438 C 156.109375 107.335938 155.75 108.757812 155.324219 110.164062 C 154.898438 111.566406 154.40625 112.949219 153.84375 114.304688 C 153.28125 115.660156 152.65625 116.984375 151.964844 118.28125 C 151.273438 119.574219 150.519531 120.832031 149.703125 122.050781 C 148.886719 123.273438 148.015625 124.449219 147.082031 125.585938 C 146.152344 126.71875 145.167969 127.804688 144.128906 128.84375 C 143.089844 129.882812 142.003906 130.867188 140.871094 131.796875 C 139.734375 132.726562 138.558594 133.601562 137.339844 134.417969 C 136.117188 135.234375 134.859375 135.984375 133.566406 136.679688 C 132.269531 137.371094 130.945312 137.996094 129.589844 138.558594 C 128.234375 139.121094 126.855469 139.613281 125.449219 140.039062 C 124.042969 140.464844 122.621094 140.824219 121.183594 141.109375 C 119.742188 141.394531 118.292969 141.609375 116.832031 141.753906 C 115.371094 141.898438 113.90625 141.96875 112.441406 141.96875 C 110.972656 141.96875 109.507812 141.898438 108.046875 141.753906 C 106.585938 141.609375 105.136719 141.394531 103.695312 141.109375 C 102.257812 140.824219 100.835938 140.464844 99.429688 140.039062 C 98.027344 139.613281 96.644531 139.121094 95.289062 138.558594 C 93.933594 137.996094 92.609375 137.371094 91.3125 136.679688 C 90.019531 135.984375 88.761719 135.234375 87.542969 134.417969 C 86.320312 133.601562 85.144531 132.726562 84.007812 131.796875 C 82.875 130.867188 81.789062 129.882812 80.75 128.84375 C 79.710938 127.804688 78.726562 126.71875 77.796875 125.585938 C 76.867188 124.449219 75.992188 123.273438 75.175781 122.050781 C 74.363281 120.832031 73.609375 119.574219 72.917969 118.28125 C 72.222656 116.984375 71.597656 115.660156 71.035156 114.304688 C 70.472656 112.949219 69.980469 111.566406 69.554688 110.164062 C 69.128906 108.757812 68.773438 107.335938 68.484375 105.898438 C 68.199219 104.457031 67.984375 103.007812 67.839844 101.546875 C 67.695312 100.085938 67.625 98.621094 67.625 97.15625 C 67.625 95.6875 67.695312 94.222656 67.839844 92.761719 C 67.984375 91.300781 68.199219 89.851562 68.484375 88.410156 C 68.773438 86.972656 69.128906 85.550781 69.554688 84.144531 C 69.980469 82.742188 70.472656 81.359375 71.035156 80.003906 C 71.597656 78.648438 72.222656 77.324219 72.917969 76.027344 C 73.609375 74.734375 74.363281 73.476562 75.175781 72.257812 C 75.992188 71.035156 76.867188 69.859375 77.796875 68.722656 C 78.726562 67.589844 79.710938 66.503906 80.75 65.464844 C 81.789062 64.425781 82.875 63.441406 84.007812 62.511719 C 85.144531 61.582031 86.320312 60.707031 87.542969 59.890625 C 88.761719 59.078125 90.019531 58.324219 91.3125 57.628906 C 92.609375 56.9375 93.933594 56.3125 95.289062 55.75 C 96.644531 55.1875 98.027344 54.695312 99.429688 54.269531 C 100.835938 53.84375 102.257812 53.488281 103.695312 53.199219 C 105.136719 52.914062 106.585938 52.699219 108.046875 52.554688 C 109.507812 52.410156 110.972656 52.339844 112.441406 52.339844 C 113.90625 52.339844 115.371094 52.410156 116.832031 52.554688 C 118.292969 52.699219 119.742188 52.914062 121.183594 53.199219 C 122.621094 53.488281 124.042969 53.84375 125.449219 54.269531 C 126.855469 54.695312 128.234375 55.1875 129.589844 55.75 C 130.945312 56.3125 132.269531 56.9375 133.566406 57.628906 C 134.859375 58.324219 136.117188 59.078125 137.339844 59.890625 C 138.558594 60.707031 139.734375 61.582031 140.871094 62.511719 C 142.003906 63.441406 143.089844 64.425781 144.128906 65.464844 C 145.167969 66.503906 146.152344 67.589844 147.082031 68.722656 C 148.015625 69.859375 148.886719 71.035156 149.703125 72.257812 C 150.519531 73.476562 151.273438 74.734375 151.964844 76.027344 C 152.65625 77.324219 153.28125 78.648438 153.84375 80.003906 C 154.40625 81.359375 154.898438 82.742188 155.324219 84.144531 C 155.75 85.550781 156.109375 86.972656 156.394531 88.410156 C 156.679688 89.851562 156.894531 91.300781 157.039062 92.761719 C 157.183594 94.222656 157.253906 95.6875 157.253906 97.15625 Z M 157.253906 97.15625 " fill-opacity="1" fill-rule="nonzero"/></g><path fill="#fffffe" d="M 129.285156 125.730469 L 95.628906 125.730469 C 89.140625 125.730469 83.898438 120.453125 83.898438 113.996094 L 83.898438 80.34375 C 83.898438 73.855469 89.140625 68.609375 95.628906 68.609375 L 129.285156 68.609375 C 135.738281 68.609375 141.015625 73.855469 141.015625 80.34375 L 141.015625 113.996094 C 141.015625 120.453125 135.738281 125.730469 129.285156 125.730469 Z M 95.628906 72.175781 C 91.125 72.175781 87.460938 75.839844 87.460938 80.34375 L 87.460938 113.996094 C 87.460938 118.503906 91.125 122.167969 95.628906 122.167969 L 129.285156 122.167969 C 133.789062 122.167969 137.453125 118.503906 137.453125 113.996094 L 137.453125 80.34375 C 137.453125 75.839844 133.789062 72.175781 129.285156 72.175781 Z M 95.628906 72.175781 " fill-opacity="1" fill-rule="evenodd"/><path fill="#fffffe" d="M 112.441406 113.089844 C 103.664062 113.089844 96.539062 105.960938 96.539062 97.15625 C 96.539062 88.378906 103.664062 81.253906 112.441406 81.253906 C 121.25 81.253906 128.375 88.378906 128.375 97.15625 C 128.375 105.960938 121.25 113.089844 112.441406 113.089844 Z M 112.441406 84.816406 C 105.648438 84.816406 100.101562 90.363281 100.101562 97.15625 C 100.101562 103.980469 105.648438 109.527344 112.441406 109.527344 C 119.265625 109.527344 124.8125 103.980469 124.8125 97.15625 C 124.8125 90.363281 119.265625 84.816406 112.441406 84.816406 Z M 112.441406 84.816406 " fill-opacity="1" fill-rule="evenodd"/><path fill="#fffffe" d="M 104.101562 100.046875 C 103.09375 100.046875 102.320312 99.238281 102.320312 98.265625 C 102.320312 92.078125 107.363281 87.035156 113.550781 87.035156 C 114.523438 87.035156 115.332031 87.808594 115.332031 88.816406 C 115.332031 89.792969 114.523438 90.597656 113.550781 90.597656 C 109.3125 90.597656 105.882812 94.027344 105.882812 98.265625 C 105.882812 99.238281 105.078125 100.046875 104.101562 100.046875 Z M 104.101562 100.046875 " fill-opacity="1" fill-rule="evenodd"/><path fill="#fffffe" d="M 98.320312 98.9375 L 91.832031 98.9375 C 90.855469 98.9375 90.050781 98.164062 90.050781 97.15625 C 90.050781 96.179688 90.855469 95.371094 91.832031 95.371094 L 98.320312 95.371094 C 99.292969 95.371094 100.101562 96.179688 100.101562 97.15625 C 100.101562 98.164062 99.292969 98.9375 98.320312 98.9375 Z M 98.320312 98.9375 " fill-opacity="1" fill-rule="evenodd"/><path fill="#fffffe" d="M 132.914062 98.9375 L 126.59375 98.9375 C 125.617188 98.9375 124.8125 98.164062 124.8125 97.15625 C 124.8125 96.179688 125.617188 95.371094 126.59375 95.371094 L 132.914062 95.371094 C 133.890625 95.371094 134.695312 96.179688 134.695312 97.15625 C 134.695312 98.164062 133.890625 98.9375 132.914062 98.9375 Z M 132.914062 98.9375 " fill-opacity="1" fill-rule="evenodd"/><path fill="#fffffe" d="M 125.382812 119.546875 L 99.496094 119.546875 C 94.285156 119.546875 90.050781 115.308594 90.050781 110.097656 L 90.050781 84.210938 C 90.050781 79 94.285156 74.761719 99.496094 74.761719 L 125.382812 74.761719 C 130.59375 74.761719 134.832031 79 134.832031 84.210938 L 134.832031 110.097656 C 134.832031 115.308594 130.59375 119.546875 125.382812 119.546875 Z M 99.496094 78.328125 C 96.269531 78.328125 93.613281 80.984375 93.613281 84.210938 L 93.613281 110.097656 C 93.613281 113.359375 96.269531 115.980469 99.496094 115.980469 L 125.382812 115.980469 C 128.644531 115.980469 131.265625 113.359375 131.265625 110.097656 L 131.265625 84.210938 C 131.265625 80.984375 128.644531 78.328125 125.382812 78.328125 Z M 99.496094 78.328125 " fill-opacity="1" fill-rule="evenodd"/></svg>