<svg xmlns="http://www.w3.org/2000/svg" xmlns:xlink="http://www.w3.org/1999/xlink" width="300" zoomAndPan="magnify" viewBox="0 0 224.87999 233.04" height="300" preserveAspectRatio="xMidYMid meet" version="1.0"><defs><clipPath id="64e2692e9c"><path d="M 69.765625 73.824219 L 146 73.824219 L 146 150 L 69.765625 150 Z M 69.765625 73.824219 " clip-rule="nonzero"/></clipPath><clipPath id="94d78b8542"><path d="M 149 139 L 159.398438 139 L 159.398438 150.007812 L 149 150.007812 Z M 149 139 " clip-rule="nonzero"/></clipPath></defs><path fill="#e4383c" d="M 154.972656 145.339844 C 155.746094 145.34375 156.382812 144.722656 156.390625 143.949219 C 156.390625 143.917969 156.390625 143.882812 156.390625 143.851562 C 156.390625 142.796875 155.753906 142.296875 154.453125 142.296875 L 152.347656 142.296875 L 152.347656 147.808594 L 153.140625 147.808594 L 153.140625 145.40625 L 154.113281 145.40625 L 154.136719 145.433594 L 155.644531 147.808594 L 156.492188 147.808594 L 154.867188 145.351562 Z M 154.054688 144.785156 L 153.136719 144.785156 L 153.136719 142.921875 L 154.304688 142.921875 C 154.902344 142.921875 155.589844 143.023438 155.589844 143.808594 C 155.589844 144.714844 154.894531 144.789062 154.050781 144.789062 " fill-opacity="1" fill-rule="nonzero"/><g clip-path="url(#64e2692e9c)"><path fill="#e4383c" d="M 134.320312 138.433594 L 123.09375 138.433594 L 123.09375 120.851562 C 123.09375 116.664062 123.019531 111.265625 117.257812 111.265625 C 111.496094 111.265625 110.515625 115.832031 110.515625 120.550781 L 110.515625 138.433594 L 99.292969 138.433594 L 99.292969 102.28125 L 110.070312 102.28125 L 110.070312 107.222656 L 110.21875 107.222656 C 112.417969 103.460938 116.503906 101.21875 120.851562 101.378906 C 132.230469 101.378906 134.324219 108.863281 134.324219 118.597656 L 134.324219 138.433594 Z M 86.621094 97.339844 C 83.023438 97.339844 80.105469 94.425781 80.105469 90.828125 C 80.105469 87.230469 83.019531 84.3125 86.617188 84.3125 C 90.214844 84.3125 93.132812 87.226562 93.132812 90.824219 C 93.132812 94.421875 90.21875 97.339844 86.621094 97.339844 M 92.238281 138.433594 L 80.996094 138.433594 L 80.996094 102.28125 L 92.238281 102.28125 Z M 139.917969 73.882812 L 75.355469 73.882812 C 72.304688 73.851562 69.800781 76.296875 69.765625 79.347656 L 69.765625 144.171875 C 69.800781 147.226562 72.300781 149.671875 75.355469 149.640625 L 139.917969 149.640625 C 142.976562 149.679688 145.484375 147.230469 145.527344 144.171875 L 145.527344 79.34375 C 145.484375 76.285156 142.976562 73.839844 139.917969 73.878906 " fill-opacity="1" fill-rule="nonzero"/></g><g clip-path="url(#94d78b8542)"><path fill="#e4383c" d="M 154.148438 139.84375 C 151.292969 139.871094 149.003906 142.207031 149.035156 145.058594 C 149.0625 147.914062 151.394531 150.203125 154.25 150.175781 C 157.105469 150.148438 159.394531 147.8125 159.363281 144.960938 C 159.335938 142.144531 157.0625 139.867188 154.25 139.84375 L 154.148438 139.84375 M 154.148438 149.585938 C 151.648438 149.628906 149.585938 147.632812 149.542969 145.132812 C 149.5 142.628906 151.5 140.570312 154 140.527344 C 156.5 140.484375 158.5625 142.480469 158.605469 144.980469 L 158.605469 145.054688 C 158.65625 147.503906 156.714844 149.527344 154.265625 149.582031 L 154.148438 149.582031 " fill-opacity="1" fill-rule="nonzero"/></g></svg>