<svg width="67" height="75" viewBox="0 0 67 75" fill="none" xmlns="http://www.w3.org/2000/svg">
<mask id="mask0_5_117" style="mask-type:luminance" maskUnits="userSpaceOnUse" x="0" y="42" width="67" height="33">
<path d="M0 42.7527H67V75H0V42.7527Z" fill="white"/>
</mask>
<g mask="url(#mask0_5_117)">
<path d="M43.9625 42.9775H22.9438C22.1929 42.9775 21.4439 43.0146 20.6969 43.0889C19.9479 43.1651 19.2067 43.2745 18.4694 43.423C17.734 43.5696 17.0045 43.7533 16.2868 43.9721C15.567 44.191 14.8609 44.445 14.1685 44.7323C13.4741 45.0215 12.7953 45.3439 12.1322 45.6976C11.4709 46.0533 10.8273 46.4402 10.2031 46.8584C9.577 47.2766 8.97625 47.7241 8.39499 48.2029C7.81374 48.6797 7.25785 49.1838 6.72731 49.7173C6.19482 50.2488 5.69159 50.8058 5.21566 51.3881C4.73779 51.9704 4.29112 52.5743 3.87371 53.1996C3.4563 53.8249 3.0701 54.4698 2.71511 55.1342C2.36207 55.7967 2.04023 56.4767 1.75156 57.1724C1.46483 57.8661 1.21127 58.5754 0.992809 59.2946C0.774352 60.0156 0.591005 60.7445 0.444716 61.4813C0.296477 62.2199 0.185299 62.9645 0.111179 63.7129C0.0370599 64.4613 0 65.2117 0 65.966V72.9873C0 73.2491 0.0487626 73.5012 0.148239 73.7416C0.249665 73.9839 0.392052 74.1969 0.5754 74.3825C0.760699 74.5662 0.973304 74.7089 1.21322 74.8085C1.45508 74.9101 1.7067 74.959 1.96806 74.959H64.9403C65.1997 74.959 65.4513 74.9101 65.6932 74.8085C65.9331 74.7089 66.1457 74.5662 66.331 74.3825C66.5163 74.1969 66.6567 73.9839 66.7581 73.7416C66.8576 73.5012 66.9064 73.2491 66.9064 72.9873V65.966C66.9064 65.2117 66.8693 64.4613 66.7952 63.7129C66.7211 62.9645 66.6099 62.2199 66.4617 61.4813C66.3154 60.7445 66.132 60.0156 65.9136 59.2946C65.6951 58.5754 65.4416 57.8661 65.1548 57.1724C64.8661 56.4767 64.5443 55.7967 64.1913 55.1342C63.8363 54.4698 63.4501 53.8249 63.0327 53.1996C62.6153 52.5743 62.1686 51.9704 61.6907 51.3881C61.2148 50.8058 60.7116 50.2488 60.1791 49.7173C59.6485 49.1838 59.0926 48.6797 58.5114 48.2029C57.9321 47.7241 57.3294 47.2766 56.7033 46.8584C56.0791 46.4402 55.4354 46.0533 54.7742 45.6976C54.111 45.3439 53.4323 45.0215 52.7398 44.7323C52.0454 44.445 51.3394 44.191 50.6196 43.9721C49.9018 43.7533 49.1723 43.5696 48.437 43.423C47.6997 43.2745 46.9585 43.1651 46.2095 43.0889C45.4625 43.0146 44.7135 42.9775 43.9625 42.9775Z" fill="white"/>
</g>
<mask id="mask1_5_117" style="mask-type:luminance" maskUnits="userSpaceOnUse" x="15" y="0" width="37" height="36">
<path d="M15.3525 0H51.3043V35.7491H15.3525V0Z" fill="white"/>
</mask>
<g mask="url(#mask1_5_117)">
<path d="M51.1639 17.7847C51.1639 18.365 51.1366 18.9454 51.0781 19.5239C51.0215 20.1023 50.9377 20.6768 50.8245 21.2455C50.7114 21.8161 50.571 22.3789 50.4013 22.9358C50.2335 23.4908 50.0385 24.0379 49.8161 24.5753C49.5938 25.1127 49.3461 25.6364 49.073 26.1484C48.7999 26.6623 48.5015 27.1587 48.1796 27.6433C47.8578 28.126 47.5126 28.5911 47.1439 29.0405C46.7753 29.49 46.3871 29.9199 45.9775 30.3322C45.566 30.7426 45.1369 31.1315 44.6882 31.5008C44.2416 31.8701 43.7754 32.216 43.2936 32.5384C42.8099 32.8609 42.3145 33.1599 41.8015 33.4334C41.2904 33.707 40.7677 33.9552 40.2313 34.178C39.6949 34.4007 39.1488 34.5962 38.5948 34.7642C38.0389 34.9323 37.4772 35.0749 36.9077 35.1883C36.3401 35.3016 35.7666 35.3856 35.1893 35.4423C34.6119 35.5009 34.0326 35.5283 33.4533 35.5283C32.874 35.5283 32.2947 35.5009 31.7173 35.4423C31.14 35.3856 30.5665 35.3016 29.999 35.1883C29.4294 35.0749 28.8677 34.9323 28.3118 34.7642C27.7578 34.5962 27.2117 34.4007 26.6753 34.178C26.1389 33.9552 25.6162 33.707 25.1051 33.4334C24.5921 33.1599 24.0967 32.8609 23.613 32.5384C23.1312 32.216 22.667 31.8701 22.2184 31.5008C21.7698 31.1315 21.3406 30.7426 20.9291 30.3322C20.5195 29.9199 20.1313 29.49 19.7627 29.0405C19.394 28.5911 19.0488 28.126 18.727 27.6433C18.4051 27.1587 18.1067 26.6623 17.8336 26.1484C17.5606 25.6364 17.3128 25.1127 17.0905 24.5753C16.8681 24.0379 16.6731 23.4908 16.5053 22.9358C16.3376 22.3789 16.1952 21.8161 16.0821 21.2455C15.9689 20.6768 15.8851 20.1023 15.8285 19.5239C15.77 18.9454 15.7427 18.365 15.7427 17.7847C15.7427 17.2043 15.77 16.6239 15.8285 16.0455C15.8851 15.4671 15.9689 14.8925 16.0821 14.3219C16.1952 13.7533 16.3376 13.1905 16.5053 12.6335C16.6731 12.0786 16.8681 11.5314 17.0905 10.994C17.3128 10.4566 17.5606 9.93292 17.8336 9.42093C18.1067 8.90699 18.4051 8.41064 18.727 7.92601C19.0488 7.44334 19.394 6.9763 19.7627 6.5288C20.1313 6.07935 20.5195 5.64944 20.9291 5.23711C21.3406 4.82674 21.7698 4.43787 22.2184 4.06853C22.667 3.6992 23.1312 3.35332 23.613 3.03088C24.0967 2.70845 24.5921 2.40947 25.1051 2.13589C25.6162 1.86231 26.1389 1.61413 26.6753 1.39136C27.2117 1.16859 27.7578 0.973172 28.3118 0.805116C28.8677 0.635105 29.4294 0.494408 29.999 0.381067C30.5665 0.267727 31.14 0.183698 31.7173 0.127028C32.2947 0.0684039 32.874 0.0410461 33.4533 0.0410461C34.0326 0.0410461 34.6119 0.0684039 35.1893 0.127028C35.7666 0.183698 36.3401 0.267727 36.9077 0.381067C37.4772 0.494408 38.0389 0.635105 38.5948 0.805116C39.1488 0.973172 39.6949 1.16859 40.2313 1.39136C40.7677 1.61413 41.2904 1.86231 41.8015 2.13589C42.3145 2.40947 42.8099 2.70845 43.2936 3.03088C43.7754 3.35332 44.2416 3.6992 44.6882 4.06853C45.1369 4.43787 45.566 4.82674 45.9775 5.23711C46.3871 5.64944 46.7753 6.07935 47.1439 6.5288C47.5126 6.9763 47.8578 7.44334 48.1796 7.92601C48.5015 8.41064 48.7999 8.90699 49.073 9.42093C49.3461 9.93292 49.5938 10.4566 49.8161 10.994C50.0385 11.5314 50.2335 12.0786 50.4013 12.6335C50.571 13.1905 50.7114 13.7533 50.8245 14.3219C50.9377 14.8925 51.0215 15.4671 51.0781 16.0455C51.1366 16.6239 51.1639 17.2043 51.1639 17.7847Z" fill="white"/>
</g>
</svg>
